<svg xml:space="preserve" viewBox="0 0 100 100" y="0" x="0" xmlns="http://www.w3.org/2000/svg" id="Layer_1" version="1.1" style="height: 100%; width: 100%; background: rgb(241, 242, 243);" width="200px" height="200px"><g class="ldl-scale" style="transform-origin: 50% 50%; transform: rotate(0deg) scale(0.8, 0.8);"><g class="ldl-ani"><g class="ldl-layer"><g class="ldl-ani" style="transform: scale(0.91); transform-origin: 50px 50px; animation: 1.11111s linear -0.740741s infinite normal forwards running breath-0b4cf7ad-9103-42c4-be2e-373bd51c2767;"><path fill="#323232" d="M50 78.902c-.499 0-.998-.2-1.365-.601l-31.21-25.24h-5.568c-1.612 0-2.455 1.916-1.365 3.104l38.144 32.803c.367.4.866.601 1.365.601s.998-.2 1.365-.601L89.51 56.165c1.089-1.188.247-3.104-1.365-3.104h-5.568l-31.21 25.24a1.85 1.85 0 0 1-1.367.601z" id="XMLID_787_" style="fill: rgb(243, 15, 175);"></path></g></g><g class="ldl-layer"><g class="ldl-ani" style="transform: scale(0.91); transform-origin: 50px 50px; animation: 1.11111s linear -0.925926s infinite normal forwards running breath-0b4cf7ad-9103-42c4-be2e-373bd51c2767;"><path fill="#999998" d="M50 57.569c-.499 0-.998-.2-1.365-.601l-31.21-25.24h-5.568c-1.612 0-2.455 1.916-1.365 3.104l38.144 32.803c.367.4.866.601 1.365.601s.998-.2 1.365-.601L89.51 34.832c1.089-1.188.247-3.104-1.365-3.104h-5.568l-31.21 25.24a1.85 1.85 0 0 1-1.367.601z" id="XMLID_786_" style="fill: rgb(236, 133, 205);"></path></g></g><g class="ldl-layer"><g class="ldl-ani" style="transform: scale(0.91); transform-origin: 50px 50px; animation: 1.11111s linear -1.11111s infinite normal forwards running breath-0b4cf7ad-9103-42c4-be2e-373bd51c2767;"><path fill="#cccccb" d="M50 36.21c-.499 0-.998-.2-1.365-.601l-31.21-25.24h-5.568c-1.612 0-2.455 1.916-1.365 3.104l38.144 32.803c.367.4.866.601 1.365.601s.998-.2 1.365-.601L89.51 13.473c1.089-1.188.247-3.104-1.365-3.104h-5.568l-31.21 25.24A1.85 1.85 0 0 1 50 36.21z" id="XMLID_785_" style="fill: rgb(243, 15, 175);"></path></g></g><metadata xmlns:d="https://loading.io/stock/">
<d:name>down</d:name>
<d:tags>south,download,bottom,direction,way,dart,chevron,down,arrow</d:tags>
<d:license>by</d:license>
<d:slug>lq510q</d:slug>
</metadata></g></g></svg>