<svg width="1440" height="821" viewBox="0 0 1440 821" fill="none" xmlns="http://www.w3.org/2000/svg">
<g opacity="0.33">
<path d="M124.089 79.3605H3.89453V-40.8342H124.089V79.3605ZM4.82225 78.4327H123.162V-39.9065H4.82225V78.4327Z" fill="#111621"/>
<path d="M243.355 79.3605H123.16V-40.8342H243.355V79.3605ZM124.088 78.4327H242.427V-39.9065H124.088V78.4327Z" fill="#111621"/>
<path d="M362.661 79.3605H242.466V-40.8342H362.661V79.3605ZM243.394 78.4327H361.733V-39.9065H243.394V78.4327Z" fill="#111621"/>
<path d="M481.926 79.3605H361.731V-40.8342H481.926V79.3605ZM362.659 78.4327H480.998V-39.9065H362.659V78.4327Z" fill="#111621"/>
<path d="M601.196 79.3604H481.001V-40.8343H601.196V79.3604ZM481.929 78.4327H600.268V-39.9065H481.929V78.4327Z" fill="#111621"/>
<path d="M720.461 79.3605H600.266V-40.8342H720.461V79.3605ZM601.194 78.4327H719.533V-39.9065H601.194V78.4327Z" fill="#111621"/>
<path d="M839.767 79.3604H719.572V-40.8343H839.767V79.3604ZM720.5 78.4327H838.839V-39.9065H720.5V78.4327Z" fill="#111621"/>
<path d="M959.033 79.3604H838.838V-40.8343H959.033V79.3604ZM839.766 78.4327H958.105V-39.9065H839.766V78.4327Z" fill="#111621"/>
<path d="M1078.3 79.3604H958.104V-40.8343H1078.3V79.3604ZM959.031 78.4327H1077.37V-39.9065H959.031V78.4327Z" fill="#111621"/>
<path d="M1197.6 79.3605H1077.41V-40.8342H1197.6V79.3605ZM1078.34 78.4327H1196.68V-39.9065H1078.34V78.4327Z" fill="#111621"/>
<path d="M1316.87 79.3605H1196.67V-40.8342H1316.87V79.3605ZM1197.6 78.4327H1315.94V-39.9065H1197.6V78.4327Z" fill="#111621"/>
<path d="M1436.14 79.3604H1315.94V-40.8343H1436.14V79.3604ZM1316.87 78.4327H1435.21V-39.9065H1316.87V78.4327Z" fill="#111621"/>
</g>
<g opacity="0.33">
<path d="M124.089 198.664H3.89453V78.4697H124.089V198.664ZM4.82225 197.737H123.162V79.3974H4.82225V197.737Z" fill="#111621"/>
<path d="M243.355 198.664H123.16V78.4697H243.355V198.664ZM124.088 197.737H242.427V79.3974H124.088V197.737Z" fill="#111621"/>
<path d="M362.661 198.664H242.466V78.4697H362.661V198.664ZM243.394 197.737H361.733V79.3974H243.394V197.737Z" fill="#111621"/>
<path d="M481.926 198.664H361.731V78.4697H481.926V198.664ZM362.659 197.737H480.998V79.3974H362.659V197.737Z" fill="#111621"/>
<path d="M601.196 198.664H481.001V78.4697H601.196V198.664ZM481.929 197.737H600.268V79.3974H481.929V197.737Z" fill="#111621"/>
<path d="M720.461 198.664H600.266V78.4697H720.461V198.664ZM601.194 197.737H719.533V79.3974H601.194V197.737Z" fill="#111621"/>
<path d="M839.767 198.664H719.572V78.4697H839.767V198.664ZM720.5 197.737H838.839V79.3974H720.5V197.737Z" fill="#111621"/>
<path d="M959.033 198.664H838.838V78.4697H959.033V198.664ZM839.766 197.737H958.105V79.3974H839.766V197.737Z" fill="#111621"/>
<path d="M1078.3 198.664H958.104V78.4697H1078.3V198.664ZM959.031 197.737H1077.37V79.3974H959.031V197.737Z" fill="#111621"/>
<path d="M1197.6 198.664H1077.41V78.4697H1197.6V198.664ZM1078.34 197.737H1196.68V79.3974H1078.34V197.737Z" fill="#111621"/>
<path d="M1316.87 198.664H1196.67V78.4697H1316.87V198.664ZM1197.6 197.737H1315.94V79.3974H1197.6V197.737Z" fill="#111621"/>
<path d="M1436.14 198.664H1315.94V78.4697H1436.14V198.664ZM1316.87 197.737H1435.21V79.3974H1316.87V197.737Z" fill="#111621"/>
</g>
<g opacity="0.33">
<path d="M124.089 317.932H3.89453V197.737H124.089V317.932ZM4.82225 317.004H123.162V198.665H4.82225V317.004Z" fill="#111621"/>
<path d="M243.355 317.932H123.16V197.737H243.355V317.932ZM124.088 317.004H242.427V198.665H124.088V317.004Z" fill="#111621"/>
<path d="M362.661 317.932H242.466V197.737H362.661V317.932ZM243.394 317.004H361.733V198.665H243.394V317.004Z" fill="#111621"/>
<path d="M481.926 317.932H361.731V197.737H481.926V317.932ZM362.659 317.004H480.998V198.665H362.659V317.004Z" fill="#111621"/>
<path d="M601.196 317.931H481.001V197.737H601.196V317.931ZM481.929 317.004H600.268V198.664H481.929V317.004Z" fill="#111621"/>
<path d="M720.461 317.932H600.266V197.737H720.461V317.932ZM601.194 317.004H719.533V198.665H601.194V317.004Z" fill="#111621"/>
<path d="M839.767 317.931H719.572V197.737H839.767V317.931ZM720.5 317.004H838.839V198.664H720.5V317.004Z" fill="#111621"/>
<path d="M959.033 317.931H838.838V197.737H959.033V317.931ZM839.766 317.004H958.105V198.664H839.766V317.004Z" fill="#111621"/>
<path d="M1078.3 317.931H958.104V197.737H1078.3V317.931ZM959.031 317.004H1077.37V198.664H959.031V317.004Z" fill="#111621"/>
<path d="M1197.6 317.932H1077.41V197.737H1197.6V317.932ZM1078.34 317.004H1196.68V198.665H1078.34V317.004Z" fill="#111621"/>
<path d="M1316.87 317.932H1196.67V197.737H1316.87V317.932ZM1197.6 317.004H1315.94V198.665H1197.6V317.004Z" fill="#111621"/>
<path d="M1436.14 317.931H1315.94V197.737H1436.14V317.931ZM1316.87 317.004H1435.21V198.664H1316.87V317.004Z" fill="#111621"/>
</g>
<g opacity="0.33">
<path d="M124.089 437.198H3.89453V317.004H124.089V437.198ZM4.82225 436.271H123.162V317.931H4.82225V436.271Z" fill="#111621"/>
<path d="M243.355 437.198H123.16V317.004H243.355V437.198ZM124.088 436.271H242.427V317.931H124.088V436.271Z" fill="#111621"/>
<path d="M362.661 437.198H242.466V317.004H362.661V437.198ZM243.394 436.271H361.733V317.931H243.394V436.271Z" fill="#111621"/>
<path d="M481.926 437.198H361.731V317.004H481.926V437.198ZM362.659 436.271H480.998V317.931H362.659V436.271Z" fill="#111621"/>
<path d="M601.196 437.198H481.001V317.004H601.196V437.198ZM481.929 436.271H600.268V317.931H481.929V436.271Z" fill="#111621"/>
<path d="M720.461 437.198H600.266V317.004H720.461V437.198ZM601.194 436.271H719.533V317.931H601.194V436.271Z" fill="#111621"/>
<path d="M839.767 437.198H719.572V317.004H839.767V437.198ZM720.5 436.271H838.839V317.931H720.5V436.271Z" fill="#111621"/>
<path d="M959.033 437.198H838.838V317.004H959.033V437.198ZM839.766 436.271H958.105V317.931H839.766V436.271Z" fill="#111621"/>
<path d="M1078.3 437.198H958.104V317.004H1078.3V437.198ZM959.031 436.271H1077.37V317.931H959.031V436.271Z" fill="#111621"/>
<path d="M1197.6 437.198H1077.41V317.004H1197.6V437.198ZM1078.34 436.271H1196.68V317.931H1078.34V436.271Z" fill="#111621"/>
<path d="M1316.87 437.198H1196.67V317.004H1316.87V437.198ZM1197.6 436.271H1315.94V317.931H1197.6V436.271Z" fill="#111621"/>
<path d="M1436.14 437.198H1315.94V317.004H1436.14V437.198ZM1316.87 436.271H1435.21V317.931H1316.87V436.271Z" fill="#111621"/>
</g>
<g opacity="0.33">
<path d="M124.089 556.465H3.89453V436.271H124.089V556.465ZM4.82225 555.538H123.162V437.198H4.82225V555.538Z" fill="#111621"/>
<path d="M243.355 556.465H123.16V436.271H243.355V556.465ZM124.088 555.538H242.427V437.198H124.088V555.538Z" fill="#111621"/>
<path d="M362.661 556.465H242.466V436.271H362.661V556.465ZM243.394 555.538H361.733V437.198H243.394V555.538Z" fill="#111621"/>
<path d="M481.926 556.465H361.731V436.271H481.926V556.465ZM362.659 555.538H480.998V437.198H362.659V555.538Z" fill="#111621"/>
<path d="M601.196 556.465H481.001V436.271H601.196V556.465ZM481.929 555.538H600.268V437.198H481.929V555.538Z" fill="#111621"/>
<path d="M720.461 556.465H600.266V436.271H720.461V556.465ZM601.194 555.538H719.533V437.198H601.194V555.538Z" fill="#111621"/>
<path d="M839.767 556.465H719.572V436.271H839.767V556.465ZM720.5 555.538H838.839V437.198H720.5V555.538Z" fill="#111621"/>
<path d="M959.033 556.465H838.838V436.271H959.033V556.465ZM839.766 555.538H958.105V437.198H839.766V555.538Z" fill="#111621"/>
<path d="M1078.3 556.465H958.104V436.271H1078.3V556.465ZM959.031 555.538H1077.37V437.198H959.031V555.538Z" fill="#111621"/>
<path d="M1197.6 556.465H1077.41V436.271H1197.6V556.465ZM1078.34 555.538H1196.68V437.198H1078.34V555.538Z" fill="#111621"/>
<path d="M1316.87 556.465H1196.67V436.271H1316.87V556.465ZM1197.6 555.538H1315.94V437.198H1197.6V555.538Z" fill="#111621"/>
<path d="M1436.14 556.465H1315.94V436.271H1436.14V556.465ZM1316.87 555.538H1435.21V437.198H1316.87V555.538Z" fill="#111621"/>
</g>
<g opacity="0.33">
<path d="M124.089 675.769H3.89453V555.575H124.089V675.769ZM4.82225 674.842H123.162V556.502H4.82225V674.842Z" fill="#111621"/>
<path d="M243.355 675.769H123.16V555.575H243.355V675.769ZM124.088 674.842H242.427V556.502H124.088V674.842Z" fill="#111621"/>
<path d="M362.661 675.769H242.466V555.575H362.661V675.769ZM243.394 674.842H361.733V556.502H243.394V674.842Z" fill="#111621"/>
<path d="M481.926 675.769H361.731V555.575H481.926V675.769ZM362.659 674.842H480.998V556.502H362.659V674.842Z" fill="#111621"/>
<path d="M601.196 675.769H481.001V555.575H601.196V675.769ZM481.929 674.842H600.268V556.502H481.929V674.842Z" fill="#111621"/>
<path d="M720.461 675.769H600.266V555.575H720.461V675.769ZM601.194 674.842H719.533V556.502H601.194V674.842Z" fill="#111621"/>
<path d="M839.767 675.769H719.572V555.575H839.767V675.769ZM720.5 674.842H838.839V556.502H720.5V674.842Z" fill="#111621"/>
<path d="M959.033 675.769H838.838V555.575H959.033V675.769ZM839.766 674.842H958.105V556.502H839.766V674.842Z" fill="#111621"/>
<path d="M1078.3 675.769H958.104V555.575H1078.3V675.769ZM959.031 674.842H1077.37V556.502H959.031V674.842Z" fill="#111621"/>
<path d="M1197.6 675.769H1077.41V555.575H1197.6V675.769ZM1078.34 674.842H1196.68V556.502H1078.34V674.842Z" fill="#111621"/>
<path d="M1316.87 675.769H1196.67V555.575H1316.87V675.769ZM1197.6 674.842H1315.94V556.502H1197.6V674.842Z" fill="#111621"/>
<path d="M1436.14 675.769H1315.94V555.575H1436.14V675.769ZM1316.87 674.842H1435.21V556.502H1316.87V674.842Z" fill="#111621"/>
</g>
<g opacity="0.33">
<path d="M124.089 795.037H3.89453V674.842H124.089V795.037ZM4.82225 794.109H123.162V675.769H4.82225V794.109Z" fill="#111621"/>
<path d="M243.355 795.037H123.16V674.842H243.355V795.037ZM124.088 794.109H242.427V675.769H124.088V794.109Z" fill="#111621"/>
<path d="M362.661 795.037H242.466V674.842H362.661V795.037ZM243.394 794.109H361.733V675.769H243.394V794.109Z" fill="#111621"/>
<path d="M481.926 795.037H361.731V674.842H481.926V795.037ZM362.659 794.109H480.998V675.769H362.659V794.109Z" fill="#111621"/>
<path d="M601.196 795.037H481.001V674.842H601.196V795.037ZM481.929 794.109H600.268V675.769H481.929V794.109Z" fill="#111621"/>
<path d="M720.461 795.037H600.266V674.842H720.461V795.037ZM601.194 794.109H719.533V675.769H601.194V794.109Z" fill="#111621"/>
<path d="M839.767 795.037H719.572V674.842H839.767V795.037ZM720.5 794.109H838.839V675.769H720.5V794.109Z" fill="#111621"/>
<path d="M959.033 795.037H838.838V674.842H959.033V795.037ZM839.766 794.109H958.105V675.769H839.766V794.109Z" fill="#111621"/>
<path d="M1078.3 795.037H958.104V674.842H1078.3V795.037ZM959.031 794.109H1077.37V675.769H959.031V794.109Z" fill="#111621"/>
<path d="M1197.6 795.037H1077.41V674.842H1197.6V795.037ZM1078.34 794.109H1196.68V675.769H1078.34V794.109Z" fill="#111621"/>
<path d="M1316.87 795.037H1196.67V674.842H1316.87V795.037ZM1197.6 794.109H1315.94V675.769H1197.6V794.109Z" fill="#111621"/>
<path d="M1436.14 795.037H1315.94V674.842H1436.14V795.037ZM1316.87 794.109H1435.21V675.769H1316.87V794.109Z" fill="#111621"/>
</g>
<g opacity="0.33">
<path d="M124.089 914.303H3.89453V794.109H124.089V914.303ZM4.82225 913.376H123.162V795.036H4.82225V913.376Z" fill="#111621"/>
<path d="M243.355 914.303H123.16V794.109H243.355V914.303ZM124.088 913.376H242.427V795.036H124.088V913.376Z" fill="#111621"/>
<path d="M362.661 914.303H242.466V794.109H362.661V914.303ZM243.394 913.376H361.733V795.036H243.394V913.376Z" fill="#111621"/>
<path d="M481.926 914.303H361.731V794.109H481.926V914.303ZM362.659 913.376H480.998V795.036H362.659V913.376Z" fill="#111621"/>
<path d="M601.196 914.303H481.001V794.109H601.196V914.303ZM481.929 913.376H600.268V795.037H481.929V913.376Z" fill="#111621"/>
<path d="M720.461 914.303H600.266V794.109H720.461V914.303ZM601.194 913.376H719.533V795.036H601.194V913.376Z" fill="#111621"/>
<path d="M839.767 914.303H719.572V794.109H839.767V914.303ZM720.5 913.376H838.839V795.037H720.5V913.376Z" fill="#111621"/>
<path d="M959.033 914.303H838.838V794.109H959.033V914.303ZM839.766 913.376H958.105V795.037H839.766V913.376Z" fill="#111621"/>
<path d="M1078.3 914.303H958.104V794.109H1078.3V914.303ZM959.031 913.376H1077.37V795.037H959.031V913.376Z" fill="#111621"/>
<path d="M1197.6 914.303H1077.41V794.109H1197.6V914.303ZM1078.34 913.376H1196.68V795.036H1078.34V913.376Z" fill="#111621"/>
<path d="M1316.87 914.303H1196.67V794.109H1316.87V914.303ZM1197.6 913.376H1315.94V795.036H1197.6V913.376Z" fill="#111621"/>
<path d="M1436.14 914.303H1315.94V794.109H1436.14V914.303ZM1316.87 913.376H1435.21V795.037H1316.87V913.376Z" fill="#111621"/>
</g>
<path d="M0.0390625 78.9151C0.0390625 76.5401 1.96871 74.6105 4.34366 74.6105C6.71861 74.6105 8.64825 76.5401 8.64825 78.9151C8.64825 81.29 6.71861 83.2197 4.34366 83.2197C1.96871 83.2197 0.0390625 81.29 0.0390625 78.9151Z" fill="#111621"/>
<path d="M123.646 83.2197C126.023 83.2197 127.95 81.2925 127.95 78.9151C127.95 76.5377 126.023 74.6105 123.646 74.6105C121.268 74.6105 119.341 76.5377 119.341 78.9151C119.341 81.2925 121.268 83.2197 123.646 83.2197Z" fill="#111621"/>
<path d="M123.646 83.2197C126.023 83.2197 127.95 81.2925 127.95 78.9151C127.95 76.5377 126.023 74.6105 123.646 74.6105C121.268 74.6105 119.341 76.5377 119.341 78.9151C119.341 81.2925 121.268 83.2197 123.646 83.2197Z" fill="#111621"/>
<path d="M242.911 83.2197C245.289 83.2197 247.216 81.2925 247.216 78.9151C247.216 76.5377 245.289 74.6105 242.911 74.6105C240.534 74.6105 238.607 76.5377 238.607 78.9151C238.607 81.2925 240.534 83.2197 242.911 83.2197Z" fill="#111621"/>
<path d="M242.911 83.2197C245.289 83.2197 247.216 81.2925 247.216 78.9151C247.216 76.5377 245.289 74.6105 242.911 74.6105C240.534 74.6105 238.607 76.5377 238.607 78.9151C238.607 81.2925 240.534 83.2197 242.911 83.2197Z" fill="#111621"/>
<path d="M362.181 83.2197C364.558 83.2197 366.485 81.2925 366.485 78.9151C366.485 76.5377 364.558 74.6105 362.181 74.6105C359.803 74.6105 357.876 76.5377 357.876 78.9151C357.876 81.2925 359.803 83.2197 362.181 83.2197Z" fill="#111621"/>
<path d="M362.181 83.2197C364.558 83.2197 366.485 81.2925 366.485 78.9151C366.485 76.5377 364.558 74.6105 362.181 74.6105C359.803 74.6105 357.876 76.5377 357.876 78.9151C357.876 81.2925 359.803 83.2197 362.181 83.2197Z" fill="#111621"/>
<path d="M481.446 83.2197C483.824 83.2197 485.751 81.2925 485.751 78.9151C485.751 76.5377 483.824 74.6105 481.446 74.6105C479.069 74.6105 477.142 76.5377 477.142 78.9151C477.142 81.2925 479.069 83.2197 481.446 83.2197Z" fill="#111621"/>
<path d="M481.446 83.2197C483.824 83.2197 485.751 81.2925 485.751 78.9151C485.751 76.5377 483.824 74.6105 481.446 74.6105C479.069 74.6105 477.142 76.5377 477.142 78.9151C477.142 81.2925 479.069 83.2197 481.446 83.2197Z" fill="#111621"/>
<path d="M596.447 78.9151C596.447 76.5401 598.377 74.6105 600.752 74.6105C603.127 74.6105 605.056 76.5401 605.056 78.9151C605.056 81.29 603.127 83.2197 600.752 83.2197C598.377 83.2197 596.447 81.29 596.447 78.9151Z" fill="#111621"/>
<path d="M596.447 78.9151C596.447 76.5401 598.377 74.6105 600.752 74.6105C603.127 74.6105 605.056 76.5401 605.056 78.9151C605.056 81.29 603.127 83.2197 600.752 83.2197C598.377 83.2197 596.447 81.29 596.447 78.9151Z" fill="#111621"/>
<path d="M720.017 83.2197C722.395 83.2197 724.322 81.2925 724.322 78.9151C724.322 76.5377 722.395 74.6105 720.017 74.6105C717.64 74.6105 715.713 76.5377 715.713 78.9151C715.713 81.2925 717.64 83.2197 720.017 83.2197Z" fill="#111621"/>
<path d="M720.017 83.2197C722.395 83.2197 724.322 81.2925 724.322 78.9151C724.322 76.5377 722.395 74.6105 720.017 74.6105C717.64 74.6105 715.713 76.5377 715.713 78.9151C715.713 81.2925 717.64 83.2197 720.017 83.2197Z" fill="#111621"/>
<path d="M834.982 78.9151C834.982 76.5401 836.912 74.6105 839.287 74.6105C841.662 74.6105 843.592 76.5401 843.592 78.9151C843.592 81.29 841.662 83.2197 839.287 83.2197C836.912 83.2197 834.982 81.29 834.982 78.9151Z" fill="#111621"/>
<path d="M834.982 78.9151C834.982 76.5401 836.912 74.6105 839.287 74.6105C841.662 74.6105 843.592 76.5401 843.592 78.9151C843.592 81.29 841.662 83.2197 839.287 83.2197C836.912 83.2197 834.982 81.29 834.982 78.9151Z" fill="#111621"/>
<path d="M958.589 83.2197C960.966 83.2197 962.893 81.2925 962.893 78.9151C962.893 76.5377 960.966 74.6105 958.589 74.6105C956.211 74.6105 954.284 76.5377 954.284 78.9151C954.284 81.2925 956.211 83.2197 958.589 83.2197Z" fill="#111621"/>
<path d="M958.589 83.2197C960.966 83.2197 962.893 81.2925 962.893 78.9151C962.893 76.5377 960.966 74.6105 958.589 74.6105C956.211 74.6105 954.284 76.5377 954.284 78.9151C954.284 81.2925 956.211 83.2197 958.589 83.2197Z" fill="#111621"/>
<path d="M1077.85 83.2197C1080.23 83.2197 1082.16 81.2924 1082.16 78.9151C1082.16 76.5377 1080.23 74.6105 1077.85 74.6105C1075.48 74.6105 1073.55 76.5377 1073.55 78.9151C1073.55 81.2924 1075.48 83.2197 1077.85 83.2197Z" fill="#111621"/>
<path d="M1077.85 83.2197C1080.23 83.2197 1082.16 81.2924 1082.16 78.9151C1082.16 76.5377 1080.23 74.6105 1077.85 74.6105C1075.48 74.6105 1073.55 76.5377 1073.55 78.9151C1073.55 81.2924 1075.48 83.2197 1077.85 83.2197Z" fill="#111621"/>
<path d="M1197.12 83.2197C1199.5 83.2197 1201.43 81.2924 1201.43 78.9151C1201.43 76.5377 1199.5 74.6105 1197.12 74.6105C1194.75 74.6105 1192.82 76.5377 1192.82 78.9151C1192.82 81.2924 1194.75 83.2197 1197.12 83.2197Z" fill="#111621"/>
<path d="M1197.12 83.2197C1199.5 83.2197 1201.43 81.2924 1201.43 78.9151C1201.43 76.5377 1199.5 74.6105 1197.12 74.6105C1194.75 74.6105 1192.82 76.5377 1192.82 78.9151C1192.82 81.2924 1194.75 83.2197 1197.12 83.2197Z" fill="#111621"/>
<path d="M1316.39 83.2197C1318.77 83.2197 1320.69 81.2924 1320.69 78.9151C1320.69 76.5377 1318.77 74.6105 1316.39 74.6105C1314.01 74.6105 1312.08 76.5377 1312.08 78.9151C1312.08 81.2924 1314.01 83.2197 1316.39 83.2197Z" fill="#111621"/>
<path d="M1316.39 83.2197C1318.77 83.2197 1320.69 81.2924 1320.69 78.9151C1320.69 76.5377 1318.77 74.6105 1316.39 74.6105C1314.01 74.6105 1312.08 76.5377 1312.08 78.9151C1312.08 81.2924 1314.01 83.2197 1316.39 83.2197Z" fill="#111621"/>
<path d="M1431.39 78.9151C1431.39 76.5401 1433.32 74.6105 1435.69 74.6105C1438.07 74.6105 1440 76.5401 1440 78.9151C1440 81.29 1438.07 83.2197 1435.69 83.2197C1433.32 83.2197 1431.39 81.29 1431.39 78.9151Z" fill="#111621"/>
<path d="M123.646 83.2197C126.023 83.2197 127.95 81.2925 127.95 78.9151C127.95 76.5377 126.023 74.6105 123.646 74.6105C121.268 74.6105 119.341 76.5377 119.341 78.9151C119.341 81.2925 121.268 83.2197 123.646 83.2197Z" fill="#111621"/>
<path d="M0.0390625 78.9151C0.0390625 76.5401 1.96871 74.6105 4.34366 74.6105C6.71861 74.6105 8.64825 76.5401 8.64825 78.9151C8.64825 81.29 6.71861 83.2197 4.34366 83.2197C1.96871 83.2197 0.0390625 81.29 0.0390625 78.9151Z" fill="#111621"/>
<path d="M0.0390625 198.182C0.0390625 195.807 1.96871 193.878 4.34366 193.878C6.71861 193.878 8.64825 195.807 8.64825 198.182C8.64825 200.557 6.71861 202.487 4.34366 202.487C1.96871 202.487 0.0390625 200.557 0.0390625 198.182Z" fill="#111621"/>
<path d="M123.646 202.487C126.023 202.487 127.95 200.56 127.95 198.182C127.95 195.805 126.023 193.878 123.646 193.878C121.268 193.878 119.341 195.805 119.341 198.182C119.341 200.56 121.268 202.487 123.646 202.487Z" fill="#111621"/>
<path d="M242.911 83.2197C245.289 83.2197 247.216 81.2925 247.216 78.9151C247.216 76.5377 245.289 74.6105 242.911 74.6105C240.534 74.6105 238.607 76.5377 238.607 78.9151C238.607 81.2925 240.534 83.2197 242.911 83.2197Z" fill="#111621"/>
<path d="M123.646 83.2197C126.023 83.2197 127.95 81.2925 127.95 78.9151C127.95 76.5377 126.023 74.6105 123.646 74.6105C121.268 74.6105 119.341 76.5377 119.341 78.9151C119.341 81.2925 121.268 83.2197 123.646 83.2197Z" fill="#111621"/>
<path d="M123.646 202.487C126.023 202.487 127.95 200.56 127.95 198.182C127.95 195.805 126.023 193.878 123.646 193.878C121.268 193.878 119.341 195.805 119.341 198.182C119.341 200.56 121.268 202.487 123.646 202.487Z" fill="#111621"/>
<path d="M242.911 202.487C245.289 202.487 247.216 200.56 247.216 198.182C247.216 195.805 245.289 193.878 242.911 193.878C240.534 193.878 238.607 195.805 238.607 198.182C238.607 200.56 240.534 202.487 242.911 202.487Z" fill="#111621"/>
<path d="M362.181 83.2197C364.558 83.2197 366.485 81.2925 366.485 78.9151C366.485 76.5377 364.558 74.6105 362.181 74.6105C359.803 74.6105 357.876 76.5377 357.876 78.9151C357.876 81.2925 359.803 83.2197 362.181 83.2197Z" fill="#111621"/>
<path d="M242.911 83.2197C245.289 83.2197 247.216 81.2925 247.216 78.9151C247.216 76.5377 245.289 74.6105 242.911 74.6105C240.534 74.6105 238.607 76.5377 238.607 78.9151C238.607 81.2925 240.534 83.2197 242.911 83.2197Z" fill="#111621"/>
<path d="M242.911 202.487C245.289 202.487 247.216 200.56 247.216 198.182C247.216 195.805 245.289 193.878 242.911 193.878C240.534 193.878 238.607 195.805 238.607 198.182C238.607 200.56 240.534 202.487 242.911 202.487Z" fill="#111621"/>
<path d="M362.181 202.487C364.558 202.487 366.485 200.56 366.485 198.182C366.485 195.805 364.558 193.878 362.181 193.878C359.803 193.878 357.876 195.805 357.876 198.182C357.876 200.56 359.803 202.487 362.181 202.487Z" fill="#111621"/>
<path d="M481.446 83.2197C483.824 83.2197 485.751 81.2925 485.751 78.9151C485.751 76.5377 483.824 74.6105 481.446 74.6105C479.069 74.6105 477.142 76.5377 477.142 78.9151C477.142 81.2925 479.069 83.2197 481.446 83.2197Z" fill="#111621"/>
<path d="M362.181 83.2197C364.558 83.2197 366.485 81.2925 366.485 78.9151C366.485 76.5377 364.558 74.6105 362.181 74.6105C359.803 74.6105 357.876 76.5377 357.876 78.9151C357.876 81.2925 359.803 83.2197 362.181 83.2197Z" fill="#111621"/>
<path d="M362.181 202.487C364.558 202.487 366.485 200.56 366.485 198.182C366.485 195.805 364.558 193.878 362.181 193.878C359.803 193.878 357.876 195.805 357.876 198.182C357.876 200.56 359.803 202.487 362.181 202.487Z" fill="#111621"/>
<path d="M481.446 202.487C483.824 202.487 485.751 200.56 485.751 198.182C485.751 195.805 483.824 193.878 481.446 193.878C479.069 193.878 477.142 195.805 477.142 198.182C477.142 200.56 479.069 202.487 481.446 202.487Z" fill="#111621"/>
<path d="M596.447 78.9151C596.447 76.5401 598.377 74.6105 600.752 74.6105C603.127 74.6105 605.056 76.5401 605.056 78.9151C605.056 81.29 603.127 83.2197 600.752 83.2197C598.377 83.2197 596.447 81.29 596.447 78.9151Z" fill="#111621"/>
<path d="M481.446 83.2197C483.824 83.2197 485.751 81.2925 485.751 78.9151C485.751 76.5377 483.824 74.6105 481.446 74.6105C479.069 74.6105 477.142 76.5377 477.142 78.9151C477.142 81.2925 479.069 83.2197 481.446 83.2197Z" fill="#111621"/>
<path d="M481.446 202.487C483.824 202.487 485.751 200.56 485.751 198.182C485.751 195.805 483.824 193.878 481.446 193.878C479.069 193.878 477.142 195.805 477.142 198.182C477.142 200.56 479.069 202.487 481.446 202.487Z" fill="#111621"/>
<path d="M596.447 198.182C596.447 195.807 598.377 193.878 600.752 193.878C603.127 193.878 605.056 195.807 605.056 198.182C605.056 200.557 603.127 202.487 600.752 202.487C598.377 202.487 596.447 200.557 596.447 198.182Z" fill="#111621"/>
<path d="M720.017 83.2197C722.395 83.2197 724.322 81.2925 724.322 78.9151C724.322 76.5377 722.395 74.6105 720.017 74.6105C717.64 74.6105 715.713 76.5377 715.713 78.9151C715.713 81.2925 717.64 83.2197 720.017 83.2197Z" fill="#111621"/>
<path d="M596.447 78.9151C596.447 76.5401 598.377 74.6105 600.752 74.6105C603.127 74.6105 605.056 76.5401 605.056 78.9151C605.056 81.29 603.127 83.2197 600.752 83.2197C598.377 83.2197 596.447 81.29 596.447 78.9151Z" fill="#111621"/>
<path d="M596.447 198.182C596.447 195.807 598.377 193.878 600.752 193.878C603.127 193.878 605.056 195.807 605.056 198.182C605.056 200.557 603.127 202.487 600.752 202.487C598.377 202.487 596.447 200.557 596.447 198.182Z" fill="#111621"/>
<path d="M720.017 202.487C722.395 202.487 724.322 200.56 724.322 198.182C724.322 195.805 722.395 193.878 720.017 193.878C717.64 193.878 715.713 195.805 715.713 198.182C715.713 200.56 717.64 202.487 720.017 202.487Z" fill="#111621"/>
<path d="M834.982 78.9151C834.982 76.5401 836.912 74.6105 839.287 74.6105C841.662 74.6105 843.592 76.5401 843.592 78.9151C843.592 81.29 841.662 83.2197 839.287 83.2197C836.912 83.2197 834.982 81.29 834.982 78.9151Z" fill="#111621"/>
<path d="M720.017 83.2197C722.395 83.2197 724.322 81.2925 724.322 78.9151C724.322 76.5377 722.395 74.6105 720.017 74.6105C717.64 74.6105 715.713 76.5377 715.713 78.9151C715.713 81.2925 717.64 83.2197 720.017 83.2197Z" fill="#111621"/>
<path d="M720.017 202.487C722.395 202.487 724.322 200.56 724.322 198.182C724.322 195.805 722.395 193.878 720.017 193.878C717.64 193.878 715.713 195.805 715.713 198.182C715.713 200.56 717.64 202.487 720.017 202.487Z" fill="#111621"/>
<path d="M834.982 198.182C834.982 195.807 836.912 193.878 839.287 193.878C841.662 193.878 843.592 195.807 843.592 198.182C843.592 200.557 841.662 202.487 839.287 202.487C836.912 202.487 834.982 200.557 834.982 198.182Z" fill="#111621"/>
<path d="M958.589 83.2197C960.966 83.2197 962.893 81.2925 962.893 78.9151C962.893 76.5377 960.966 74.6105 958.589 74.6105C956.211 74.6105 954.284 76.5377 954.284 78.9151C954.284 81.2925 956.211 83.2197 958.589 83.2197Z" fill="#111621"/>
<path d="M834.982 78.9151C834.982 76.5401 836.912 74.6105 839.287 74.6105C841.662 74.6105 843.592 76.5401 843.592 78.9151C843.592 81.29 841.662 83.2197 839.287 83.2197C836.912 83.2197 834.982 81.29 834.982 78.9151Z" fill="#111621"/>
<path d="M834.982 198.182C834.982 195.807 836.912 193.878 839.287 193.878C841.662 193.878 843.592 195.807 843.592 198.182C843.592 200.557 841.662 202.487 839.287 202.487C836.912 202.487 834.982 200.557 834.982 198.182Z" fill="#111621"/>
<path d="M958.589 202.487C960.966 202.487 962.893 200.56 962.893 198.182C962.893 195.805 960.966 193.878 958.589 193.878C956.211 193.878 954.284 195.805 954.284 198.182C954.284 200.56 956.211 202.487 958.589 202.487Z" fill="#111621"/>
<path d="M1077.85 83.2197C1080.23 83.2197 1082.16 81.2924 1082.16 78.9151C1082.16 76.5377 1080.23 74.6105 1077.85 74.6105C1075.48 74.6105 1073.55 76.5377 1073.55 78.9151C1073.55 81.2924 1075.48 83.2197 1077.85 83.2197Z" fill="#111621"/>
<path d="M958.589 83.2197C960.966 83.2197 962.893 81.2925 962.893 78.9151C962.893 76.5377 960.966 74.6105 958.589 74.6105C956.211 74.6105 954.284 76.5377 954.284 78.9151C954.284 81.2925 956.211 83.2197 958.589 83.2197Z" fill="#111621"/>
<path d="M958.589 202.487C960.966 202.487 962.893 200.56 962.893 198.182C962.893 195.805 960.966 193.878 958.589 193.878C956.211 193.878 954.284 195.805 954.284 198.182C954.284 200.56 956.211 202.487 958.589 202.487Z" fill="#111621"/>
<path d="M1077.85 202.487C1080.23 202.487 1082.16 200.559 1082.16 198.182C1082.16 195.805 1080.23 193.878 1077.85 193.878C1075.48 193.878 1073.55 195.805 1073.55 198.182C1073.55 200.559 1075.48 202.487 1077.85 202.487Z" fill="#111621"/>
<path d="M1197.12 83.2197C1199.5 83.2197 1201.43 81.2924 1201.43 78.9151C1201.43 76.5377 1199.5 74.6105 1197.12 74.6105C1194.75 74.6105 1192.82 76.5377 1192.82 78.9151C1192.82 81.2924 1194.75 83.2197 1197.12 83.2197Z" fill="#111621"/>
<path d="M1077.85 83.2197C1080.23 83.2197 1082.16 81.2924 1082.16 78.9151C1082.16 76.5377 1080.23 74.6105 1077.85 74.6105C1075.48 74.6105 1073.55 76.5377 1073.55 78.9151C1073.55 81.2924 1075.48 83.2197 1077.85 83.2197Z" fill="#111621"/>
<path d="M1077.85 202.487C1080.23 202.487 1082.16 200.559 1082.16 198.182C1082.16 195.805 1080.23 193.878 1077.85 193.878C1075.48 193.878 1073.55 195.805 1073.55 198.182C1073.55 200.559 1075.48 202.487 1077.85 202.487Z" fill="#111621"/>
<path d="M1197.12 202.487C1199.5 202.487 1201.43 200.559 1201.43 198.182C1201.43 195.805 1199.5 193.878 1197.12 193.878C1194.75 193.878 1192.82 195.805 1192.82 198.182C1192.82 200.559 1194.75 202.487 1197.12 202.487Z" fill="#111621"/>
<path d="M1316.39 83.2197C1318.77 83.2197 1320.69 81.2924 1320.69 78.9151C1320.69 76.5377 1318.77 74.6105 1316.39 74.6105C1314.01 74.6105 1312.08 76.5377 1312.08 78.9151C1312.08 81.2924 1314.01 83.2197 1316.39 83.2197Z" fill="#111621"/>
<path d="M1197.12 83.2197C1199.5 83.2197 1201.43 81.2924 1201.43 78.9151C1201.43 76.5377 1199.5 74.6105 1197.12 74.6105C1194.75 74.6105 1192.82 76.5377 1192.82 78.9151C1192.82 81.2924 1194.75 83.2197 1197.12 83.2197Z" fill="#111621"/>
<path d="M1197.12 202.487C1199.5 202.487 1201.43 200.559 1201.43 198.182C1201.43 195.805 1199.5 193.878 1197.12 193.878C1194.75 193.878 1192.82 195.805 1192.82 198.182C1192.82 200.559 1194.75 202.487 1197.12 202.487Z" fill="#111621"/>
<path d="M1316.39 202.487C1318.77 202.487 1320.69 200.559 1320.69 198.182C1320.69 195.805 1318.77 193.878 1316.39 193.878C1314.01 193.878 1312.08 195.805 1312.08 198.182C1312.08 200.559 1314.01 202.487 1316.39 202.487Z" fill="#111621"/>
<path d="M1431.39 78.9151C1431.39 76.5401 1433.32 74.6105 1435.69 74.6105C1438.07 74.6105 1440 76.5401 1440 78.9151C1440 81.29 1438.07 83.2197 1435.69 83.2197C1433.32 83.2197 1431.39 81.29 1431.39 78.9151Z" fill="#111621"/>
<path d="M1316.39 83.2197C1318.77 83.2197 1320.69 81.2924 1320.69 78.9151C1320.69 76.5377 1318.77 74.6105 1316.39 74.6105C1314.01 74.6105 1312.08 76.5377 1312.08 78.9151C1312.08 81.2924 1314.01 83.2197 1316.39 83.2197Z" fill="#111621"/>
<path d="M1316.39 202.487C1318.77 202.487 1320.69 200.559 1320.69 198.182C1320.69 195.805 1318.77 193.878 1316.39 193.878C1314.01 193.878 1312.08 195.805 1312.08 198.182C1312.08 200.559 1314.01 202.487 1316.39 202.487Z" fill="#111621"/>
<path d="M1431.39 198.182C1431.39 195.807 1433.32 193.878 1435.69 193.878C1438.07 193.878 1440 195.807 1440 198.182C1440 200.557 1438.07 202.487 1435.69 202.487C1433.32 202.487 1431.39 200.557 1431.39 198.182Z" fill="#111621"/>
<path d="M123.646 202.487C126.023 202.487 127.95 200.56 127.95 198.182C127.95 195.805 126.023 193.878 123.646 193.878C121.268 193.878 119.341 195.805 119.341 198.182C119.341 200.56 121.268 202.487 123.646 202.487Z" fill="#111621"/>
<path d="M0.0390625 198.182C0.0390625 195.807 1.96871 193.878 4.34366 193.878C6.71861 193.878 8.64825 195.807 8.64825 198.182C8.64825 200.557 6.71861 202.487 4.34366 202.487C1.96871 202.487 0.0390625 200.557 0.0390625 198.182Z" fill="#111621"/>
<path d="M0.0390625 317.449C0.0390625 315.074 1.96871 313.144 4.34366 313.144C6.71861 313.144 8.64825 315.074 8.64825 317.449C8.64825 319.824 6.71861 321.754 4.34366 321.754C1.96871 321.754 0.0390625 319.824 0.0390625 317.449Z" fill="#111621"/>
<path d="M123.646 321.754C126.023 321.754 127.95 319.826 127.95 317.449C127.95 315.072 126.023 313.144 123.646 313.144C121.268 313.144 119.341 315.072 119.341 317.449C119.341 319.826 121.268 321.754 123.646 321.754Z" fill="#111621"/>
<path d="M242.911 202.487C245.289 202.487 247.216 200.56 247.216 198.182C247.216 195.805 245.289 193.878 242.911 193.878C240.534 193.878 238.607 195.805 238.607 198.182C238.607 200.56 240.534 202.487 242.911 202.487Z" fill="#111621"/>
<path d="M123.646 202.487C126.023 202.487 127.95 200.56 127.95 198.182C127.95 195.805 126.023 193.878 123.646 193.878C121.268 193.878 119.341 195.805 119.341 198.182C119.341 200.56 121.268 202.487 123.646 202.487Z" fill="#111621"/>
<path d="M123.646 321.754C126.023 321.754 127.95 319.826 127.95 317.449C127.95 315.072 126.023 313.144 123.646 313.144C121.268 313.144 119.341 315.072 119.341 317.449C119.341 319.826 121.268 321.754 123.646 321.754Z" fill="#111621"/>
<path d="M242.911 321.754C245.289 321.754 247.216 319.826 247.216 317.449C247.216 315.072 245.289 313.144 242.911 313.144C240.534 313.144 238.607 315.072 238.607 317.449C238.607 319.826 240.534 321.754 242.911 321.754Z" fill="#111621"/>
<path d="M362.181 202.487C364.558 202.487 366.485 200.56 366.485 198.182C366.485 195.805 364.558 193.878 362.181 193.878C359.803 193.878 357.876 195.805 357.876 198.182C357.876 200.56 359.803 202.487 362.181 202.487Z" fill="#111621"/>
<path d="M242.911 202.487C245.289 202.487 247.216 200.56 247.216 198.182C247.216 195.805 245.289 193.878 242.911 193.878C240.534 193.878 238.607 195.805 238.607 198.182C238.607 200.56 240.534 202.487 242.911 202.487Z" fill="#111621"/>
<path d="M242.911 321.754C245.289 321.754 247.216 319.826 247.216 317.449C247.216 315.072 245.289 313.144 242.911 313.144C240.534 313.144 238.607 315.072 238.607 317.449C238.607 319.826 240.534 321.754 242.911 321.754Z" fill="#111621"/>
<path d="M362.181 321.754C364.558 321.754 366.485 319.826 366.485 317.449C366.485 315.072 364.558 313.144 362.181 313.144C359.803 313.144 357.876 315.072 357.876 317.449C357.876 319.826 359.803 321.754 362.181 321.754Z" fill="#111621"/>
<path d="M481.446 202.487C483.824 202.487 485.751 200.56 485.751 198.182C485.751 195.805 483.824 193.878 481.446 193.878C479.069 193.878 477.142 195.805 477.142 198.182C477.142 200.56 479.069 202.487 481.446 202.487Z" fill="#111621"/>
<path d="M362.181 202.487C364.558 202.487 366.485 200.56 366.485 198.182C366.485 195.805 364.558 193.878 362.181 193.878C359.803 193.878 357.876 195.805 357.876 198.182C357.876 200.56 359.803 202.487 362.181 202.487Z" fill="#111621"/>
<path d="M362.181 321.754C364.558 321.754 366.485 319.826 366.485 317.449C366.485 315.072 364.558 313.144 362.181 313.144C359.803 313.144 357.876 315.072 357.876 317.449C357.876 319.826 359.803 321.754 362.181 321.754Z" fill="#111621"/>
<path d="M481.446 321.754C483.824 321.754 485.751 319.826 485.751 317.449C485.751 315.072 483.824 313.144 481.446 313.144C479.069 313.144 477.142 315.072 477.142 317.449C477.142 319.826 479.069 321.754 481.446 321.754Z" fill="#111621"/>
<path d="M596.447 198.182C596.447 195.807 598.377 193.878 600.752 193.878C603.127 193.878 605.056 195.807 605.056 198.182C605.056 200.557 603.127 202.487 600.752 202.487C598.377 202.487 596.447 200.557 596.447 198.182Z" fill="#111621"/>
<path d="M481.446 202.487C483.824 202.487 485.751 200.56 485.751 198.182C485.751 195.805 483.824 193.878 481.446 193.878C479.069 193.878 477.142 195.805 477.142 198.182C477.142 200.56 479.069 202.487 481.446 202.487Z" fill="#111621"/>
<path d="M481.446 321.754C483.824 321.754 485.751 319.826 485.751 317.449C485.751 315.072 483.824 313.144 481.446 313.144C479.069 313.144 477.142 315.072 477.142 317.449C477.142 319.826 479.069 321.754 481.446 321.754Z" fill="#111621"/>
<path d="M596.447 317.449C596.447 315.074 598.377 313.144 600.752 313.144C603.127 313.144 605.056 315.074 605.056 317.449C605.056 319.824 603.127 321.754 600.752 321.754C598.377 321.754 596.447 319.824 596.447 317.449Z" fill="#111621"/>
<path d="M720.017 202.487C722.395 202.487 724.322 200.56 724.322 198.182C724.322 195.805 722.395 193.878 720.017 193.878C717.64 193.878 715.713 195.805 715.713 198.182C715.713 200.56 717.64 202.487 720.017 202.487Z" fill="#111621"/>
<path d="M596.447 198.182C596.447 195.807 598.377 193.878 600.752 193.878C603.127 193.878 605.056 195.807 605.056 198.182C605.056 200.557 603.127 202.487 600.752 202.487C598.377 202.487 596.447 200.557 596.447 198.182Z" fill="#111621"/>
<path d="M596.447 317.449C596.447 315.074 598.377 313.144 600.752 313.144C603.127 313.144 605.056 315.074 605.056 317.449C605.056 319.824 603.127 321.754 600.752 321.754C598.377 321.754 596.447 319.824 596.447 317.449Z" fill="#111621"/>
<path d="M720.017 321.754C722.395 321.754 724.322 319.826 724.322 317.449C724.322 315.072 722.395 313.144 720.017 313.144C717.64 313.144 715.713 315.072 715.713 317.449C715.713 319.826 717.64 321.754 720.017 321.754Z" fill="#111621"/>
<path d="M834.982 198.182C834.982 195.807 836.912 193.878 839.287 193.878C841.662 193.878 843.592 195.807 843.592 198.182C843.592 200.557 841.662 202.487 839.287 202.487C836.912 202.487 834.982 200.557 834.982 198.182Z" fill="#111621"/>
<path d="M720.017 202.487C722.395 202.487 724.322 200.56 724.322 198.182C724.322 195.805 722.395 193.878 720.017 193.878C717.64 193.878 715.713 195.805 715.713 198.182C715.713 200.56 717.64 202.487 720.017 202.487Z" fill="#111621"/>
<path d="M720.017 321.754C722.395 321.754 724.322 319.826 724.322 317.449C724.322 315.072 722.395 313.144 720.017 313.144C717.64 313.144 715.713 315.072 715.713 317.449C715.713 319.826 717.64 321.754 720.017 321.754Z" fill="#111621"/>
<path d="M834.982 317.449C834.982 315.074 836.912 313.144 839.287 313.144C841.662 313.144 843.592 315.074 843.592 317.449C843.592 319.824 841.662 321.754 839.287 321.754C836.912 321.754 834.982 319.824 834.982 317.449Z" fill="#111621"/>
<path d="M958.589 202.487C960.966 202.487 962.893 200.56 962.893 198.182C962.893 195.805 960.966 193.878 958.589 193.878C956.211 193.878 954.284 195.805 954.284 198.182C954.284 200.56 956.211 202.487 958.589 202.487Z" fill="#111621"/>
<path d="M834.982 198.182C834.982 195.807 836.912 193.878 839.287 193.878C841.662 193.878 843.592 195.807 843.592 198.182C843.592 200.557 841.662 202.487 839.287 202.487C836.912 202.487 834.982 200.557 834.982 198.182Z" fill="#111621"/>
<path d="M834.982 317.449C834.982 315.074 836.912 313.144 839.287 313.144C841.662 313.144 843.592 315.074 843.592 317.449C843.592 319.824 841.662 321.754 839.287 321.754C836.912 321.754 834.982 319.824 834.982 317.449Z" fill="#111621"/>
<path d="M958.589 321.754C960.966 321.754 962.893 319.826 962.893 317.449C962.893 315.072 960.966 313.144 958.589 313.144C956.211 313.144 954.284 315.072 954.284 317.449C954.284 319.826 956.211 321.754 958.589 321.754Z" fill="#111621"/>
<path d="M1077.85 202.487C1080.23 202.487 1082.16 200.559 1082.16 198.182C1082.16 195.805 1080.23 193.878 1077.85 193.878C1075.48 193.878 1073.55 195.805 1073.55 198.182C1073.55 200.559 1075.48 202.487 1077.85 202.487Z" fill="#111621"/>
<path d="M958.589 202.487C960.966 202.487 962.893 200.56 962.893 198.182C962.893 195.805 960.966 193.878 958.589 193.878C956.211 193.878 954.284 195.805 954.284 198.182C954.284 200.56 956.211 202.487 958.589 202.487Z" fill="#111621"/>
<path d="M958.589 321.754C960.966 321.754 962.893 319.826 962.893 317.449C962.893 315.072 960.966 313.144 958.589 313.144C956.211 313.144 954.284 315.072 954.284 317.449C954.284 319.826 956.211 321.754 958.589 321.754Z" fill="#111621"/>
<path d="M1077.85 321.753C1080.23 321.753 1082.16 319.826 1082.16 317.449C1082.16 315.072 1080.23 313.144 1077.85 313.144C1075.48 313.144 1073.55 315.072 1073.55 317.449C1073.55 319.826 1075.48 321.753 1077.85 321.753Z" fill="#111621"/>
<path d="M1197.12 202.487C1199.5 202.487 1201.43 200.559 1201.43 198.182C1201.43 195.805 1199.5 193.878 1197.12 193.878C1194.75 193.878 1192.82 195.805 1192.82 198.182C1192.82 200.559 1194.75 202.487 1197.12 202.487Z" fill="#111621"/>
<path d="M1077.85 202.487C1080.23 202.487 1082.16 200.559 1082.16 198.182C1082.16 195.805 1080.23 193.878 1077.85 193.878C1075.48 193.878 1073.55 195.805 1073.55 198.182C1073.55 200.559 1075.48 202.487 1077.85 202.487Z" fill="#111621"/>
<path d="M1077.85 321.753C1080.23 321.753 1082.16 319.826 1082.16 317.449C1082.16 315.072 1080.23 313.144 1077.85 313.144C1075.48 313.144 1073.55 315.072 1073.55 317.449C1073.55 319.826 1075.48 321.753 1077.85 321.753Z" fill="#111621"/>
<path d="M1197.12 321.753C1199.5 321.753 1201.43 319.826 1201.43 317.449C1201.43 315.072 1199.5 313.144 1197.12 313.144C1194.75 313.144 1192.82 315.072 1192.82 317.449C1192.82 319.826 1194.75 321.753 1197.12 321.753Z" fill="#111621"/>
<path d="M1316.39 202.487C1318.77 202.487 1320.69 200.559 1320.69 198.182C1320.69 195.805 1318.77 193.878 1316.39 193.878C1314.01 193.878 1312.08 195.805 1312.08 198.182C1312.08 200.559 1314.01 202.487 1316.39 202.487Z" fill="#111621"/>
<path d="M1197.12 202.487C1199.5 202.487 1201.43 200.559 1201.43 198.182C1201.43 195.805 1199.5 193.878 1197.12 193.878C1194.75 193.878 1192.82 195.805 1192.82 198.182C1192.82 200.559 1194.75 202.487 1197.12 202.487Z" fill="#111621"/>
<path d="M1197.12 321.753C1199.5 321.753 1201.43 319.826 1201.43 317.449C1201.43 315.072 1199.5 313.144 1197.12 313.144C1194.75 313.144 1192.82 315.072 1192.82 317.449C1192.82 319.826 1194.75 321.753 1197.12 321.753Z" fill="#111621"/>
<path d="M1316.39 321.753C1318.77 321.753 1320.69 319.826 1320.69 317.449C1320.69 315.072 1318.77 313.144 1316.39 313.144C1314.01 313.144 1312.08 315.072 1312.08 317.449C1312.08 319.826 1314.01 321.753 1316.39 321.753Z" fill="#111621"/>
<path d="M1431.39 198.182C1431.39 195.807 1433.32 193.878 1435.69 193.878C1438.07 193.878 1440 195.807 1440 198.182C1440 200.557 1438.07 202.487 1435.69 202.487C1433.32 202.487 1431.39 200.557 1431.39 198.182Z" fill="#111621"/>
<path d="M1316.39 202.487C1318.77 202.487 1320.69 200.559 1320.69 198.182C1320.69 195.805 1318.77 193.878 1316.39 193.878C1314.01 193.878 1312.08 195.805 1312.08 198.182C1312.08 200.559 1314.01 202.487 1316.39 202.487Z" fill="#111621"/>
<path d="M1316.39 321.753C1318.77 321.753 1320.69 319.826 1320.69 317.449C1320.69 315.072 1318.77 313.144 1316.39 313.144C1314.01 313.144 1312.08 315.072 1312.08 317.449C1312.08 319.826 1314.01 321.753 1316.39 321.753Z" fill="#111621"/>
<path d="M1431.39 317.449C1431.39 315.074 1433.32 313.144 1435.69 313.144C1438.07 313.144 1440 315.074 1440 317.449C1440 319.824 1438.07 321.753 1435.69 321.753C1433.32 321.753 1431.39 319.824 1431.39 317.449Z" fill="#111621"/>
<path d="M123.646 321.754C126.023 321.754 127.95 319.826 127.95 317.449C127.95 315.072 126.023 313.144 123.646 313.144C121.268 313.144 119.341 315.072 119.341 317.449C119.341 319.826 121.268 321.754 123.646 321.754Z" fill="#111621"/>
<path d="M0.0390625 317.449C0.0390625 315.074 1.96871 313.144 4.34366 313.144C6.71861 313.144 8.64825 315.074 8.64825 317.449C8.64825 319.824 6.71861 321.754 4.34366 321.754C1.96871 321.754 0.0390625 319.824 0.0390625 317.449Z" fill="#111621"/>
<path d="M0.0390625 436.753C0.0390625 434.378 1.96871 432.449 4.34366 432.449C6.71861 432.449 8.64825 434.378 8.64825 436.753C8.64825 439.128 6.71861 441.058 4.34366 441.058C1.96871 441.058 0.0390625 439.128 0.0390625 436.753Z" fill="#111621"/>
<path d="M119.341 436.753C119.341 434.378 121.271 432.449 123.646 432.449C126.021 432.449 127.95 434.378 127.95 436.753C127.95 439.128 126.021 441.058 123.646 441.058C121.271 441.058 119.341 439.128 119.341 436.753Z" fill="#111621"/>
<path d="M242.911 321.754C245.289 321.754 247.216 319.826 247.216 317.449C247.216 315.072 245.289 313.144 242.911 313.144C240.534 313.144 238.607 315.072 238.607 317.449C238.607 319.826 240.534 321.754 242.911 321.754Z" fill="#111621"/>
<path d="M123.646 321.754C126.023 321.754 127.95 319.826 127.95 317.449C127.95 315.072 126.023 313.144 123.646 313.144C121.268 313.144 119.341 315.072 119.341 317.449C119.341 319.826 121.268 321.754 123.646 321.754Z" fill="#111621"/>
<path d="M119.341 436.753C119.341 434.378 121.271 432.449 123.646 432.449C126.021 432.449 127.95 434.378 127.95 436.753C127.95 439.128 126.021 441.058 123.646 441.058C121.271 441.058 119.341 439.128 119.341 436.753Z" fill="#111621"/>
<path d="M238.607 436.753C238.607 434.378 240.536 432.449 242.911 432.449C245.286 432.449 247.216 434.378 247.216 436.753C247.216 439.128 245.286 441.058 242.911 441.058C240.536 441.058 238.607 439.128 238.607 436.753Z" fill="#111621"/>
<path d="M362.181 321.754C364.558 321.754 366.485 319.826 366.485 317.449C366.485 315.072 364.558 313.144 362.181 313.144C359.803 313.144 357.876 315.072 357.876 317.449C357.876 319.826 359.803 321.754 362.181 321.754Z" fill="#111621"/>
<path d="M242.911 321.754C245.289 321.754 247.216 319.826 247.216 317.449C247.216 315.072 245.289 313.144 242.911 313.144C240.534 313.144 238.607 315.072 238.607 317.449C238.607 319.826 240.534 321.754 242.911 321.754Z" fill="#111621"/>
<path d="M238.607 436.753C238.607 434.378 240.536 432.449 242.911 432.449C245.286 432.449 247.216 434.378 247.216 436.753C247.216 439.128 245.286 441.058 242.911 441.058C240.536 441.058 238.607 439.128 238.607 436.753Z" fill="#111621"/>
<path d="M357.876 436.753C357.876 434.378 359.806 432.449 362.181 432.449C364.556 432.449 366.485 434.378 366.485 436.753C366.485 439.128 364.556 441.058 362.181 441.058C359.806 441.058 357.876 439.128 357.876 436.753Z" fill="#111621"/>
<path d="M481.446 321.754C483.824 321.754 485.751 319.826 485.751 317.449C485.751 315.072 483.824 313.144 481.446 313.144C479.069 313.144 477.142 315.072 477.142 317.449C477.142 319.826 479.069 321.754 481.446 321.754Z" fill="#111621"/>
<path d="M362.181 321.754C364.558 321.754 366.485 319.826 366.485 317.449C366.485 315.072 364.558 313.144 362.181 313.144C359.803 313.144 357.876 315.072 357.876 317.449C357.876 319.826 359.803 321.754 362.181 321.754Z" fill="#111621"/>
<path d="M357.876 436.753C357.876 434.378 359.806 432.449 362.181 432.449C364.556 432.449 366.485 434.378 366.485 436.753C366.485 439.128 364.556 441.058 362.181 441.058C359.806 441.058 357.876 439.128 357.876 436.753Z" fill="#111621"/>
<path d="M477.142 436.753C477.142 434.378 479.071 432.449 481.446 432.449C483.821 432.449 485.751 434.378 485.751 436.753C485.751 439.128 483.821 441.058 481.446 441.058C479.071 441.058 477.142 439.128 477.142 436.753Z" fill="#111621"/>
<path d="M596.447 317.449C596.447 315.074 598.377 313.144 600.752 313.144C603.127 313.144 605.056 315.074 605.056 317.449C605.056 319.824 603.127 321.754 600.752 321.754C598.377 321.754 596.447 319.824 596.447 317.449Z" fill="#111621"/>
<path d="M481.446 321.754C483.824 321.754 485.751 319.826 485.751 317.449C485.751 315.072 483.824 313.144 481.446 313.144C479.069 313.144 477.142 315.072 477.142 317.449C477.142 319.826 479.069 321.754 481.446 321.754Z" fill="#111621"/>
<path d="M477.142 436.753C477.142 434.378 479.071 432.449 481.446 432.449C483.821 432.449 485.751 434.378 485.751 436.753C485.751 439.128 483.821 441.058 481.446 441.058C479.071 441.058 477.142 439.128 477.142 436.753Z" fill="#111621"/>
<path d="M596.447 436.753C596.447 434.378 598.377 432.449 600.752 432.449C603.127 432.449 605.056 434.378 605.056 436.753C605.056 439.128 603.127 441.058 600.752 441.058C598.377 441.058 596.447 439.128 596.447 436.753Z" fill="#111621"/>
<path d="M720.017 321.754C722.395 321.754 724.322 319.826 724.322 317.449C724.322 315.072 722.395 313.144 720.017 313.144C717.64 313.144 715.713 315.072 715.713 317.449C715.713 319.826 717.64 321.754 720.017 321.754Z" fill="#111621"/>
<path d="M596.447 317.449C596.447 315.074 598.377 313.144 600.752 313.144C603.127 313.144 605.056 315.074 605.056 317.449C605.056 319.824 603.127 321.754 600.752 321.754C598.377 321.754 596.447 319.824 596.447 317.449Z" fill="#111621"/>
<path d="M596.447 436.753C596.447 434.378 598.377 432.449 600.752 432.449C603.127 432.449 605.056 434.378 605.056 436.753C605.056 439.128 603.127 441.058 600.752 441.058C598.377 441.058 596.447 439.128 596.447 436.753Z" fill="#111621"/>
<path d="M715.713 436.753C715.713 434.378 717.643 432.449 720.017 432.449C722.392 432.449 724.322 434.378 724.322 436.753C724.322 439.128 722.392 441.058 720.017 441.058C717.643 441.058 715.713 439.128 715.713 436.753Z" fill="#111621"/>
<path d="M834.982 317.449C834.982 315.074 836.912 313.144 839.287 313.144C841.662 313.144 843.592 315.074 843.592 317.449C843.592 319.824 841.662 321.754 839.287 321.754C836.912 321.754 834.982 319.824 834.982 317.449Z" fill="#111621"/>
<path d="M720.017 321.754C722.395 321.754 724.322 319.826 724.322 317.449C724.322 315.072 722.395 313.144 720.017 313.144C717.64 313.144 715.713 315.072 715.713 317.449C715.713 319.826 717.64 321.754 720.017 321.754Z" fill="#111621"/>
<path d="M715.713 436.753C715.713 434.378 717.643 432.449 720.017 432.449C722.392 432.449 724.322 434.378 724.322 436.753C724.322 439.128 722.392 441.058 720.017 441.058C717.643 441.058 715.713 439.128 715.713 436.753Z" fill="#111621"/>
<path d="M834.982 436.753C834.982 434.378 836.912 432.449 839.287 432.449C841.662 432.449 843.592 434.378 843.592 436.753C843.592 439.128 841.662 441.058 839.287 441.058C836.912 441.058 834.982 439.128 834.982 436.753Z" fill="#111621"/>
<path d="M958.589 321.754C960.966 321.754 962.893 319.826 962.893 317.449C962.893 315.072 960.966 313.144 958.589 313.144C956.211 313.144 954.284 315.072 954.284 317.449C954.284 319.826 956.211 321.754 958.589 321.754Z" fill="#111621"/>
<path d="M834.982 317.449C834.982 315.074 836.912 313.144 839.287 313.144C841.662 313.144 843.592 315.074 843.592 317.449C843.592 319.824 841.662 321.754 839.287 321.754C836.912 321.754 834.982 319.824 834.982 317.449Z" fill="#111621"/>
<path d="M834.982 436.753C834.982 434.378 836.912 432.449 839.287 432.449C841.662 432.449 843.592 434.378 843.592 436.753C843.592 439.128 841.662 441.058 839.287 441.058C836.912 441.058 834.982 439.128 834.982 436.753Z" fill="#111621"/>
<path d="M954.284 436.753C954.284 434.378 956.214 432.449 958.589 432.449C960.964 432.449 962.893 434.378 962.893 436.753C962.893 439.128 960.964 441.058 958.589 441.058C956.214 441.058 954.284 439.128 954.284 436.753Z" fill="#111621"/>
<path d="M1077.85 321.753C1080.23 321.753 1082.16 319.826 1082.16 317.449C1082.16 315.072 1080.23 313.144 1077.85 313.144C1075.48 313.144 1073.55 315.072 1073.55 317.449C1073.55 319.826 1075.48 321.753 1077.85 321.753Z" fill="#111621"/>
<path d="M958.589 321.754C960.966 321.754 962.893 319.826 962.893 317.449C962.893 315.072 960.966 313.144 958.589 313.144C956.211 313.144 954.284 315.072 954.284 317.449C954.284 319.826 956.211 321.754 958.589 321.754Z" fill="#111621"/>
<path d="M954.284 436.753C954.284 434.378 956.214 432.449 958.589 432.449C960.964 432.449 962.893 434.378 962.893 436.753C962.893 439.128 960.964 441.058 958.589 441.058C956.214 441.058 954.284 439.128 954.284 436.753Z" fill="#111621"/>
<path d="M1073.55 436.753C1073.55 434.378 1075.48 432.449 1077.85 432.449C1080.23 432.449 1082.16 434.378 1082.16 436.753C1082.16 439.128 1080.23 441.058 1077.85 441.058C1075.48 441.058 1073.55 439.128 1073.55 436.753Z" fill="#111621"/>
<path d="M1197.12 321.753C1199.5 321.753 1201.43 319.826 1201.43 317.449C1201.43 315.072 1199.5 313.144 1197.12 313.144C1194.75 313.144 1192.82 315.072 1192.82 317.449C1192.82 319.826 1194.75 321.753 1197.12 321.753Z" fill="#111621"/>
<path d="M1077.85 321.753C1080.23 321.753 1082.16 319.826 1082.16 317.449C1082.16 315.072 1080.23 313.144 1077.85 313.144C1075.48 313.144 1073.55 315.072 1073.55 317.449C1073.55 319.826 1075.48 321.753 1077.85 321.753Z" fill="#111621"/>
<path d="M1073.55 436.753C1073.55 434.378 1075.48 432.449 1077.85 432.449C1080.23 432.449 1082.16 434.378 1082.16 436.753C1082.16 439.128 1080.23 441.058 1077.85 441.058C1075.48 441.058 1073.55 439.128 1073.55 436.753Z" fill="#111621"/>
<path d="M1192.82 436.753C1192.82 434.378 1194.75 432.449 1197.12 432.449C1199.5 432.449 1201.43 434.378 1201.43 436.753C1201.43 439.128 1199.5 441.058 1197.12 441.058C1194.75 441.058 1192.82 439.128 1192.82 436.753Z" fill="#111621"/>
<path d="M1316.39 321.753C1318.77 321.753 1320.69 319.826 1320.69 317.449C1320.69 315.072 1318.77 313.144 1316.39 313.144C1314.01 313.144 1312.08 315.072 1312.08 317.449C1312.08 319.826 1314.01 321.753 1316.39 321.753Z" fill="#111621"/>
<path d="M1197.12 321.753C1199.5 321.753 1201.43 319.826 1201.43 317.449C1201.43 315.072 1199.5 313.144 1197.12 313.144C1194.75 313.144 1192.82 315.072 1192.82 317.449C1192.82 319.826 1194.75 321.753 1197.12 321.753Z" fill="#111621"/>
<path d="M1192.82 436.753C1192.82 434.378 1194.75 432.449 1197.12 432.449C1199.5 432.449 1201.43 434.378 1201.43 436.753C1201.43 439.128 1199.5 441.058 1197.12 441.058C1194.75 441.058 1192.82 439.128 1192.82 436.753Z" fill="#111621"/>
<path d="M1312.08 436.753C1312.08 434.378 1314.01 432.449 1316.39 432.449C1318.76 432.449 1320.69 434.378 1320.69 436.753C1320.69 439.128 1318.76 441.058 1316.39 441.058C1314.01 441.058 1312.08 439.128 1312.08 436.753Z" fill="#111621"/>
<path d="M1431.39 317.449C1431.39 315.074 1433.32 313.144 1435.69 313.144C1438.07 313.144 1440 315.074 1440 317.449C1440 319.824 1438.07 321.753 1435.69 321.753C1433.32 321.753 1431.39 319.824 1431.39 317.449Z" fill="#111621"/>
<path d="M1316.39 321.753C1318.77 321.753 1320.69 319.826 1320.69 317.449C1320.69 315.072 1318.77 313.144 1316.39 313.144C1314.01 313.144 1312.08 315.072 1312.08 317.449C1312.08 319.826 1314.01 321.753 1316.39 321.753Z" fill="#111621"/>
<path d="M1312.08 436.753C1312.08 434.378 1314.01 432.449 1316.39 432.449C1318.76 432.449 1320.69 434.378 1320.69 436.753C1320.69 439.128 1318.76 441.058 1316.39 441.058C1314.01 441.058 1312.08 439.128 1312.08 436.753Z" fill="#111621"/>
<path d="M1431.39 436.753C1431.39 434.378 1433.32 432.449 1435.69 432.449C1438.07 432.449 1440 434.378 1440 436.753C1440 439.128 1438.07 441.058 1435.69 441.058C1433.32 441.058 1431.39 439.128 1431.39 436.753Z" fill="#111621"/>
<path d="M119.341 436.753C119.341 434.378 121.271 432.449 123.646 432.449C126.021 432.449 127.95 434.378 127.95 436.753C127.95 439.128 126.021 441.058 123.646 441.058C121.271 441.058 119.341 439.128 119.341 436.753Z" fill="#111621"/>
<path d="M0.0390625 436.753C0.0390625 434.378 1.96871 432.449 4.34366 432.449C6.71861 432.449 8.64825 434.378 8.64825 436.753C8.64825 439.128 6.71861 441.058 4.34366 441.058C1.96871 441.058 0.0390625 439.128 0.0390625 436.753Z" fill="#111621"/>
<path d="M0.0390625 556.02C0.0390625 553.645 1.96871 551.715 4.34366 551.715C6.71861 551.715 8.64825 553.645 8.64825 556.02C8.64825 558.395 6.71861 560.325 4.34366 560.325C1.96871 560.325 0.0390625 558.395 0.0390625 556.02Z" fill="#111621"/>
<path d="M123.646 560.325C126.023 560.325 127.95 558.397 127.95 556.02C127.95 553.643 126.023 551.715 123.646 551.715C121.268 551.715 119.341 553.643 119.341 556.02C119.341 558.397 121.268 560.325 123.646 560.325Z" fill="#111621"/>
<path d="M238.607 436.753C238.607 434.378 240.536 432.449 242.911 432.449C245.286 432.449 247.216 434.378 247.216 436.753C247.216 439.128 245.286 441.058 242.911 441.058C240.536 441.058 238.607 439.128 238.607 436.753Z" fill="#111621"/>
<path d="M119.341 436.753C119.341 434.378 121.271 432.449 123.646 432.449C126.021 432.449 127.95 434.378 127.95 436.753C127.95 439.128 126.021 441.058 123.646 441.058C121.271 441.058 119.341 439.128 119.341 436.753Z" fill="#111621"/>
<path d="M123.646 560.325C126.023 560.325 127.95 558.397 127.95 556.02C127.95 553.643 126.023 551.715 123.646 551.715C121.268 551.715 119.341 553.643 119.341 556.02C119.341 558.397 121.268 560.325 123.646 560.325Z" fill="#111621"/>
<path d="M242.911 560.325C245.289 560.325 247.216 558.397 247.216 556.02C247.216 553.643 245.289 551.715 242.911 551.715C240.534 551.715 238.607 553.643 238.607 556.02C238.607 558.397 240.534 560.325 242.911 560.325Z" fill="#111621"/>
<path d="M357.876 436.753C357.876 434.378 359.806 432.449 362.181 432.449C364.556 432.449 366.485 434.378 366.485 436.753C366.485 439.128 364.556 441.058 362.181 441.058C359.806 441.058 357.876 439.128 357.876 436.753Z" fill="#111621"/>
<path d="M238.607 436.753C238.607 434.378 240.536 432.449 242.911 432.449C245.286 432.449 247.216 434.378 247.216 436.753C247.216 439.128 245.286 441.058 242.911 441.058C240.536 441.058 238.607 439.128 238.607 436.753Z" fill="#111621"/>
<path d="M242.911 560.325C245.289 560.325 247.216 558.397 247.216 556.02C247.216 553.643 245.289 551.715 242.911 551.715C240.534 551.715 238.607 553.643 238.607 556.02C238.607 558.397 240.534 560.325 242.911 560.325Z" fill="#111621"/>
<path d="M362.181 560.325C364.558 560.325 366.485 558.397 366.485 556.02C366.485 553.643 364.558 551.715 362.181 551.715C359.803 551.715 357.876 553.643 357.876 556.02C357.876 558.397 359.803 560.325 362.181 560.325Z" fill="#111621"/>
<path d="M477.142 436.753C477.142 434.378 479.071 432.449 481.446 432.449C483.821 432.449 485.751 434.378 485.751 436.753C485.751 439.128 483.821 441.058 481.446 441.058C479.071 441.058 477.142 439.128 477.142 436.753Z" fill="#111621"/>
<path d="M357.876 436.753C357.876 434.378 359.806 432.449 362.181 432.449C364.556 432.449 366.485 434.378 366.485 436.753C366.485 439.128 364.556 441.058 362.181 441.058C359.806 441.058 357.876 439.128 357.876 436.753Z" fill="#111621"/>
<path d="M362.181 560.325C364.558 560.325 366.485 558.397 366.485 556.02C366.485 553.643 364.558 551.715 362.181 551.715C359.803 551.715 357.876 553.643 357.876 556.02C357.876 558.397 359.803 560.325 362.181 560.325Z" fill="#111621"/>
<path d="M481.446 560.325C483.824 560.325 485.751 558.397 485.751 556.02C485.751 553.643 483.824 551.715 481.446 551.715C479.069 551.715 477.142 553.643 477.142 556.02C477.142 558.397 479.069 560.325 481.446 560.325Z" fill="#111621"/>
<path d="M596.447 436.753C596.447 434.378 598.377 432.449 600.752 432.449C603.127 432.449 605.056 434.378 605.056 436.753C605.056 439.128 603.127 441.058 600.752 441.058C598.377 441.058 596.447 439.128 596.447 436.753Z" fill="#111621"/>
<path d="M477.142 436.753C477.142 434.378 479.071 432.449 481.446 432.449C483.821 432.449 485.751 434.378 485.751 436.753C485.751 439.128 483.821 441.058 481.446 441.058C479.071 441.058 477.142 439.128 477.142 436.753Z" fill="#111621"/>
<path d="M481.446 560.325C483.824 560.325 485.751 558.397 485.751 556.02C485.751 553.643 483.824 551.715 481.446 551.715C479.069 551.715 477.142 553.643 477.142 556.02C477.142 558.397 479.069 560.325 481.446 560.325Z" fill="#111621"/>
<path d="M596.447 556.02C596.447 553.645 598.377 551.715 600.752 551.715C603.127 551.715 605.056 553.645 605.056 556.02C605.056 558.395 603.127 560.325 600.752 560.325C598.377 560.325 596.447 558.395 596.447 556.02Z" fill="#111621"/>
<path d="M715.713 436.753C715.713 434.378 717.643 432.449 720.017 432.449C722.392 432.449 724.322 434.378 724.322 436.753C724.322 439.128 722.392 441.058 720.017 441.058C717.643 441.058 715.713 439.128 715.713 436.753Z" fill="#111621"/>
<path d="M596.447 436.753C596.447 434.378 598.377 432.449 600.752 432.449C603.127 432.449 605.056 434.378 605.056 436.753C605.056 439.128 603.127 441.058 600.752 441.058C598.377 441.058 596.447 439.128 596.447 436.753Z" fill="#111621"/>
<path d="M596.447 556.02C596.447 553.645 598.377 551.715 600.752 551.715C603.127 551.715 605.056 553.645 605.056 556.02C605.056 558.395 603.127 560.325 600.752 560.325C598.377 560.325 596.447 558.395 596.447 556.02Z" fill="#111621"/>
<path d="M720.017 560.325C722.395 560.325 724.322 558.397 724.322 556.02C724.322 553.643 722.395 551.715 720.017 551.715C717.64 551.715 715.713 553.643 715.713 556.02C715.713 558.397 717.64 560.325 720.017 560.325Z" fill="#111621"/>
<path d="M834.982 436.753C834.982 434.378 836.912 432.449 839.287 432.449C841.662 432.449 843.592 434.378 843.592 436.753C843.592 439.128 841.662 441.058 839.287 441.058C836.912 441.058 834.982 439.128 834.982 436.753Z" fill="#111621"/>
<path d="M715.713 436.753C715.713 434.378 717.643 432.449 720.017 432.449C722.392 432.449 724.322 434.378 724.322 436.753C724.322 439.128 722.392 441.058 720.017 441.058C717.643 441.058 715.713 439.128 715.713 436.753Z" fill="#111621"/>
<path d="M720.017 560.325C722.395 560.325 724.322 558.397 724.322 556.02C724.322 553.643 722.395 551.715 720.017 551.715C717.64 551.715 715.713 553.643 715.713 556.02C715.713 558.397 717.64 560.325 720.017 560.325Z" fill="#111621"/>
<path d="M834.982 556.02C834.982 553.645 836.912 551.715 839.287 551.715C841.662 551.715 843.592 553.645 843.592 556.02C843.592 558.395 841.662 560.325 839.287 560.325C836.912 560.325 834.982 558.395 834.982 556.02Z" fill="#111621"/>
<path d="M954.284 436.753C954.284 434.378 956.214 432.449 958.589 432.449C960.964 432.449 962.893 434.378 962.893 436.753C962.893 439.128 960.964 441.058 958.589 441.058C956.214 441.058 954.284 439.128 954.284 436.753Z" fill="#111621"/>
<path d="M834.982 436.753C834.982 434.378 836.912 432.449 839.287 432.449C841.662 432.449 843.592 434.378 843.592 436.753C843.592 439.128 841.662 441.058 839.287 441.058C836.912 441.058 834.982 439.128 834.982 436.753Z" fill="#111621"/>
<path d="M834.982 556.02C834.982 553.645 836.912 551.715 839.287 551.715C841.662 551.715 843.592 553.645 843.592 556.02C843.592 558.395 841.662 560.325 839.287 560.325C836.912 560.325 834.982 558.395 834.982 556.02Z" fill="#111621"/>
<path d="M958.589 560.325C960.966 560.325 962.893 558.397 962.893 556.02C962.893 553.643 960.966 551.715 958.589 551.715C956.211 551.715 954.284 553.643 954.284 556.02C954.284 558.397 956.211 560.325 958.589 560.325Z" fill="#111621"/>
<path d="M1073.55 436.753C1073.55 434.378 1075.48 432.449 1077.85 432.449C1080.23 432.449 1082.16 434.378 1082.16 436.753C1082.16 439.128 1080.23 441.058 1077.85 441.058C1075.48 441.058 1073.55 439.128 1073.55 436.753Z" fill="#111621"/>
<path d="M954.284 436.753C954.284 434.378 956.214 432.449 958.589 432.449C960.964 432.449 962.893 434.378 962.893 436.753C962.893 439.128 960.964 441.058 958.589 441.058C956.214 441.058 954.284 439.128 954.284 436.753Z" fill="#111621"/>
<path d="M958.589 560.325C960.966 560.325 962.893 558.397 962.893 556.02C962.893 553.643 960.966 551.715 958.589 551.715C956.211 551.715 954.284 553.643 954.284 556.02C954.284 558.397 956.211 560.325 958.589 560.325Z" fill="#111621"/>
<path d="M1077.85 560.325C1080.23 560.325 1082.16 558.397 1082.16 556.02C1082.16 553.643 1080.23 551.715 1077.85 551.715C1075.48 551.715 1073.55 553.643 1073.55 556.02C1073.55 558.397 1075.48 560.325 1077.85 560.325Z" fill="#111621"/>
<path d="M1192.82 436.753C1192.82 434.378 1194.75 432.449 1197.12 432.449C1199.5 432.449 1201.43 434.378 1201.43 436.753C1201.43 439.128 1199.5 441.058 1197.12 441.058C1194.75 441.058 1192.82 439.128 1192.82 436.753Z" fill="#111621"/>
<path d="M1073.55 436.753C1073.55 434.378 1075.48 432.449 1077.85 432.449C1080.23 432.449 1082.16 434.378 1082.16 436.753C1082.16 439.128 1080.23 441.058 1077.85 441.058C1075.48 441.058 1073.55 439.128 1073.55 436.753Z" fill="#111621"/>
<path d="M1077.85 560.325C1080.23 560.325 1082.16 558.397 1082.16 556.02C1082.16 553.643 1080.23 551.715 1077.85 551.715C1075.48 551.715 1073.55 553.643 1073.55 556.02C1073.55 558.397 1075.48 560.325 1077.85 560.325Z" fill="#111621"/>
<path d="M1197.12 560.325C1199.5 560.325 1201.43 558.397 1201.43 556.02C1201.43 553.643 1199.5 551.715 1197.12 551.715C1194.75 551.715 1192.82 553.643 1192.82 556.02C1192.82 558.397 1194.75 560.325 1197.12 560.325Z" fill="#111621"/>
<path d="M1312.08 436.753C1312.08 434.378 1314.01 432.449 1316.39 432.449C1318.76 432.449 1320.69 434.378 1320.69 436.753C1320.69 439.128 1318.76 441.058 1316.39 441.058C1314.01 441.058 1312.08 439.128 1312.08 436.753Z" fill="#111621"/>
<path d="M1192.82 436.753C1192.82 434.378 1194.75 432.449 1197.12 432.449C1199.5 432.449 1201.43 434.378 1201.43 436.753C1201.43 439.128 1199.5 441.058 1197.12 441.058C1194.75 441.058 1192.82 439.128 1192.82 436.753Z" fill="#111621"/>
<path d="M1197.12 560.325C1199.5 560.325 1201.43 558.397 1201.43 556.02C1201.43 553.643 1199.5 551.715 1197.12 551.715C1194.75 551.715 1192.82 553.643 1192.82 556.02C1192.82 558.397 1194.75 560.325 1197.12 560.325Z" fill="#111621"/>
<path d="M1316.39 560.325C1318.77 560.325 1320.69 558.397 1320.69 556.02C1320.69 553.643 1318.77 551.715 1316.39 551.715C1314.01 551.715 1312.08 553.643 1312.08 556.02C1312.08 558.397 1314.01 560.325 1316.39 560.325Z" fill="#111621"/>
<path d="M1431.39 436.753C1431.39 434.378 1433.32 432.449 1435.69 432.449C1438.07 432.449 1440 434.378 1440 436.753C1440 439.128 1438.07 441.058 1435.69 441.058C1433.32 441.058 1431.39 439.128 1431.39 436.753Z" fill="#111621"/>
<path d="M1312.08 436.753C1312.08 434.378 1314.01 432.449 1316.39 432.449C1318.76 432.449 1320.69 434.378 1320.69 436.753C1320.69 439.128 1318.76 441.058 1316.39 441.058C1314.01 441.058 1312.08 439.128 1312.08 436.753Z" fill="#111621"/>
<path d="M1316.39 560.325C1318.77 560.325 1320.69 558.397 1320.69 556.02C1320.69 553.643 1318.77 551.715 1316.39 551.715C1314.01 551.715 1312.08 553.643 1312.08 556.02C1312.08 558.397 1314.01 560.325 1316.39 560.325Z" fill="#111621"/>
<path d="M1431.39 556.02C1431.39 553.645 1433.32 551.715 1435.69 551.715C1438.07 551.715 1440 553.645 1440 556.02C1440 558.395 1438.07 560.325 1435.69 560.325C1433.32 560.325 1431.39 558.395 1431.39 556.02Z" fill="#111621"/>
<path d="M123.646 560.325C126.023 560.325 127.95 558.397 127.95 556.02C127.95 553.643 126.023 551.715 123.646 551.715C121.268 551.715 119.341 553.643 119.341 556.02C119.341 558.397 121.268 560.325 123.646 560.325Z" fill="#111621"/>
<path d="M0.0390625 556.02C0.0390625 553.645 1.96871 551.715 4.34366 551.715C6.71861 551.715 8.64825 553.645 8.64825 556.02C8.64825 558.395 6.71861 560.325 4.34366 560.325C1.96871 560.325 0.0390625 558.395 0.0390625 556.02Z" fill="#111621"/>
<path d="M0.0390625 675.287C0.0390625 672.912 1.96871 670.982 4.34366 670.982C6.71861 670.982 8.64825 672.912 8.64825 675.287C8.64825 677.662 6.71861 679.591 4.34366 679.591C1.96871 679.591 0.0390625 677.662 0.0390625 675.287Z" fill="#111621"/>
<path d="M119.341 675.287C119.341 672.912 121.271 670.982 123.646 670.982C126.021 670.982 127.95 672.912 127.95 675.287C127.95 677.662 126.021 679.591 123.646 679.591C121.271 679.591 119.341 677.662 119.341 675.287Z" fill="#111621"/>
<path d="M242.911 560.325C245.289 560.325 247.216 558.397 247.216 556.02C247.216 553.643 245.289 551.715 242.911 551.715C240.534 551.715 238.607 553.643 238.607 556.02C238.607 558.397 240.534 560.325 242.911 560.325Z" fill="#111621"/>
<path d="M123.646 560.325C126.023 560.325 127.95 558.397 127.95 556.02C127.95 553.643 126.023 551.715 123.646 551.715C121.268 551.715 119.341 553.643 119.341 556.02C119.341 558.397 121.268 560.325 123.646 560.325Z" fill="#111621"/>
<path d="M119.341 675.287C119.341 672.912 121.271 670.982 123.646 670.982C126.021 670.982 127.95 672.912 127.95 675.287C127.95 677.662 126.021 679.591 123.646 679.591C121.271 679.591 119.341 677.662 119.341 675.287Z" fill="#111621"/>
<path d="M238.607 675.287C238.607 672.912 240.536 670.982 242.911 670.982C245.286 670.982 247.216 672.912 247.216 675.287C247.216 677.662 245.286 679.591 242.911 679.591C240.536 679.591 238.607 677.662 238.607 675.287Z" fill="#111621"/>
<path d="M362.181 560.325C364.558 560.325 366.485 558.397 366.485 556.02C366.485 553.643 364.558 551.715 362.181 551.715C359.803 551.715 357.876 553.643 357.876 556.02C357.876 558.397 359.803 560.325 362.181 560.325Z" fill="#111621"/>
<path d="M242.911 560.325C245.289 560.325 247.216 558.397 247.216 556.02C247.216 553.643 245.289 551.715 242.911 551.715C240.534 551.715 238.607 553.643 238.607 556.02C238.607 558.397 240.534 560.325 242.911 560.325Z" fill="#111621"/>
<path d="M238.607 675.287C238.607 672.912 240.536 670.982 242.911 670.982C245.286 670.982 247.216 672.912 247.216 675.287C247.216 677.662 245.286 679.591 242.911 679.591C240.536 679.591 238.607 677.662 238.607 675.287Z" fill="#111621"/>
<path d="M357.876 675.287C357.876 672.912 359.806 670.982 362.181 670.982C364.556 670.982 366.485 672.912 366.485 675.287C366.485 677.662 364.556 679.591 362.181 679.591C359.806 679.591 357.876 677.662 357.876 675.287Z" fill="#111621"/>
<path d="M481.446 560.325C483.824 560.325 485.751 558.397 485.751 556.02C485.751 553.643 483.824 551.715 481.446 551.715C479.069 551.715 477.142 553.643 477.142 556.02C477.142 558.397 479.069 560.325 481.446 560.325Z" fill="#111621"/>
<path d="M362.181 560.325C364.558 560.325 366.485 558.397 366.485 556.02C366.485 553.643 364.558 551.715 362.181 551.715C359.803 551.715 357.876 553.643 357.876 556.02C357.876 558.397 359.803 560.325 362.181 560.325Z" fill="#111621"/>
<path d="M357.876 675.287C357.876 672.912 359.806 670.982 362.181 670.982C364.556 670.982 366.485 672.912 366.485 675.287C366.485 677.662 364.556 679.591 362.181 679.591C359.806 679.591 357.876 677.662 357.876 675.287Z" fill="#111621"/>
<path d="M477.142 675.287C477.142 672.912 479.071 670.982 481.446 670.982C483.821 670.982 485.751 672.912 485.751 675.287C485.751 677.662 483.821 679.591 481.446 679.591C479.071 679.591 477.142 677.662 477.142 675.287Z" fill="#111621"/>
<path d="M596.447 556.02C596.447 553.645 598.377 551.715 600.752 551.715C603.127 551.715 605.056 553.645 605.056 556.02C605.056 558.395 603.127 560.325 600.752 560.325C598.377 560.325 596.447 558.395 596.447 556.02Z" fill="#111621"/>
<path d="M481.446 560.325C483.824 560.325 485.751 558.397 485.751 556.02C485.751 553.643 483.824 551.715 481.446 551.715C479.069 551.715 477.142 553.643 477.142 556.02C477.142 558.397 479.069 560.325 481.446 560.325Z" fill="#111621"/>
<path d="M477.142 675.287C477.142 672.912 479.071 670.982 481.446 670.982C483.821 670.982 485.751 672.912 485.751 675.287C485.751 677.662 483.821 679.591 481.446 679.591C479.071 679.591 477.142 677.662 477.142 675.287Z" fill="#111621"/>
<path d="M596.447 675.287C596.447 672.912 598.377 670.982 600.752 670.982C603.127 670.982 605.056 672.912 605.056 675.287C605.056 677.662 603.127 679.591 600.752 679.591C598.377 679.591 596.447 677.662 596.447 675.287Z" fill="#111621"/>
<path d="M720.017 560.325C722.395 560.325 724.322 558.397 724.322 556.02C724.322 553.643 722.395 551.715 720.017 551.715C717.64 551.715 715.713 553.643 715.713 556.02C715.713 558.397 717.64 560.325 720.017 560.325Z" fill="#111621"/>
<path d="M596.447 556.02C596.447 553.645 598.377 551.715 600.752 551.715C603.127 551.715 605.056 553.645 605.056 556.02C605.056 558.395 603.127 560.325 600.752 560.325C598.377 560.325 596.447 558.395 596.447 556.02Z" fill="#111621"/>
<path d="M596.447 675.287C596.447 672.912 598.377 670.982 600.752 670.982C603.127 670.982 605.056 672.912 605.056 675.287C605.056 677.662 603.127 679.591 600.752 679.591C598.377 679.591 596.447 677.662 596.447 675.287Z" fill="#111621"/>
<path d="M715.713 675.287C715.713 672.912 717.643 670.982 720.017 670.982C722.392 670.982 724.322 672.912 724.322 675.287C724.322 677.662 722.392 679.591 720.017 679.591C717.643 679.591 715.713 677.662 715.713 675.287Z" fill="#111621"/>
<path d="M834.982 556.02C834.982 553.645 836.912 551.715 839.287 551.715C841.662 551.715 843.592 553.645 843.592 556.02C843.592 558.395 841.662 560.325 839.287 560.325C836.912 560.325 834.982 558.395 834.982 556.02Z" fill="#111621"/>
<path d="M720.017 560.325C722.395 560.325 724.322 558.397 724.322 556.02C724.322 553.643 722.395 551.715 720.017 551.715C717.64 551.715 715.713 553.643 715.713 556.02C715.713 558.397 717.64 560.325 720.017 560.325Z" fill="#111621"/>
<path d="M715.713 675.287C715.713 672.912 717.643 670.982 720.017 670.982C722.392 670.982 724.322 672.912 724.322 675.287C724.322 677.662 722.392 679.591 720.017 679.591C717.643 679.591 715.713 677.662 715.713 675.287Z" fill="#111621"/>
<path d="M834.982 675.287C834.982 672.912 836.912 670.982 839.287 670.982C841.662 670.982 843.592 672.912 843.592 675.287C843.592 677.662 841.662 679.591 839.287 679.591C836.912 679.591 834.982 677.662 834.982 675.287Z" fill="#111621"/>
<path d="M958.589 560.325C960.966 560.325 962.893 558.397 962.893 556.02C962.893 553.643 960.966 551.715 958.589 551.715C956.211 551.715 954.284 553.643 954.284 556.02C954.284 558.397 956.211 560.325 958.589 560.325Z" fill="#111621"/>
<path d="M834.982 556.02C834.982 553.645 836.912 551.715 839.287 551.715C841.662 551.715 843.592 553.645 843.592 556.02C843.592 558.395 841.662 560.325 839.287 560.325C836.912 560.325 834.982 558.395 834.982 556.02Z" fill="#111621"/>
<path d="M834.982 675.287C834.982 672.912 836.912 670.982 839.287 670.982C841.662 670.982 843.592 672.912 843.592 675.287C843.592 677.662 841.662 679.591 839.287 679.591C836.912 679.591 834.982 677.662 834.982 675.287Z" fill="#111621"/>
<path d="M954.284 675.287C954.284 672.912 956.214 670.982 958.589 670.982C960.964 670.982 962.893 672.912 962.893 675.287C962.893 677.662 960.964 679.591 958.589 679.591C956.214 679.591 954.284 677.662 954.284 675.287Z" fill="#111621"/>
<path d="M1077.85 560.325C1080.23 560.325 1082.16 558.397 1082.16 556.02C1082.16 553.643 1080.23 551.715 1077.85 551.715C1075.48 551.715 1073.55 553.643 1073.55 556.02C1073.55 558.397 1075.48 560.325 1077.85 560.325Z" fill="#111621"/>
<path d="M958.589 560.325C960.966 560.325 962.893 558.397 962.893 556.02C962.893 553.643 960.966 551.715 958.589 551.715C956.211 551.715 954.284 553.643 954.284 556.02C954.284 558.397 956.211 560.325 958.589 560.325Z" fill="#111621"/>
<path d="M954.284 675.287C954.284 672.912 956.214 670.982 958.589 670.982C960.964 670.982 962.893 672.912 962.893 675.287C962.893 677.662 960.964 679.591 958.589 679.591C956.214 679.591 954.284 677.662 954.284 675.287Z" fill="#111621"/>
<path d="M1073.55 675.287C1073.55 672.912 1075.48 670.982 1077.85 670.982C1080.23 670.982 1082.16 672.912 1082.16 675.287C1082.16 677.662 1080.23 679.591 1077.85 679.591C1075.48 679.591 1073.55 677.662 1073.55 675.287Z" fill="#111621"/>
<path d="M1197.12 560.325C1199.5 560.325 1201.43 558.397 1201.43 556.02C1201.43 553.643 1199.5 551.715 1197.12 551.715C1194.75 551.715 1192.82 553.643 1192.82 556.02C1192.82 558.397 1194.75 560.325 1197.12 560.325Z" fill="#111621"/>
<path d="M1077.85 560.325C1080.23 560.325 1082.16 558.397 1082.16 556.02C1082.16 553.643 1080.23 551.715 1077.85 551.715C1075.48 551.715 1073.55 553.643 1073.55 556.02C1073.55 558.397 1075.48 560.325 1077.85 560.325Z" fill="#111621"/>
<path d="M1073.55 675.287C1073.55 672.912 1075.48 670.982 1077.85 670.982C1080.23 670.982 1082.16 672.912 1082.16 675.287C1082.16 677.662 1080.23 679.591 1077.85 679.591C1075.48 679.591 1073.55 677.662 1073.55 675.287Z" fill="#111621"/>
<path d="M1192.82 675.287C1192.82 672.912 1194.75 670.982 1197.12 670.982C1199.5 670.982 1201.43 672.912 1201.43 675.287C1201.43 677.662 1199.5 679.591 1197.12 679.591C1194.75 679.591 1192.82 677.662 1192.82 675.287Z" fill="#111621"/>
<path d="M1316.39 560.325C1318.77 560.325 1320.69 558.397 1320.69 556.02C1320.69 553.643 1318.77 551.715 1316.39 551.715C1314.01 551.715 1312.08 553.643 1312.08 556.02C1312.08 558.397 1314.01 560.325 1316.39 560.325Z" fill="#111621"/>
<path d="M1197.12 560.325C1199.5 560.325 1201.43 558.397 1201.43 556.02C1201.43 553.643 1199.5 551.715 1197.12 551.715C1194.75 551.715 1192.82 553.643 1192.82 556.02C1192.82 558.397 1194.75 560.325 1197.12 560.325Z" fill="#111621"/>
<path d="M1192.82 675.287C1192.82 672.912 1194.75 670.982 1197.12 670.982C1199.5 670.982 1201.43 672.912 1201.43 675.287C1201.43 677.662 1199.5 679.591 1197.12 679.591C1194.75 679.591 1192.82 677.662 1192.82 675.287Z" fill="#111621"/>
<path d="M1312.08 675.287C1312.08 672.912 1314.01 670.982 1316.39 670.982C1318.76 670.982 1320.69 672.912 1320.69 675.287C1320.69 677.662 1318.76 679.591 1316.39 679.591C1314.01 679.591 1312.08 677.662 1312.08 675.287Z" fill="#111621"/>
<path d="M1431.39 556.02C1431.39 553.645 1433.32 551.715 1435.69 551.715C1438.07 551.715 1440 553.645 1440 556.02C1440 558.395 1438.07 560.325 1435.69 560.325C1433.32 560.325 1431.39 558.395 1431.39 556.02Z" fill="#111621"/>
<path d="M1316.39 560.325C1318.77 560.325 1320.69 558.397 1320.69 556.02C1320.69 553.643 1318.77 551.715 1316.39 551.715C1314.01 551.715 1312.08 553.643 1312.08 556.02C1312.08 558.397 1314.01 560.325 1316.39 560.325Z" fill="#111621"/>
<path d="M1312.08 675.287C1312.08 672.912 1314.01 670.982 1316.39 670.982C1318.76 670.982 1320.69 672.912 1320.69 675.287C1320.69 677.662 1318.76 679.591 1316.39 679.591C1314.01 679.591 1312.08 677.662 1312.08 675.287Z" fill="#111621"/>
<path d="M1431.39 675.287C1431.39 672.912 1433.32 670.982 1435.69 670.982C1438.07 670.982 1440 672.912 1440 675.287C1440 677.662 1438.07 679.591 1435.69 679.591C1433.32 679.591 1431.39 677.662 1431.39 675.287Z" fill="#111621"/>
<path d="M119.341 675.287C119.341 672.912 121.271 670.982 123.646 670.982C126.021 670.982 127.95 672.912 127.95 675.287C127.95 677.662 126.021 679.591 123.646 679.591C121.271 679.591 119.341 677.662 119.341 675.287Z" fill="#111621"/>
<path d="M0.0390625 675.287C0.0390625 672.912 1.96871 670.982 4.34366 670.982C6.71861 670.982 8.64825 672.912 8.64825 675.287C8.64825 677.662 6.71861 679.591 4.34366 679.591C1.96871 679.591 0.0390625 677.662 0.0390625 675.287Z" fill="#111621"/>
<path d="M0.0390625 794.591C0.0390625 792.216 1.96871 790.286 4.34366 790.286C6.71861 790.286 8.64825 792.216 8.64825 794.591C8.64825 796.966 6.71861 798.896 4.34366 798.896C1.96871 798.896 0.0390625 796.966 0.0390625 794.591Z" fill="#111621"/>
<path d="M123.646 798.896C126.023 798.896 127.95 796.968 127.95 794.591C127.95 792.214 126.023 790.286 123.646 790.286C121.268 790.286 119.341 792.214 119.341 794.591C119.341 796.968 121.268 798.896 123.646 798.896Z" fill="#111621"/>
<path d="M238.607 675.287C238.607 672.912 240.536 670.982 242.911 670.982C245.286 670.982 247.216 672.912 247.216 675.287C247.216 677.662 245.286 679.591 242.911 679.591C240.536 679.591 238.607 677.662 238.607 675.287Z" fill="#111621"/>
<path d="M119.341 675.287C119.341 672.912 121.271 670.982 123.646 670.982C126.021 670.982 127.95 672.912 127.95 675.287C127.95 677.662 126.021 679.591 123.646 679.591C121.271 679.591 119.341 677.662 119.341 675.287Z" fill="#111621"/>
<path d="M123.646 798.896C126.023 798.896 127.95 796.968 127.95 794.591C127.95 792.214 126.023 790.286 123.646 790.286C121.268 790.286 119.341 792.214 119.341 794.591C119.341 796.968 121.268 798.896 123.646 798.896Z" fill="#111621"/>
<path d="M242.911 798.896C245.289 798.896 247.216 796.968 247.216 794.591C247.216 792.214 245.289 790.286 242.911 790.286C240.534 790.286 238.607 792.214 238.607 794.591C238.607 796.968 240.534 798.896 242.911 798.896Z" fill="#111621"/>
<path d="M357.876 675.287C357.876 672.912 359.806 670.982 362.181 670.982C364.556 670.982 366.485 672.912 366.485 675.287C366.485 677.662 364.556 679.591 362.181 679.591C359.806 679.591 357.876 677.662 357.876 675.287Z" fill="#111621"/>
<path d="M238.607 675.287C238.607 672.912 240.536 670.982 242.911 670.982C245.286 670.982 247.216 672.912 247.216 675.287C247.216 677.662 245.286 679.591 242.911 679.591C240.536 679.591 238.607 677.662 238.607 675.287Z" fill="#111621"/>
<path d="M242.911 798.896C245.289 798.896 247.216 796.968 247.216 794.591C247.216 792.214 245.289 790.286 242.911 790.286C240.534 790.286 238.607 792.214 238.607 794.591C238.607 796.968 240.534 798.896 242.911 798.896Z" fill="#111621"/>
<path d="M362.181 798.896C364.558 798.896 366.485 796.968 366.485 794.591C366.485 792.214 364.558 790.286 362.181 790.286C359.803 790.286 357.876 792.214 357.876 794.591C357.876 796.968 359.803 798.896 362.181 798.896Z" fill="#111621"/>
<path d="M477.142 675.287C477.142 672.912 479.071 670.982 481.446 670.982C483.821 670.982 485.751 672.912 485.751 675.287C485.751 677.662 483.821 679.591 481.446 679.591C479.071 679.591 477.142 677.662 477.142 675.287Z" fill="#111621"/>
<path d="M357.876 675.287C357.876 672.912 359.806 670.982 362.181 670.982C364.556 670.982 366.485 672.912 366.485 675.287C366.485 677.662 364.556 679.591 362.181 679.591C359.806 679.591 357.876 677.662 357.876 675.287Z" fill="#111621"/>
<path d="M362.181 798.896C364.558 798.896 366.485 796.968 366.485 794.591C366.485 792.214 364.558 790.286 362.181 790.286C359.803 790.286 357.876 792.214 357.876 794.591C357.876 796.968 359.803 798.896 362.181 798.896Z" fill="#111621"/>
<path d="M481.446 798.896C483.824 798.896 485.751 796.968 485.751 794.591C485.751 792.214 483.824 790.286 481.446 790.286C479.069 790.286 477.142 792.214 477.142 794.591C477.142 796.968 479.069 798.896 481.446 798.896Z" fill="#111621"/>
<path d="M596.447 675.287C596.447 672.912 598.377 670.982 600.752 670.982C603.127 670.982 605.056 672.912 605.056 675.287C605.056 677.662 603.127 679.591 600.752 679.591C598.377 679.591 596.447 677.662 596.447 675.287Z" fill="#111621"/>
<path d="M477.142 675.287C477.142 672.912 479.071 670.982 481.446 670.982C483.821 670.982 485.751 672.912 485.751 675.287C485.751 677.662 483.821 679.591 481.446 679.591C479.071 679.591 477.142 677.662 477.142 675.287Z" fill="#111621"/>
<path d="M481.446 798.896C483.824 798.896 485.751 796.968 485.751 794.591C485.751 792.214 483.824 790.286 481.446 790.286C479.069 790.286 477.142 792.214 477.142 794.591C477.142 796.968 479.069 798.896 481.446 798.896Z" fill="#111621"/>
<path d="M596.447 794.591C596.447 792.216 598.377 790.286 600.752 790.286C603.127 790.286 605.056 792.216 605.056 794.591C605.056 796.966 603.127 798.896 600.752 798.896C598.377 798.896 596.447 796.966 596.447 794.591Z" fill="#111621"/>
<path d="M715.713 675.287C715.713 672.912 717.643 670.982 720.017 670.982C722.392 670.982 724.322 672.912 724.322 675.287C724.322 677.662 722.392 679.591 720.017 679.591C717.643 679.591 715.713 677.662 715.713 675.287Z" fill="#111621"/>
<path d="M596.447 675.287C596.447 672.912 598.377 670.982 600.752 670.982C603.127 670.982 605.056 672.912 605.056 675.287C605.056 677.662 603.127 679.591 600.752 679.591C598.377 679.591 596.447 677.662 596.447 675.287Z" fill="#111621"/>
<path d="M596.447 794.591C596.447 792.216 598.377 790.286 600.752 790.286C603.127 790.286 605.056 792.216 605.056 794.591C605.056 796.966 603.127 798.896 600.752 798.896C598.377 798.896 596.447 796.966 596.447 794.591Z" fill="#111621"/>
<path d="M720.017 798.896C722.395 798.896 724.322 796.968 724.322 794.591C724.322 792.214 722.395 790.286 720.017 790.286C717.64 790.286 715.713 792.214 715.713 794.591C715.713 796.968 717.64 798.896 720.017 798.896Z" fill="#111621"/>
<path d="M834.982 675.287C834.982 672.912 836.912 670.982 839.287 670.982C841.662 670.982 843.592 672.912 843.592 675.287C843.592 677.662 841.662 679.591 839.287 679.591C836.912 679.591 834.982 677.662 834.982 675.287Z" fill="#111621"/>
<path d="M715.713 675.287C715.713 672.912 717.643 670.982 720.017 670.982C722.392 670.982 724.322 672.912 724.322 675.287C724.322 677.662 722.392 679.591 720.017 679.591C717.643 679.591 715.713 677.662 715.713 675.287Z" fill="#111621"/>
<path d="M720.017 798.896C722.395 798.896 724.322 796.968 724.322 794.591C724.322 792.214 722.395 790.286 720.017 790.286C717.64 790.286 715.713 792.214 715.713 794.591C715.713 796.968 717.64 798.896 720.017 798.896Z" fill="#111621"/>
<path d="M834.982 794.591C834.982 792.216 836.912 790.286 839.287 790.286C841.662 790.286 843.592 792.216 843.592 794.591C843.592 796.966 841.662 798.896 839.287 798.896C836.912 798.896 834.982 796.966 834.982 794.591Z" fill="#111621"/>
<path d="M954.284 675.287C954.284 672.912 956.214 670.982 958.589 670.982C960.964 670.982 962.893 672.912 962.893 675.287C962.893 677.662 960.964 679.591 958.589 679.591C956.214 679.591 954.284 677.662 954.284 675.287Z" fill="#111621"/>
<path d="M834.982 675.287C834.982 672.912 836.912 670.982 839.287 670.982C841.662 670.982 843.592 672.912 843.592 675.287C843.592 677.662 841.662 679.591 839.287 679.591C836.912 679.591 834.982 677.662 834.982 675.287Z" fill="#111621"/>
<path d="M834.982 794.591C834.982 792.216 836.912 790.286 839.287 790.286C841.662 790.286 843.592 792.216 843.592 794.591C843.592 796.966 841.662 798.896 839.287 798.896C836.912 798.896 834.982 796.966 834.982 794.591Z" fill="#111621"/>
<path d="M958.589 798.896C960.966 798.896 962.893 796.968 962.893 794.591C962.893 792.214 960.966 790.286 958.589 790.286C956.211 790.286 954.284 792.214 954.284 794.591C954.284 796.968 956.211 798.896 958.589 798.896Z" fill="#111621"/>
<path d="M1073.55 675.287C1073.55 672.912 1075.48 670.982 1077.85 670.982C1080.23 670.982 1082.16 672.912 1082.16 675.287C1082.16 677.662 1080.23 679.591 1077.85 679.591C1075.48 679.591 1073.55 677.662 1073.55 675.287Z" fill="#111621"/>
<path d="M954.284 675.287C954.284 672.912 956.214 670.982 958.589 670.982C960.964 670.982 962.893 672.912 962.893 675.287C962.893 677.662 960.964 679.591 958.589 679.591C956.214 679.591 954.284 677.662 954.284 675.287Z" fill="#111621"/>
<path d="M958.589 798.896C960.966 798.896 962.893 796.968 962.893 794.591C962.893 792.214 960.966 790.286 958.589 790.286C956.211 790.286 954.284 792.214 954.284 794.591C954.284 796.968 956.211 798.896 958.589 798.896Z" fill="#111621"/>
<path d="M1077.85 798.896C1080.23 798.896 1082.16 796.968 1082.16 794.591C1082.16 792.214 1080.23 790.286 1077.85 790.286C1075.48 790.286 1073.55 792.214 1073.55 794.591C1073.55 796.968 1075.48 798.896 1077.85 798.896Z" fill="#111621"/>
<path d="M1192.82 675.287C1192.82 672.912 1194.75 670.982 1197.12 670.982C1199.5 670.982 1201.43 672.912 1201.43 675.287C1201.43 677.662 1199.5 679.591 1197.12 679.591C1194.75 679.591 1192.82 677.662 1192.82 675.287Z" fill="#111621"/>
<path d="M1073.55 675.287C1073.55 672.912 1075.48 670.982 1077.85 670.982C1080.23 670.982 1082.16 672.912 1082.16 675.287C1082.16 677.662 1080.23 679.591 1077.85 679.591C1075.48 679.591 1073.55 677.662 1073.55 675.287Z" fill="#111621"/>
<path d="M1077.85 798.896C1080.23 798.896 1082.16 796.968 1082.16 794.591C1082.16 792.214 1080.23 790.286 1077.85 790.286C1075.48 790.286 1073.55 792.214 1073.55 794.591C1073.55 796.968 1075.48 798.896 1077.85 798.896Z" fill="#111621"/>
<path d="M1197.12 798.896C1199.5 798.896 1201.43 796.968 1201.43 794.591C1201.43 792.214 1199.5 790.286 1197.12 790.286C1194.75 790.286 1192.82 792.214 1192.82 794.591C1192.82 796.968 1194.75 798.896 1197.12 798.896Z" fill="#111621"/>
<path d="M1312.08 675.287C1312.08 672.912 1314.01 670.982 1316.39 670.982C1318.76 670.982 1320.69 672.912 1320.69 675.287C1320.69 677.662 1318.76 679.591 1316.39 679.591C1314.01 679.591 1312.08 677.662 1312.08 675.287Z" fill="#111621"/>
<path d="M1192.82 675.287C1192.82 672.912 1194.75 670.982 1197.12 670.982C1199.5 670.982 1201.43 672.912 1201.43 675.287C1201.43 677.662 1199.5 679.591 1197.12 679.591C1194.75 679.591 1192.82 677.662 1192.82 675.287Z" fill="#111621"/>
<path d="M1197.12 798.896C1199.5 798.896 1201.43 796.968 1201.43 794.591C1201.43 792.214 1199.5 790.286 1197.12 790.286C1194.75 790.286 1192.82 792.214 1192.82 794.591C1192.82 796.968 1194.75 798.896 1197.12 798.896Z" fill="#111621"/>
<path d="M1316.39 798.896C1318.77 798.896 1320.69 796.968 1320.69 794.591C1320.69 792.214 1318.77 790.286 1316.39 790.286C1314.01 790.286 1312.08 792.214 1312.08 794.591C1312.08 796.968 1314.01 798.896 1316.39 798.896Z" fill="#111621"/>
<path d="M1431.39 675.287C1431.39 672.912 1433.32 670.982 1435.69 670.982C1438.07 670.982 1440 672.912 1440 675.287C1440 677.662 1438.07 679.591 1435.69 679.591C1433.32 679.591 1431.39 677.662 1431.39 675.287Z" fill="#111621"/>
<path d="M1312.08 675.287C1312.08 672.912 1314.01 670.982 1316.39 670.982C1318.76 670.982 1320.69 672.912 1320.69 675.287C1320.69 677.662 1318.76 679.591 1316.39 679.591C1314.01 679.591 1312.08 677.662 1312.08 675.287Z" fill="#111621"/>
<path d="M1316.39 798.896C1318.77 798.896 1320.69 796.968 1320.69 794.591C1320.69 792.214 1318.77 790.286 1316.39 790.286C1314.01 790.286 1312.08 792.214 1312.08 794.591C1312.08 796.968 1314.01 798.896 1316.39 798.896Z" fill="#111621"/>
<path d="M1431.39 794.591C1431.39 792.216 1433.32 790.286 1435.69 790.286C1438.07 790.286 1440 792.216 1440 794.591C1440 796.966 1438.07 798.896 1435.69 798.896C1433.32 798.896 1431.39 796.966 1431.39 794.591Z" fill="#111621"/>
<path d="M123.646 798.896C126.023 798.896 127.95 796.968 127.95 794.591C127.95 792.214 126.023 790.286 123.646 790.286C121.268 790.286 119.341 792.214 119.341 794.591C119.341 796.968 121.268 798.896 123.646 798.896Z" fill="#111621"/>
<path d="M0.0390625 794.591C0.0390625 792.216 1.96871 790.286 4.34366 790.286C6.71861 790.286 8.64825 792.216 8.64825 794.591C8.64825 796.966 6.71861 798.896 4.34366 798.896C1.96871 798.896 0.0390625 796.966 0.0390625 794.591Z" fill="#111621"/>
<path d="M242.911 798.896C245.289 798.896 247.216 796.968 247.216 794.591C247.216 792.214 245.289 790.286 242.911 790.286C240.534 790.286 238.607 792.214 238.607 794.591C238.607 796.968 240.534 798.896 242.911 798.896Z" fill="#111621"/>
<path d="M123.646 798.896C126.023 798.896 127.95 796.968 127.95 794.591C127.95 792.214 126.023 790.286 123.646 790.286C121.268 790.286 119.341 792.214 119.341 794.591C119.341 796.968 121.268 798.896 123.646 798.896Z" fill="#111621"/>
<path d="M362.181 798.896C364.558 798.896 366.485 796.968 366.485 794.591C366.485 792.214 364.558 790.286 362.181 790.286C359.803 790.286 357.876 792.214 357.876 794.591C357.876 796.968 359.803 798.896 362.181 798.896Z" fill="#111621"/>
<path d="M242.911 798.896C245.289 798.896 247.216 796.968 247.216 794.591C247.216 792.214 245.289 790.286 242.911 790.286C240.534 790.286 238.607 792.214 238.607 794.591C238.607 796.968 240.534 798.896 242.911 798.896Z" fill="#111621"/>
<path d="M481.446 798.896C483.824 798.896 485.751 796.968 485.751 794.591C485.751 792.214 483.824 790.286 481.446 790.286C479.069 790.286 477.142 792.214 477.142 794.591C477.142 796.968 479.069 798.896 481.446 798.896Z" fill="#111621"/>
<path d="M362.181 798.896C364.558 798.896 366.485 796.968 366.485 794.591C366.485 792.214 364.558 790.286 362.181 790.286C359.803 790.286 357.876 792.214 357.876 794.591C357.876 796.968 359.803 798.896 362.181 798.896Z" fill="#111621"/>
<path d="M596.447 794.591C596.447 792.216 598.377 790.286 600.752 790.286C603.127 790.286 605.056 792.216 605.056 794.591C605.056 796.966 603.127 798.896 600.752 798.896C598.377 798.896 596.447 796.966 596.447 794.591Z" fill="#111621"/>
<path d="M481.446 798.896C483.824 798.896 485.751 796.968 485.751 794.591C485.751 792.214 483.824 790.286 481.446 790.286C479.069 790.286 477.142 792.214 477.142 794.591C477.142 796.968 479.069 798.896 481.446 798.896Z" fill="#111621"/>
<path d="M720.017 798.896C722.395 798.896 724.322 796.968 724.322 794.591C724.322 792.214 722.395 790.286 720.017 790.286C717.64 790.286 715.713 792.214 715.713 794.591C715.713 796.968 717.64 798.896 720.017 798.896Z" fill="#111621"/>
<path d="M596.447 794.591C596.447 792.216 598.377 790.286 600.752 790.286C603.127 790.286 605.056 792.216 605.056 794.591C605.056 796.966 603.127 798.896 600.752 798.896C598.377 798.896 596.447 796.966 596.447 794.591Z" fill="#111621"/>
<path d="M834.982 794.591C834.982 792.216 836.912 790.286 839.287 790.286C841.662 790.286 843.592 792.216 843.592 794.591C843.592 796.966 841.662 798.896 839.287 798.896C836.912 798.896 834.982 796.966 834.982 794.591Z" fill="#111621"/>
<path d="M720.017 798.896C722.395 798.896 724.322 796.968 724.322 794.591C724.322 792.214 722.395 790.286 720.017 790.286C717.64 790.286 715.713 792.214 715.713 794.591C715.713 796.968 717.64 798.896 720.017 798.896Z" fill="#111621"/>
<path d="M958.589 798.896C960.966 798.896 962.893 796.968 962.893 794.591C962.893 792.214 960.966 790.286 958.589 790.286C956.211 790.286 954.284 792.214 954.284 794.591C954.284 796.968 956.211 798.896 958.589 798.896Z" fill="#111621"/>
<path d="M834.982 794.591C834.982 792.216 836.912 790.286 839.287 790.286C841.662 790.286 843.592 792.216 843.592 794.591C843.592 796.966 841.662 798.896 839.287 798.896C836.912 798.896 834.982 796.966 834.982 794.591Z" fill="#111621"/>
<path d="M1077.85 798.896C1080.23 798.896 1082.16 796.968 1082.16 794.591C1082.16 792.214 1080.23 790.286 1077.85 790.286C1075.48 790.286 1073.55 792.214 1073.55 794.591C1073.55 796.968 1075.48 798.896 1077.85 798.896Z" fill="#111621"/>
<path d="M958.589 798.896C960.966 798.896 962.893 796.968 962.893 794.591C962.893 792.214 960.966 790.286 958.589 790.286C956.211 790.286 954.284 792.214 954.284 794.591C954.284 796.968 956.211 798.896 958.589 798.896Z" fill="#111621"/>
<path d="M1197.12 798.896C1199.5 798.896 1201.43 796.968 1201.43 794.591C1201.43 792.214 1199.5 790.286 1197.12 790.286C1194.75 790.286 1192.82 792.214 1192.82 794.591C1192.82 796.968 1194.75 798.896 1197.12 798.896Z" fill="#111621"/>
<path d="M1077.85 798.896C1080.23 798.896 1082.16 796.968 1082.16 794.591C1082.16 792.214 1080.23 790.286 1077.85 790.286C1075.48 790.286 1073.55 792.214 1073.55 794.591C1073.55 796.968 1075.48 798.896 1077.85 798.896Z" fill="#111621"/>
<path d="M1316.39 798.896C1318.77 798.896 1320.69 796.968 1320.69 794.591C1320.69 792.214 1318.77 790.286 1316.39 790.286C1314.01 790.286 1312.08 792.214 1312.08 794.591C1312.08 796.968 1314.01 798.896 1316.39 798.896Z" fill="#111621"/>
<path d="M1197.12 798.896C1199.5 798.896 1201.43 796.968 1201.43 794.591C1201.43 792.214 1199.5 790.286 1197.12 790.286C1194.75 790.286 1192.82 792.214 1192.82 794.591C1192.82 796.968 1194.75 798.896 1197.12 798.896Z" fill="#111621"/>
<path d="M1431.39 794.591C1431.39 792.216 1433.32 790.286 1435.69 790.286C1438.07 790.286 1440 792.216 1440 794.591C1440 796.966 1438.07 798.896 1435.69 798.896C1433.32 798.896 1431.39 796.966 1431.39 794.591Z" fill="#111621"/>
<path d="M1316.39 798.896C1318.77 798.896 1320.69 796.968 1320.69 794.591C1320.69 792.214 1318.77 790.286 1316.39 790.286C1314.01 790.286 1312.08 792.214 1312.08 794.591C1312.08 796.968 1314.01 798.896 1316.39 798.896Z" fill="#111621"/>
</svg>
