<svg width="102" height="121" viewBox="0 0 102 121" fill="none" xmlns="http://www.w3.org/2000/svg">
<g id="Frame" clip-path="url(#clip0_204_2070)">
<g id="Group">
<g id="Modo de isolamento">
<g id="Group_2">
<path id="Vector" fill-rule="evenodd" clip-rule="evenodd" d="M19.2502 42.671L92.5988 14.0769L87.25 0.027832L9.50439 32.2749L19.2502 42.671Z" fill="url(#paint0_radial_204_2070)"/>
<path id="Vector_2" fill-rule="evenodd" clip-rule="evenodd" d="M92.5988 14.0769L95.4877 15.518L90.8427 1.16731L87.25 0.027832L92.5988 14.0769Z" fill="#8F7F8E"/>
<path id="Vector_3" fill-rule="evenodd" clip-rule="evenodd" d="M8.68018 56.5056L15.6243 113.674C16.0733 117.353 19.3108 120.048 23.0107 119.82L94.5361 115.349C98.2897 115.115 101.192 111.951 101.098 108.191L99.7375 53.3083L8.68018 56.5056Z" fill="url(#paint1_radial_204_2070)"/>
<path id="Vector_4" fill-rule="evenodd" clip-rule="evenodd" d="M5.86475 56.6998L12.8088 113.868C13.2579 117.548 16.4954 120.242 20.1953 120.008L91.7207 115.537C95.4742 115.302 98.3766 112.139 98.2827 108.378L96.9221 53.4958L5.86475 56.6931V56.6998Z" fill="url(#paint2_radial_204_2070)"/>
<path id="Vector_5" fill-rule="evenodd" clip-rule="evenodd" d="M27.2939 55.8821L98.6048 53.3417L98.082 38.3208L21.9316 42.8385L27.2939 55.8821Z" fill="url(#paint3_radial_204_2070)"/>
<path id="Vector_6" fill-rule="evenodd" clip-rule="evenodd" d="M98.6048 53.3419L101.159 53.1676L101.326 38.093L98.082 38.3209L98.6048 53.3419Z" fill="#8F7F8E"/>
<path id="Vector_7" fill-rule="evenodd" clip-rule="evenodd" d="M26.3485 42.5772L95.4877 15.518L92.5988 14.0769L21.8442 41.6589L23.2183 42.7983L26.3485 42.5772Z" fill="#231431"/>
<path id="Vector_8" fill-rule="evenodd" clip-rule="evenodd" d="M4.71871 57.4774L0.562988 32.6503L9.9938 31.1221L27.106 45.2046L27.8567 55.8419L4.71871 57.4774Z" fill="url(#paint4_radial_204_2070)"/>
<path id="Vector_9" fill-rule="evenodd" clip-rule="evenodd" d="M4.15573 57.5177L0 32.6839L9.42411 31.1624L26.543 45.2449L27.2937 55.8822L4.15573 57.5177Z" fill="url(#paint5_radial_204_2070)"/>
<g id="Group_3">
<path id="Vector_10" fill-rule="evenodd" clip-rule="evenodd" d="M48.5214 55.3995L38.4673 55.8084L28.2656 42.5302L38.0651 41.9604L48.5214 55.3995Z" fill="url(#paint6_radial_204_2070)"/>
<path id="Vector_11" fill-rule="evenodd" clip-rule="evenodd" d="M72.1487 54.4545L61.4712 54.8835L50.6797 41.2232L61.069 40.6133L72.1487 54.4545Z" fill="url(#paint7_radial_204_2070)"/>
<path id="Vector_12" fill-rule="evenodd" clip-rule="evenodd" d="M97.0696 53.4558L85.7151 53.9116L74.2734 39.8424L85.3196 39.199L97.0696 53.4558Z" fill="url(#paint8_radial_204_2070)"/>
</g>
<g id="Group_4">
<path id="Vector_13" fill-rule="evenodd" clip-rule="evenodd" d="M68.2676 23.5278L78.2949 19.4726L82.4842 2.17944L72.4032 6.27485L68.2676 23.5278Z" fill="url(#paint9_radial_204_2070)"/>
<path id="Vector_14" fill-rule="evenodd" clip-rule="evenodd" d="M45.8672 32.295L55.8007 28.4208L59.8425 11.3823L49.8218 15.4576L45.8672 32.295Z" fill="url(#paint10_radial_204_2070)"/>
<path id="Vector_15" fill-rule="evenodd" clip-rule="evenodd" d="M23.7412 41.0758L33.4535 37.1748L37.5154 20.458L27.5551 24.5065L23.7412 41.0758Z" fill="url(#paint11_radial_204_2070)"/>
</g>
<g id="Vector_16" style="mix-blend-mode:multiply" opacity="0.6">
<path fill-rule="evenodd" clip-rule="evenodd" d="M6.41433 61.2175C6.41433 61.2175 54.1583 52.2827 97.0024 56.4518L99.8377 57.2562L99.7372 53.3015L5.91162 57.3902L6.41433 61.2175Z" fill="#7F4A89"/>
</g>
<g id="Group_5">
<g id="Vector_17" style="mix-blend-mode:multiply" opacity="0.6">
<path fill-rule="evenodd" clip-rule="evenodd" d="M23.1914 51.2707C23.2585 52.1957 22.5614 52.9933 21.6364 53.0603C20.7114 53.1274 19.9138 52.4303 19.8467 51.5053C19.7797 50.5803 20.4768 49.7827 21.4018 49.7156C22.3268 49.6486 23.1244 50.3457 23.1914 51.2707Z" fill="#7F4A89"/>
</g>
<path id="Vector_18" fill-rule="evenodd" clip-rule="evenodd" d="M23.1514 50.6943C23.2184 51.6193 22.5213 52.4169 21.5963 52.4839C20.6714 52.5509 19.8737 51.8539 19.8067 50.9289C19.7397 50.0039 20.4368 49.2062 21.3617 49.1392C22.2867 49.0722 23.0844 49.7693 23.1514 50.6943Z" fill="url(#paint12_radial_204_2070)"/>
<path id="Vector_19" style="mix-blend-mode:screen" fill-rule="evenodd" clip-rule="evenodd" d="M22.756 49.9101C23.1381 50.4329 23.1314 51.0897 22.7426 51.3713C22.3539 51.6528 21.7305 51.4584 21.3552 50.9289C20.9731 50.4061 20.9798 49.7492 21.3686 49.4677C21.7573 49.1862 22.3807 49.3805 22.756 49.9101Z" fill="url(#paint13_radial_204_2070)"/>
<path id="Vector_20" style="mix-blend-mode:screen" fill-rule="evenodd" clip-rule="evenodd" d="M20.9663 51.2104C21.2411 51.5925 21.2813 52.0281 21.0601 52.1957C20.8389 52.3566 20.4301 52.1823 20.1553 51.8069C19.8804 51.4249 19.8402 50.9892 20.0614 50.8216C20.2826 50.6608 20.6915 50.835 20.9663 51.2104Z" fill="url(#paint14_radial_204_2070)"/>
</g>
<g id="Group_6">
<g id="Vector_21" style="mix-blend-mode:multiply" opacity="0.6">
<path fill-rule="evenodd" clip-rule="evenodd" d="M9.11575 39.2057C9.18277 40.1307 8.48568 40.9284 7.5607 40.9954C6.63572 41.0624 5.83809 40.3653 5.77106 39.4403C5.70403 38.5154 6.40112 37.7177 7.3261 37.6507C8.25109 37.5837 9.04872 38.2808 9.11575 39.2057Z" fill="#7F4A89"/>
</g>
<path id="Vector_22" fill-rule="evenodd" clip-rule="evenodd" d="M9.07571 38.6359C9.14273 39.5609 8.44565 40.3585 7.52066 40.4256C6.59568 40.4926 5.79805 39.7955 5.73102 38.8705C5.66399 37.9455 6.36108 37.1479 7.28606 37.0809C8.21105 37.0138 9.00868 37.7109 9.07571 38.6359Z" fill="url(#paint15_radial_204_2070)"/>
<path id="Vector_23" style="mix-blend-mode:screen" fill-rule="evenodd" clip-rule="evenodd" d="M8.68036 37.8449C9.06241 38.3677 9.05571 39.0246 8.66695 39.3061C8.27819 39.5876 7.65483 39.3932 7.27947 38.8637C6.89742 38.3409 6.90412 37.684 7.29288 37.4025C7.68164 37.121 8.305 37.3153 8.68036 37.8449Z" fill="url(#paint16_radial_204_2070)"/>
<path id="Vector_24" style="mix-blend-mode:screen" fill-rule="evenodd" clip-rule="evenodd" d="M6.89061 39.1452C7.16542 39.5273 7.20564 39.9629 6.98445 40.1305C6.76326 40.2914 6.35439 40.1171 6.07957 39.7418C5.80476 39.3664 5.76454 38.924 5.98573 38.7564C6.20692 38.5956 6.61579 38.7699 6.89061 39.1452Z" fill="url(#paint17_radial_204_2070)"/>
</g>
<g id="Group_7">
<g id="Vector_25" style="mix-blend-mode:multiply" opacity="0.6">
<path fill-rule="evenodd" clip-rule="evenodd" d="M9.63186 51.8068C9.69889 52.7318 9.0018 53.5294 8.07681 53.5965C7.15183 53.6635 6.3542 52.9664 6.28717 52.0414C6.22014 51.1164 6.91723 50.3188 7.84222 50.2518C8.7672 50.1847 9.56483 50.8818 9.63186 51.8068Z" fill="#7F4A89"/>
</g>
<path id="Vector_26" fill-rule="evenodd" clip-rule="evenodd" d="M9.58498 51.2304C9.65201 52.1554 8.95492 52.953 8.02994 53.02C7.10495 53.0871 6.30732 52.39 6.2403 51.465C6.17327 50.54 6.87036 49.7424 7.79534 49.6754C8.72033 49.6083 9.51796 50.3054 9.58498 51.2304Z" fill="url(#paint18_radial_204_2070)"/>
<path id="Vector_27" style="mix-blend-mode:screen" fill-rule="evenodd" clip-rule="evenodd" d="M9.18963 50.4461C9.57169 50.969 9.56499 51.6258 9.17623 51.9074C8.78747 52.1889 8.16411 51.9945 7.78875 51.465C7.40669 50.9421 7.4134 50.2853 7.80216 50.0038C8.19092 49.7222 8.81428 49.9166 9.18963 50.4394V50.4461Z" fill="url(#paint19_radial_204_2070)"/>
<path id="Vector_28" style="mix-blend-mode:screen" fill-rule="evenodd" clip-rule="evenodd" d="M7.39989 51.7465C7.6747 52.1286 7.71492 52.5643 7.49373 52.7318C7.27253 52.8927 6.86366 52.7184 6.58885 52.3431C6.31404 51.961 6.27382 51.5253 6.49501 51.3578C6.7162 51.1969 7.12507 51.3712 7.39989 51.7465Z" fill="url(#paint20_radial_204_2070)"/>
</g>
<g id="Vector_29" style="mix-blend-mode:soft-light">
<path fill-rule="evenodd" clip-rule="evenodd" d="M98.2022 109.632L101.091 108.734L100.91 100.59L98.1084 101.166L98.2022 109.632Z" fill="#BBA6B1"/>
</g>
<g id="Vector_30" style="mix-blend-mode:soft-light">
<path fill-rule="evenodd" clip-rule="evenodd" d="M97.9949 96.7222L100.622 96.5345L100.756 94.3494L97.9346 94.155L97.9949 96.7222Z" fill="#BBA6B1"/>
</g>
<path id="Vector_31" d="M91.1989 91.1506L17.7705 94.6006L17.802 95.2701L91.2304 91.8202L91.1989 91.1506Z" fill="url(#paint21_radial_204_2070)"/>
<path id="Vector_32" d="M91.9871 102.034L18.4966 104.626L18.5202 105.296L92.0107 102.704L91.9871 102.034Z" fill="url(#paint22_radial_204_2070)"/>
<path id="Vector_33" d="M89.616 68.7775L15.9941 73.9644L16.0412 74.633L89.6631 69.4461L89.616 68.7775Z" fill="url(#paint23_radial_204_2070)"/>
<path id="Vector_34" d="M37.1671 72.818L36.4985 72.8652L37.9648 93.6257L38.6334 93.5785L37.1671 72.818Z" fill="url(#paint24_radial_204_2070)"/>
<path id="Vector_35" d="M69.9801 70.4972L69.3115 70.5444L70.8028 91.6592L71.4714 91.612L69.9801 70.4972Z" fill="url(#paint25_radial_204_2070)"/>
<path id="Vector_36" fill-rule="evenodd" clip-rule="evenodd" d="M26.5432 45.2448L27.1063 45.2046L9.99405 31.1221L9.42432 31.1623L26.5432 45.2448Z" fill="#8F7F8E"/>
</g>
</g>
</g>
</g>
<defs>
<radialGradient id="paint0_radial_204_2070" cx="0" cy="0" r="1" gradientUnits="userSpaceOnUse" gradientTransform="translate(49.8067 17.4021) rotate(-23.11) scale(31.6599 28.7818)">
<stop stop-color="#393646"/>
<stop offset="0.53" stop-color="#392E45"/>
<stop offset="1" stop-color="#3A2345"/>
</radialGradient>
<radialGradient id="paint1_radial_204_2070" cx="0" cy="0" r="1" gradientUnits="userSpaceOnUse" gradientTransform="translate(86.5641 58.4677) rotate(-4.04) scale(51.8326 51.8327)">
<stop stop-color="#73616D"/>
<stop offset="0.33" stop-color="#6B5968"/>
<stop offset="0.82" stop-color="#57445D"/>
<stop offset="1" stop-color="#4F3B59"/>
</radialGradient>
<radialGradient id="paint2_radial_204_2070" cx="0" cy="0" r="1" gradientUnits="userSpaceOnUse" gradientTransform="translate(60.7129 51.8873) rotate(-4.04) scale(51.8326 51.8327)">
<stop stop-color="#393646"/>
<stop offset="0.53" stop-color="#392E45"/>
<stop offset="1" stop-color="#3A2345"/>
</radialGradient>
<radialGradient id="paint3_radial_204_2070" cx="0" cy="0" r="1" gradientUnits="userSpaceOnUse" gradientTransform="translate(60.9784 42.2262) rotate(-4.04) scale(28.7818 28.7818)">
<stop stop-color="#393646"/>
<stop offset="0.53" stop-color="#392E45"/>
<stop offset="1" stop-color="#3A2345"/>
</radialGradient>
<radialGradient id="paint4_radial_204_2070" cx="0" cy="0" r="1" gradientUnits="userSpaceOnUse" gradientTransform="translate(14.1819 43.8179) rotate(-4.04) scale(12.876 12.8761)">
<stop stop-color="#73616D"/>
<stop offset="0.33" stop-color="#6B5968"/>
<stop offset="0.82" stop-color="#57445D"/>
<stop offset="1" stop-color="#4F3B59"/>
</radialGradient>
<radialGradient id="paint5_radial_204_2070" cx="0" cy="0" r="1" gradientUnits="userSpaceOnUse" gradientTransform="translate(13.8628 36.8254) rotate(-4.04) scale(15.3561 15.3561)">
<stop stop-color="#393646"/>
<stop offset="0.69" stop-color="#40324B"/>
<stop offset="1" stop-color="#463050"/>
</radialGradient>
<radialGradient id="paint6_radial_204_2070" cx="0" cy="0" r="1" gradientUnits="userSpaceOnUse" gradientTransform="translate(38.3015 45.1805) rotate(-3.4) scale(9.31687 9.31687)">
<stop stop-color="#E1E3E5"/>
<stop offset="1" stop-color="#DFD3D9"/>
</radialGradient>
<radialGradient id="paint7_radial_204_2070" cx="0" cy="0" r="1" gradientUnits="userSpaceOnUse" gradientTransform="translate(61.4059 43.9288) rotate(-3.4) scale(9.72574 9.72574)">
<stop stop-color="#E1E3E5"/>
<stop offset="1" stop-color="#DFD3D9"/>
</radialGradient>
<radialGradient id="paint8_radial_204_2070" cx="0" cy="0" r="1" gradientUnits="userSpaceOnUse" gradientTransform="translate(85.7485 42.6102) rotate(-3.4) scale(10.1681 10.1681)">
<stop stop-color="#E1E3E5"/>
<stop offset="1" stop-color="#DFD3D9"/>
</radialGradient>
<radialGradient id="paint9_radial_204_2070" cx="0" cy="0" r="1" gradientUnits="userSpaceOnUse" gradientTransform="translate(72.7288 9.50408) rotate(159.01) scale(10.3715 9.7614)">
<stop stop-color="#E1E3E5"/>
<stop offset="1" stop-color="#DFD3D9"/>
</radialGradient>
<radialGradient id="paint10_radial_204_2070" cx="0" cy="0" r="1" gradientUnits="userSpaceOnUse" gradientTransform="translate(50.1909 18.5922) rotate(159.01) scale(10.1595 9.56193)">
<stop stop-color="#E1E3E5"/>
<stop offset="1" stop-color="#DFD3D9"/>
</radialGradient>
<radialGradient id="paint11_radial_204_2070" cx="0" cy="0" r="1" gradientUnits="userSpaceOnUse" gradientTransform="translate(27.9276 27.5957) rotate(159.01) scale(10.016 9.4268)">
<stop stop-color="#E1E3E5"/>
<stop offset="1" stop-color="#DFD3D9"/>
</radialGradient>
<radialGradient id="paint12_radial_204_2070" cx="0" cy="0" r="1" gradientUnits="userSpaceOnUse" gradientTransform="translate(21.9902 50.1002) rotate(-4.04001) scale(2.72803 2.72804)">
<stop stop-color="#CFD6D1"/>
<stop offset="0.56" stop-color="#A3A7AE"/>
<stop offset="1" stop-color="#7F7F90"/>
</radialGradient>
<radialGradient id="paint13_radial_204_2070" cx="0" cy="0" r="1" gradientUnits="userSpaceOnUse" gradientTransform="translate(22.1209 50.3748) rotate(-36.03) scale(0.868011 1.17299)">
<stop stop-color="#E6E3E0"/>
<stop offset="0.21" stop-color="#E3E0DD"/>
<stop offset="0.35" stop-color="#DAD7D4"/>
<stop offset="0.47" stop-color="#CBC8C6"/>
<stop offset="0.58" stop-color="#B6B3B1"/>
<stop offset="0.68" stop-color="#9A9896"/>
<stop offset="0.77" stop-color="#787775"/>
<stop offset="0.86" stop-color="#504F4E"/>
<stop offset="0.94" stop-color="#232322"/>
<stop offset="1"/>
</radialGradient>
<radialGradient id="paint14_radial_204_2070" cx="0" cy="0" r="1" gradientUnits="userSpaceOnUse" gradientTransform="translate(20.6839 51.524) rotate(-36.03) scale(0.500966 0.846227)">
<stop stop-color="#E6E3E0"/>
<stop offset="0.21" stop-color="#E3E0DD"/>
<stop offset="0.35" stop-color="#DAD7D4"/>
<stop offset="0.47" stop-color="#CBC8C6"/>
<stop offset="0.58" stop-color="#B6B3B1"/>
<stop offset="0.68" stop-color="#9A9896"/>
<stop offset="0.77" stop-color="#787775"/>
<stop offset="0.86" stop-color="#504F4E"/>
<stop offset="0.94" stop-color="#232322"/>
<stop offset="1"/>
</radialGradient>
<radialGradient id="paint15_radial_204_2070" cx="0" cy="0" r="1" gradientUnits="userSpaceOnUse" gradientTransform="translate(7.9145 38.0384) rotate(-4.04) scale(2.72803 2.72804)">
<stop stop-color="#CFD6D1"/>
<stop offset="0.56" stop-color="#A3A7AE"/>
<stop offset="1" stop-color="#7F7F90"/>
</radialGradient>
<radialGradient id="paint16_radial_204_2070" cx="0" cy="0" r="1" gradientUnits="userSpaceOnUse" gradientTransform="translate(8.03772 38.3144) rotate(-36.03) scale(0.868011 1.17299)">
<stop stop-color="#E6E3E0"/>
<stop offset="0.21" stop-color="#E3E0DD"/>
<stop offset="0.35" stop-color="#DAD7D4"/>
<stop offset="0.47" stop-color="#CBC8C6"/>
<stop offset="0.58" stop-color="#B6B3B1"/>
<stop offset="0.68" stop-color="#9A9896"/>
<stop offset="0.77" stop-color="#787775"/>
<stop offset="0.86" stop-color="#504F4E"/>
<stop offset="0.94" stop-color="#232322"/>
<stop offset="1"/>
</radialGradient>
<radialGradient id="paint17_radial_204_2070" cx="0" cy="0" r="1" gradientUnits="userSpaceOnUse" gradientTransform="translate(6.59968 39.4622) rotate(-36.03) scale(0.500966 0.846227)">
<stop stop-color="#E6E3E0"/>
<stop offset="0.21" stop-color="#E3E0DD"/>
<stop offset="0.35" stop-color="#DAD7D4"/>
<stop offset="0.47" stop-color="#CBC8C6"/>
<stop offset="0.58" stop-color="#B6B3B1"/>
<stop offset="0.68" stop-color="#9A9896"/>
<stop offset="0.77" stop-color="#787775"/>
<stop offset="0.86" stop-color="#504F4E"/>
<stop offset="0.94" stop-color="#232322"/>
<stop offset="1"/>
</radialGradient>
<radialGradient id="paint18_radial_204_2070" cx="0" cy="0" r="1" gradientUnits="userSpaceOnUse" gradientTransform="translate(8.42774 50.6347) rotate(-4.04) scale(2.72803)">
<stop stop-color="#CFD6D1"/>
<stop offset="0.56" stop-color="#A3A7AE"/>
<stop offset="1" stop-color="#7F7F90"/>
</radialGradient>
<radialGradient id="paint19_radial_204_2070" cx="0" cy="0" r="1" gradientUnits="userSpaceOnUse" gradientTransform="translate(8.53992 50.9201) rotate(-36.03) scale(0.868011 1.17299)">
<stop stop-color="#E6E3E0"/>
<stop offset="0.21" stop-color="#E3E0DD"/>
<stop offset="0.35" stop-color="#DAD7D4"/>
<stop offset="0.47" stop-color="#CBC8C6"/>
<stop offset="0.58" stop-color="#B6B3B1"/>
<stop offset="0.68" stop-color="#9A9896"/>
<stop offset="0.77" stop-color="#787775"/>
<stop offset="0.86" stop-color="#504F4E"/>
<stop offset="0.94" stop-color="#232322"/>
<stop offset="1"/>
</radialGradient>
<radialGradient id="paint20_radial_204_2070" cx="0" cy="0" r="1" gradientUnits="userSpaceOnUse" gradientTransform="translate(7.10681 52.0748) rotate(-36.03) scale(0.500966 0.846226)">
<stop stop-color="#E6E3E0"/>
<stop offset="0.21" stop-color="#E3E0DD"/>
<stop offset="0.35" stop-color="#DAD7D4"/>
<stop offset="0.47" stop-color="#CBC8C6"/>
<stop offset="0.58" stop-color="#B6B3B1"/>
<stop offset="0.68" stop-color="#9A9896"/>
<stop offset="0.77" stop-color="#787775"/>
<stop offset="0.86" stop-color="#504F4E"/>
<stop offset="0.94" stop-color="#232322"/>
<stop offset="1"/>
</radialGradient>
<radialGradient id="paint21_radial_204_2070" cx="0" cy="0" r="1" gradientUnits="userSpaceOnUse" gradientTransform="translate(54.5033 93.2168) rotate(-4.04) scale(26.0001 26.0001)">
<stop stop-color="#D6D9DC"/>
<stop offset="1" stop-color="#D3C2CB"/>
</radialGradient>
<radialGradient id="paint22_radial_204_2070" cx="0" cy="0" r="1" gradientUnits="userSpaceOnUse" gradientTransform="translate(55.2587 103.665) rotate(-4.05) scale(26.0202 26.0202)">
<stop stop-color="#D6D9DC"/>
<stop offset="1" stop-color="#D3C2CB"/>
</radialGradient>
<radialGradient id="paint23_radial_204_2070" cx="0" cy="0" r="1" gradientUnits="userSpaceOnUse" gradientTransform="translate(52.8181 71.5695) rotate(-4.04) scale(26.0939 31.3127)">
<stop stop-color="#D6D9DC"/>
<stop offset="1" stop-color="#D3C2CB"/>
</radialGradient>
<radialGradient id="paint24_radial_204_2070" cx="0" cy="0" r="1" gradientUnits="userSpaceOnUse" gradientTransform="translate(37.5551 83.0674) rotate(-4.04) scale(6.12634 7.35162)">
<stop stop-color="#D6D9DC"/>
<stop offset="1" stop-color="#D3C2CB"/>
</radialGradient>
<radialGradient id="paint25_radial_204_2070" cx="0" cy="0" r="1" gradientUnits="userSpaceOnUse" gradientTransform="translate(70.3805 80.9231) rotate(-4.04) scale(6.23359 7.48031)">
<stop stop-color="#D6D9DC"/>
<stop offset="1" stop-color="#D3C2CB"/>
</radialGradient>
<clipPath id="clip0_204_2070">
<rect width="101.326" height="120" fill="white" transform="translate(0 0.027832)"/>
</clipPath>
</defs>
</svg>
