<svg width="120" height="99" viewBox="0 0 120 99" fill="none" xmlns="http://www.w3.org/2000/svg">
<g id="Frame" clip-path="url(#clip0_204_1921)">
<g id="Contract">
<g id="Group">
<g id="Vector">
<path d="M98.5598 75.7788C100.446 76.1299 102.504 74.9235 103.682 72.9799C104.563 71.5214 104.876 70.0788 105.236 68.4288C105.629 66.6225 119.643 1.46501 119.786 0.817139H48.8013L34.3502 67.9693L33.763 70.6788C33.6417 71.2374 33.4247 71.7735 33.1279 72.265L32.697 72.9767C31.7555 74.5278 30.1789 75.2873 28.6087 75.2873C26.8343 75.2873 25.0694 74.3235 24.2332 72.4565C22.9758 69.6512 20.2598 68.0203 17.4321 67.9693C17.3875 67.9693 17.3428 67.9693 17.2981 67.9693C17.2534 67.9693 17.2119 67.9693 17.1672 67.9693C15.83 67.9884 14.4704 68.3714 13.2417 69.1501C11.5789 70.2065 10.3917 71.8661 9.92895 73.781L4.06299 98.1161H75.0481L80.4353 75.7788" fill="white"/>
<path d="M98.5598 75.7788C100.446 76.1299 102.504 74.9235 103.682 72.9799C104.563 71.5214 104.876 70.0788 105.236 68.4288C105.629 66.6225 119.643 1.46501 119.786 0.817139H48.8013L34.3502 67.9693L33.763 70.6788C33.6417 71.2373 33.4247 71.7735 33.1279 72.265L32.697 72.9767C31.7555 74.5278 30.1789 75.2873 28.6087 75.2873C26.8343 75.2873 25.0694 74.3235 24.2332 72.4565C22.9758 69.6512 20.2598 68.0203 17.4321 67.9693C17.3875 67.9693 17.3428 67.9693 17.2981 67.9693C17.2534 67.9693 17.2119 67.9693 17.1672 67.9693C15.83 67.9884 14.4704 68.3714 13.2417 69.1501C11.5789 70.2065 10.3917 71.8661 9.92895 73.781L4.06299 98.1161H75.0481L80.4353 75.7788" stroke="#263238" stroke-width="0.319149" stroke-linecap="round" stroke-linejoin="round"/>
</g>
<g id="Group_2">
<path id="Vector_2" d="M71.2659 8.39699L71.1637 8.93316H70.5318L70.6403 8.36188C70.7425 7.82571 70.5925 7.50018 70.1074 7.50018C69.6223 7.50018 69.3446 7.82571 69.2425 8.36188L68.6329 11.5151C68.5308 12.0512 68.6872 12.3768 69.1659 12.3768C69.6446 12.3768 69.9286 12.0512 70.0308 11.5151L70.1808 10.7395H70.8127L70.6691 11.48C70.4935 12.3832 69.9542 12.98 69.0318 12.98C68.1095 12.98 67.8095 12.3832 67.9818 11.48L68.5755 8.3938C68.751 7.49061 69.2903 6.8938 70.2031 6.8938C71.1159 6.8938 71.435 7.49061 71.2595 8.3938L71.2659 8.39699Z" fill="#263238"/>
<path id="Vector_3" d="M71.818 8.39697C71.9936 7.48421 72.5585 6.89697 73.4712 6.89697C74.384 6.89697 74.7319 7.48421 74.5563 8.39697L73.9627 11.4831C73.7872 12.3863 73.2223 12.9831 72.2999 12.9831C71.3776 12.9831 71.0521 12.3863 71.2244 11.4831L71.818 8.39697ZM71.8723 11.5182C71.767 12.064 71.9361 12.38 72.4148 12.38C72.8936 12.38 73.184 12.064 73.2893 11.5182L73.8989 8.36506C74.001 7.82889 73.8446 7.50336 73.3563 7.50336C72.868 7.50336 72.5872 7.82889 72.4819 8.36506L71.8723 11.5182Z" fill="#263238"/>
<path id="Vector_4" d="M74.901 12.9224H74.3042L75.4531 6.95435H76.2989L76.8478 11.2692L77.6808 6.95435H78.268L77.1191 12.9224H76.4297L75.8329 8.0969L74.9042 12.9224H74.901Z" fill="#263238"/>
<path id="Vector_5" d="M78.6637 12.9224L79.6977 7.56073H78.5967L78.7148 6.95435H81.5711L81.4563 7.56073H80.3552L79.3211 12.9224H78.6637Z" fill="#263238"/>
<path id="Vector_6" d="M83.3519 6.95436C84.2902 6.95436 84.5902 7.43309 84.4178 8.31713L84.3253 8.80224C84.1976 9.45968 83.8912 9.86819 83.3455 10.031C83.8593 10.1937 83.9806 10.6373 83.8561 11.2756L83.6774 12.2044C83.6263 12.4693 83.588 12.715 83.6582 12.9193H82.9848C82.9402 12.7501 82.937 12.5969 83.0136 12.1948L83.1955 11.2565C83.3263 10.5831 83.0519 10.3693 82.4965 10.3693H82.0274L81.5359 12.9193H80.8721L82.021 6.95117H83.3519V6.95436ZM82.6402 9.76926C83.1699 9.76926 83.5178 9.60011 83.6423 8.95224L83.7508 8.38096C83.8529 7.84479 83.7125 7.56394 83.2178 7.56394H82.5699L82.1455 9.77245H82.6402V9.76926Z" fill="#263238"/>
<path id="Vector_7" d="M85.1361 11.7224L84.6733 12.9256H84.0605L86.352 6.95752H87.3159L87.3095 12.9256H86.6456V11.7224H85.1393H85.1361ZM85.3308 11.1511H86.6616L86.652 7.70752L85.3308 11.1511Z" fill="#263238"/>
<path id="Vector_8" d="M91.3274 8.39699L91.2253 8.93316H90.5934L90.7019 8.36188C90.804 7.82571 90.654 7.50018 90.1689 7.50018C89.6838 7.50018 89.4061 7.82571 89.304 8.36188L88.6944 11.5151C88.5923 12.0512 88.7487 12.3768 89.2274 12.3768C89.7061 12.3768 89.9902 12.0512 90.0923 11.5151L90.2423 10.7395H90.8742L90.7306 11.48C90.5551 12.3832 90.0157 12.98 89.0934 12.98C88.171 12.98 87.871 12.3832 88.0434 11.48L88.637 8.3938C88.8125 7.49061 89.3519 6.8938 90.2646 6.8938C91.1774 6.8938 91.4966 7.49061 91.321 8.3938L91.3274 8.39699Z" fill="#263238"/>
<path id="Vector_9" d="M91.921 12.9224L92.9551 7.56073H91.854L91.9689 6.95435H94.8253L94.7072 7.56073H93.6061L92.5721 12.9224H91.9146H91.921Z" fill="#263238"/>
</g>
<path id="Vector_10" d="M50.6299 15.8362H113.241" stroke="#263238" stroke-width="0.319149" stroke-miterlimit="10"/>
<g id="Group_3">
<g id="Group_4">
<g id="Group_5">
<path id="Vector_11" d="M96.5874 22.7778H111.236" stroke="#263238" stroke-width="0.319149" stroke-miterlimit="10"/>
<path id="Vector_12" d="M73.6084 22.7778H95.0424" stroke="#263238" stroke-width="0.319149" stroke-miterlimit="10"/>
<path id="Vector_13" d="M59.2661 22.7778H72.3736" stroke="#263238" stroke-width="0.319149" stroke-miterlimit="10"/>
<path id="Vector_14" d="M48.6255 22.7778H58.0308" stroke="#263238" stroke-width="0.319149" stroke-miterlimit="10"/>
<path id="Vector_15" d="M94.7363 26.3235H110.467" stroke="#263238" stroke-width="0.319149" stroke-miterlimit="10"/>
<path id="Vector_16" d="M59.1128 26.3237H93.1947" stroke="#263238" stroke-width="0.319149" stroke-miterlimit="10"/>
<path id="Vector_17" d="M47.853 26.3237H57.7243" stroke="#263238" stroke-width="0.319149" stroke-miterlimit="10"/>
<path id="Vector_18" d="M91.4966 29.8726H109.694" stroke="#263238" stroke-width="0.319149" stroke-miterlimit="10"/>
<path id="Vector_19" d="M64.1997 29.8726H90.2646" stroke="#263238" stroke-width="0.319149" stroke-miterlimit="10"/>
<path id="Vector_20" d="M47.0811 29.8726H62.9683" stroke="#263238" stroke-width="0.319149" stroke-miterlimit="10"/>
<path id="Vector_21" d="M97.5127 33.4182H108.922" stroke="#263238" stroke-width="0.319149" stroke-miterlimit="10"/>
<path id="Vector_22" d="M80.084 33.4182H95.968" stroke="#263238" stroke-width="0.319149" stroke-miterlimit="10"/>
<path id="Vector_23" d="M63.2744 33.4182H78.5425" stroke="#263238" stroke-width="0.319149" stroke-miterlimit="10"/>
<path id="Vector_24" d="M50.6299 33.4182H61.8863" stroke="#263238" stroke-width="0.319149" stroke-miterlimit="10"/>
<path id="Vector_25" d="M46.3115 33.4182H49.2413" stroke="#263238" stroke-width="0.319149" stroke-miterlimit="10"/>
<path id="Vector_26" d="M105.53 36.9673H108.153" stroke="#263238" stroke-width="0.319149" stroke-miterlimit="10"/>
<path id="Vector_27" d="M79.4683 36.9673H103.526" stroke="#263238" stroke-width="0.319149" stroke-miterlimit="10"/>
<path id="Vector_28" d="M61.1172 36.9673H77.9268" stroke="#263238" stroke-width="0.319149" stroke-miterlimit="10"/>
<path id="Vector_29" d="M45.5391 36.9673H59.4188" stroke="#263238" stroke-width="0.319149" stroke-miterlimit="10"/>
<path id="Vector_30" d="M102.137 40.5129H107.381" stroke="#263238" stroke-width="0.319149" stroke-miterlimit="10"/>
<path id="Vector_31" d="M86.8691 40.5129H100.749" stroke="#263238" stroke-width="0.319149" stroke-miterlimit="10"/>
<path id="Vector_32" d="M82.2446 40.5129H85.3276" stroke="#263238" stroke-width="0.319149" stroke-miterlimit="10"/>
<path id="Vector_33" d="M60.0352 40.5129H81.4724" stroke="#263238" stroke-width="0.319149" stroke-miterlimit="10"/>
<path id="Vector_34" d="M44.77 40.5129H58.803" stroke="#263238" stroke-width="0.319149" stroke-miterlimit="10"/>
<path id="Vector_35" d="M43.998 44.0586H106.612" stroke="#263238" stroke-width="0.319149" stroke-miterlimit="10"/>
<path id="Vector_36" d="M102.6 47.6077H105.839" stroke="#263238" stroke-width="0.319149" stroke-miterlimit="10"/>
<path id="Vector_37" d="M88.4141 47.6077H100.596" stroke="#263238" stroke-width="0.319149" stroke-miterlimit="10"/>
<path id="Vector_38" d="M68.0552 47.6077H86.253" stroke="#263238" stroke-width="0.319149" stroke-miterlimit="10"/>
<path id="Vector_39" d="M63.584 47.6077H66.667" stroke="#263238" stroke-width="0.319149" stroke-miterlimit="10"/>
<path id="Vector_40" d="M49.3945 47.6077H61.886" stroke="#263238" stroke-width="0.319149" stroke-miterlimit="10"/>
<path id="Vector_41" d="M43.2256 47.6077H47.5437" stroke="#263238" stroke-width="0.319149" stroke-miterlimit="10"/>
<path id="Vector_42" d="M89.3394 51.1533H105.067" stroke="#263238" stroke-width="0.319149" stroke-miterlimit="10"/>
<path id="Vector_43" d="M72.6831 51.1533H87.332" stroke="#263238" stroke-width="0.319149" stroke-miterlimit="10"/>
<path id="Vector_44" d="M59.8818 51.1533H71.1414" stroke="#263238" stroke-width="0.319149" stroke-miterlimit="10"/>
<path id="Vector_45" d="M42.4565 51.1533H58.3406" stroke="#263238" stroke-width="0.319149" stroke-miterlimit="10"/>
<path id="Vector_46" d="M99.3638 54.7024H104.298" stroke="#263238" stroke-width="0.319149" stroke-miterlimit="10"/>
<path id="Vector_47" d="M83.0137 54.7024H97.6658" stroke="#263238" stroke-width="0.319149" stroke-miterlimit="10"/>
<path id="Vector_48" d="M72.5298 54.7024H81.9351" stroke="#263238" stroke-width="0.319149" stroke-miterlimit="10"/>
<path id="Vector_49" d="M64.0469 54.7024H70.9852" stroke="#263238" stroke-width="0.319149" stroke-miterlimit="10"/>
<path id="Vector_50" d="M56.0269 54.7024H62.812" stroke="#263238" stroke-width="0.319149" stroke-miterlimit="10"/>
<path id="Vector_51" d="M45.8486 54.7024H54.3316" stroke="#263238" stroke-width="0.319149" stroke-miterlimit="10"/>
<path id="Vector_52" d="M41.6841 54.7024H44.4607" stroke="#263238" stroke-width="0.319149" stroke-miterlimit="10"/>
<path id="Vector_53" d="M95.1987 58.248H103.525" stroke="#263238" stroke-width="0.319149" stroke-miterlimit="10"/>
<path id="Vector_54" d="M80.5469 58.248H93.3479" stroke="#263238" stroke-width="0.319149" stroke-miterlimit="10"/>
<path id="Vector_55" d="M66.8232 58.248H78.6956" stroke="#263238" stroke-width="0.319149" stroke-miterlimit="10"/>
<path id="Vector_56" d="M50.7832 58.248H64.9726" stroke="#263238" stroke-width="0.319149" stroke-miterlimit="10"/>
<path id="Vector_57" d="M40.915 58.248H49.2416" stroke="#263238" stroke-width="0.319149" stroke-miterlimit="10"/>
<path id="Vector_58" d="M94.7363 61.7937H102.757" stroke="#263238" stroke-width="0.319149" stroke-miterlimit="10"/>
<path id="Vector_59" d="M80.8564 61.7937H93.1947" stroke="#263238" stroke-width="0.319149" stroke-miterlimit="10"/>
<path id="Vector_60" d="M66.5137 61.7937H78.6956" stroke="#263238" stroke-width="0.319149" stroke-miterlimit="10"/>
<path id="Vector_61" d="M56.6426 61.7937H65.1256" stroke="#263238" stroke-width="0.319149" stroke-miterlimit="10"/>
<path id="Vector_62" d="M46.4648 61.7937H55.101" stroke="#263238" stroke-width="0.319149" stroke-miterlimit="10"/>
<path id="Vector_63" d="M40.1426 61.7937H45.5394" stroke="#263238" stroke-width="0.319149" stroke-miterlimit="10"/>
</g>
<path id="Vector_64" d="M97.3564 65.3428H101.984" stroke="#263238" stroke-width="0.319149" stroke-miterlimit="10"/>
</g>
<path id="Vector_65" d="M81.6284 65.3428H95.8146" stroke="#263238" stroke-width="0.319149" stroke-miterlimit="10"/>
<path id="Vector_66" d="M69.1338 65.3428H79.7774" stroke="#263238" stroke-width="0.319149" stroke-miterlimit="10"/>
<path id="Vector_67" d="M60.9604 65.3428H67.4392" stroke="#263238" stroke-width="0.319149" stroke-miterlimit="10"/>
<path id="Vector_68" d="M47.853 65.3428H58.6498" stroke="#263238" stroke-width="0.319149" stroke-miterlimit="10"/>
<path id="Vector_69" d="M39.3701 65.3428H46.7744" stroke="#263238" stroke-width="0.319149" stroke-miterlimit="10"/>
</g>
<path id="Vector_70" d="M87.6543 67.9693V67.9916C86.4766 68.0905 85.3021 68.4639 84.2234 69.1469C83.3904 69.6735 82.6787 70.3565 82.117 71.1384C81.5553 71.9267 81.1436 72.8203 80.9106 73.7778L75.0447 98.1129H4.05957L9.92553 73.7778C10.3883 71.8629 11.5755 70.2033 13.2383 69.1469C14.467 68.3682 15.8234 67.9884 17.1638 67.9661H87.6543V67.9693Z" fill="white" stroke="#263238" stroke-width="0.319149" stroke-linecap="round" stroke-linejoin="round"/>
<path id="Vector_71" d="M98.5596 75.7788H80.4287L80.9106 73.7809C81.1404 72.8235 81.5521 71.9299 82.117 71.1416C82.6787 70.3565 83.3904 69.6767 84.2234 69.1501C85.3021 68.4671 86.4766 68.0905 87.6542 67.9948C87.8617 67.9788 88.0691 67.9692 88.2766 67.9692C91.1553 67.9692 94.1011 69.5394 95.2149 72.4597C96.0032 74.5214 97.2351 75.5331 98.5596 75.782V75.7788Z" fill="#263238" stroke="#263238" stroke-width="0.319149" stroke-linecap="round" stroke-linejoin="round"/>
<g id="Group_6">
<path id="Vector_72" d="M76.3596 73.698C76.3596 73.931 75.7852 74.1097 75.7405 74.3331C75.699 74.5597 76.1681 74.9363 76.0852 75.1502C76.0022 75.364 75.4022 75.3257 75.2809 75.5236C75.1628 75.7182 75.482 76.2289 75.332 76.4076C75.1852 76.5831 74.6235 76.3629 74.4511 76.5193C74.282 76.6725 74.4511 77.2502 74.2564 77.3842C74.0713 77.515 73.583 77.1608 73.3756 77.2693C73.1745 77.3778 73.2032 77.981 72.9862 78.0672C72.7756 78.1533 72.3735 77.7002 72.1501 77.7672C71.933 77.831 71.8373 78.4278 71.6075 78.4693C71.3841 78.5108 71.0777 77.9906 70.8447 78.0129C70.6181 78.0321 70.4139 78.6002 70.1809 78.6002C69.9479 78.6002 69.7437 78.0321 69.5171 78.0129C69.2841 77.9906 68.9777 78.5108 68.7543 78.4693C68.5245 78.4278 68.4288 77.831 68.2118 77.7672C67.9883 77.7033 67.5862 78.1533 67.3756 78.0672C67.1586 77.9778 67.1873 77.3778 66.9862 77.2693C66.7788 77.1576 66.2905 77.5119 66.1054 77.3842C65.9139 77.2502 66.0798 76.6693 65.9107 76.5193C65.7384 76.3629 65.1766 76.5831 65.0298 76.4076C64.8798 76.2289 65.199 75.7182 65.0841 75.5236C64.966 75.3257 64.3628 75.3608 64.2798 75.1502C64.1969 74.9363 64.666 74.5597 64.6245 74.3331C64.583 74.1097 64.0054 73.931 64.0054 73.698C64.0054 73.465 64.5798 73.2863 64.6245 73.0629C64.666 72.8363 64.1969 72.4597 64.2798 72.2459C64.3628 72.0321 64.9628 72.0704 65.0841 71.8725C65.2022 71.6778 64.883 71.1672 65.033 70.9885C65.1798 70.8129 65.7415 71.0331 65.9139 70.8768C66.083 70.7236 65.9139 70.1459 66.1086 70.0119C66.2937 69.881 66.782 70.2353 66.9894 70.1267C67.1905 70.0182 67.1618 69.415 67.3788 69.3289C67.5894 69.2427 67.9915 69.6959 68.2149 69.6289C68.432 69.565 68.5277 68.9682 68.7575 68.9268C68.9809 68.8853 69.2873 69.4055 69.5203 69.3831C69.7469 69.3608 69.9511 68.7959 70.1841 68.7959C70.4171 68.7959 70.6213 69.364 70.8479 69.3831C71.0809 69.4055 71.3873 68.8853 71.6107 68.9268C71.8405 68.9682 71.9362 69.565 72.1532 69.6289C72.3766 69.6927 72.7788 69.2427 72.9894 69.3289C73.2064 69.4182 73.1777 70.0182 73.3788 70.1267C73.5862 70.2385 74.0745 69.8842 74.2596 70.0119C74.4511 70.1459 74.2852 70.7268 74.4543 70.8768C74.6266 71.0331 75.1883 70.8129 75.3352 70.9885C75.4852 71.1672 75.166 71.6778 75.2809 71.8725C75.399 72.0704 76.0022 72.0353 76.0852 72.2459C76.1681 72.4597 75.699 72.8363 75.7405 73.0629C75.782 73.2863 76.3596 73.465 76.3596 73.698Z" fill="#F30FAF"/>
<path id="Vector_73" d="M70.1839 77.3747C72.7732 77.3747 74.8722 75.7286 74.8722 73.6981C74.8722 71.6676 72.7732 70.0215 70.1839 70.0215C67.5946 70.0215 65.4956 71.6676 65.4956 73.6981C65.4956 75.7286 67.5946 77.3747 70.1839 77.3747Z" fill="white"/>
<path id="Vector_74" d="M70.1843 76.6758C72.2801 76.6758 73.979 75.3426 73.979 73.6981C73.979 72.0536 72.2801 70.7205 70.1843 70.7205C68.0886 70.7205 66.3896 72.0536 66.3896 73.6981C66.3896 75.3426 68.0886 76.6758 70.1843 76.6758Z" fill="#F30FAF"/>
</g>
<path id="Vector_75" d="M72.8554 91.615H42.0352" stroke="#263238" stroke-width="0.319149" stroke-linecap="round" stroke-linejoin="round"/>
<path id="Vector_76" d="M32.2309 91.615H10.1426" stroke="#263238" stroke-width="0.319149" stroke-linecap="round" stroke-linejoin="round"/>
<path id="Vector_77" d="M48.7212 90.9607C48.7212 90.9607 54.5393 84.5203 56.1957 78.1979C57.852 71.8788 53.7765 75.3032 52.1457 82.3149C50.5148 89.3266 50.5148 91.1203 52.1457 89.8181C53.4159 88.8032 54.6861 87.1947 55.4935 85.9149C55.7233 85.5511 55.9148 85.2128 56.0616 84.9256C56.7127 83.6203 54.5935 84.4373 54.1052 87.0447C53.6169 89.6554 56.5499 85.9022 57.3669 84.6C58.184 83.2979 59.8116 82.6437 58.5095 86.0681C57.2074 89.4926 55.2478 88.8415 57.0414 86.5564C58.835 84.2745 60.7914 79.5447 60.9542 82.1522C61.1169 84.7628 60.4659 87.6958 59.1606 88.5128C57.8552 89.3298 61.6052 84.7628 62.7478 85.0883C63.8903 85.4139 64.3786 86.7192 63.2361 87.699C62.0935 88.6788 62.0935 85.4171 70.7393 85.7426" stroke="#263238" stroke-width="0.319149" stroke-linecap="round" stroke-linejoin="round"/>
</g>
</g>
<g id="Character">
<g id="Group_7">
<g id="Group_8">
<path id="Vector_78" d="M69.3191 81.9639L74.0999 85.8064C74.3488 86.0075 74.1478 86.4064 73.8382 86.3266L67.7808 84.7532L69.3191 81.9671V81.9639Z" fill="white" stroke="#263238" stroke-width="0.319149" stroke-linecap="round" stroke-linejoin="round"/>
<g id="Group_9">
<path id="Vector_79" d="M68.5437 80.4735L40.5735 63.9128L37.4458 69.2299L66.4054 84.9192C66.4788 84.9671 66.5554 85.0086 66.6352 85.0437C67.5958 85.4458 68.8022 84.7469 69.3288 83.4862C69.8554 82.2256 69.5043 80.8756 68.5437 80.4735Z" fill="#FFA5C0" stroke="#263238" stroke-width="0.319149" stroke-linecap="round" stroke-linejoin="round"/>
<path id="Vector_80" d="M41.3106 67.3053C40.4936 69.2617 38.6234 70.3436 37.1329 69.7212C36.9893 69.6606 36.8521 69.584 36.7276 69.4978L8.05846 53.5212L5.7191 52.2191L5.43506 52.0595L5.50846 51.8872L8.7957 44.017L8.93612 43.6819L9.31272 43.9085L12.5872 45.9032L40.0914 62.6361C41.5819 63.2585 42.1308 65.3489 41.3106 67.3085V67.3053Z" fill="white" stroke="#263238" stroke-width="0.319149" stroke-linecap="round" stroke-linejoin="round"/>
<path id="Vector_81" d="M39.817 62.467L12.5872 45.9032L9.31272 43.9085L8.93612 43.6819L8.7957 44.017L5.50846 51.8872L5.43506 52.0595L5.7191 52.2191L8.05846 53.5212L36.0702 69.1308C37.5606 69.5744 39.3382 68.4766 40.1329 66.5617C40.7712 65.0361 40.6021 63.434 39.817 62.467Z" fill="#FFA5C0" stroke="#263238" stroke-width="0.319149" stroke-linecap="round" stroke-linejoin="round"/>
<g id="Vector_82">
<path d="M8.05848 53.5212C9.75635 53.5946 11.5755 52.2701 12.4564 50.1638C13.0851 48.6574 13.0947 47.0967 12.5904 45.9031L9.31593 43.9084C9.14359 43.9308 8.97125 43.9659 8.79572 44.0138C7.44572 44.3936 6.15636 45.5712 5.46061 47.2404C4.76167 48.9127 4.83189 50.6584 5.50848 51.884C5.5755 51.9989 5.64253 52.1106 5.72231 52.2159" fill="white"/>
<path d="M8.05848 53.5212C9.75635 53.5946 11.5755 52.2701 12.4564 50.1638C13.0851 48.6574 13.0947 47.0967 12.5904 45.9031L9.31593 43.9084C9.14359 43.9308 8.97125 43.9659 8.79572 44.0138C7.44572 44.3936 6.15636 45.5712 5.46061 47.2404C4.76167 48.9127 4.83189 50.6584 5.50848 51.884C5.5755 51.9989 5.64253 52.1106 5.72231 52.2159" stroke="#263238" stroke-width="0.319149" stroke-linecap="round" stroke-linejoin="round"/>
</g>
<path id="Vector_83" d="M10.6084 48.699L31.8764 62.5405C32.1477 62.716 32.2403 63.0703 32.0903 63.3575C31.9243 63.6766 31.5222 63.7915 31.2126 63.6064L9.33496 50.6745L10.6052 48.699H10.6084Z" fill="white" stroke="#263238" stroke-width="0.319149" stroke-linecap="round" stroke-linejoin="round"/>
<path id="Vector_84" d="M10.3789 49.2032C9.41188 51.517 7.20018 52.7968 5.43528 52.0596C3.67358 51.3224 3.02571 48.849 3.99273 46.5351C4.95975 44.2213 7.17145 42.9415 8.93635 43.6788C10.698 44.416 11.3459 46.8894 10.3789 49.2032Z" fill="#FFA5C0" stroke="#263238" stroke-width="0.319149" stroke-linecap="round" stroke-linejoin="round"/>
<path id="Vector_85" d="M9.68938 48.916C8.92981 50.732 7.19683 51.7341 5.81172 51.1564C4.42981 50.5788 -0.322318 46.0245 0.434065 44.2086C1.19364 42.3926 7.17449 44.0043 8.55641 44.582C9.93832 45.1596 10.4458 47.1 9.68938 48.916Z" fill="white" stroke="#263238" stroke-width="0.319149" stroke-linecap="round" stroke-linejoin="round"/>
</g>
</g>
<path id="Vector_86" d="M54.4725 79.0053L56.1959 78.2011C56.1959 78.2011 56.7704 78.1436 57.2874 78.5458C57.8044 78.9479 58.781 79.5798 58.781 79.5798C58.781 79.5798 60.7342 79.6947 60.7917 79.9819C60.8491 80.2692 59.6427 80.6138 59.4704 80.6138H58.2066C58.2066 80.6138 59.9874 81.533 60.1597 81.6479C60.3321 81.7628 62.8023 82.5096 62.4576 82.7394C62.1129 82.9692 59.8151 82.9117 59.2949 83.0266C58.7778 83.1415 57.7438 83.1415 57.7438 83.1415L55.7906 81.3607L54.4119 79.867C54.4119 79.867 53.9523 79.35 54.4693 79.0053H54.4725Z" fill="white" stroke="#263238" stroke-width="0.319149" stroke-linecap="round" stroke-linejoin="round"/>
</g>
</g>
</g>
<defs>
<clipPath id="clip0_204_1921">
<rect width="120" height="97.6596" fill="white" transform="translate(0 0.657471)"/>
</clipPath>
</defs>
</svg>
