<svg width="120" height="124" viewBox="0 0 120 124" fill="none" xmlns="http://www.w3.org/2000/svg">
<g id="OBJECTS" clip-path="url(#clip0_204_2021)">
<path id="Vector" d="M107.813 91.0527C106.347 93.5881 104.689 95.9928 102.854 98.2527H98.2085C101.673 96.2029 104.89 93.7889 107.813 91.0527Z" fill="url(#paint0_linear_204_2021)"/>
<g id="Group">
<path id="Vector_2" d="M115.335 62.9999C115.335 76.3586 110.661 88.6294 102.854 98.2528H15.7539C9.1282 90.0769 4.75777 80.0006 3.59046 68.9672C3.47373 67.8933 3.38968 66.8053 3.34299 65.7127C3.2963 64.8115 3.27295 63.9104 3.27295 62.9999C3.27295 57.6956 4.01069 52.5594 5.38812 47.6987C5.74766 46.4333 6.14454 45.1913 6.58812 43.968C14.3811 22.3913 35.0379 6.96875 59.3041 6.96875C83.5702 6.96875 104.33 22.4707 112.076 44.1314C112.422 45.0933 112.744 46.0691 113.033 47.059C113.939 50.108 114.588 53.2645 114.962 56.5096C115.074 57.4481 115.158 58.3913 115.214 59.3438C115.298 60.5532 115.335 61.7719 115.335 62.9999Z" fill="url(#paint1_linear_204_2021)"/>
<path id="Vector_3" opacity="0.16" d="M41.7757 98.2527H15.7539C9.1282 90.0768 4.75777 80.0006 3.59046 68.9671C3.47373 67.8932 3.38968 66.8052 3.34299 65.7126C3.2963 64.8115 3.27295 63.9103 3.27295 62.9998C3.27295 57.6955 4.01069 52.5593 5.38812 47.6986C5.74766 46.4333 6.14454 45.1912 6.58812 43.9679C10.1087 34.2232 16.2535 25.7298 24.1679 19.3516C18.1072 28.2325 14.5632 38.9718 14.5632 50.5376C14.5632 70.8442 25.4846 88.6014 41.7757 98.2527Z" fill="#3A0808"/>
<g id="Group_2" opacity="0.34">
<path id="Vector_4" d="M36.9145 44.7618L5.3877 47.6988C5.74723 46.4334 6.14412 45.1914 6.5877 43.968L36.9145 44.7618Z" fill="#FFF18A"/>
<path id="Vector_5" d="M115.214 59.344L91.4004 57.1261L114.961 56.5098C115.074 57.4483 115.158 58.3915 115.214 59.344Z" fill="#FFF18A"/>
<path id="Vector_6" d="M52.0338 66.4317L3.59024 68.9671C3.47351 67.8932 3.38947 66.8053 3.34277 65.7126L52.0338 66.4317Z" fill="#FFF18A"/>
<path id="Vector_7" d="M113.033 47.059L69.1748 44.7617L112.076 44.1313C112.422 45.0932 112.744 46.0691 113.033 47.059Z" fill="#FFF18A"/>
</g>
<path id="Vector_8" opacity="0.58" d="M80.8387 71.7406C84.3432 71.7406 87.1842 68.8996 87.1842 65.3951C87.1842 61.8906 84.3432 59.0496 80.8387 59.0496C77.3342 59.0496 74.4932 61.8906 74.4932 65.3951C74.4932 68.8996 77.3342 71.7406 80.8387 71.7406Z" fill="#FFE357"/>
<path id="Vector_9" opacity="0.25" d="M79.9048 14.4443C79.9048 14.4443 111.674 23.5867 111.674 66.0257C111.674 66.0257 109.601 30.0583 79.9048 14.4443Z" fill="#FFF18A"/>
</g>
<g id="Group_3">
<path id="Vector_10" d="M85.6811 119.031C86.2741 118.844 69.1752 119.031 69.1752 119.031L95.7153 112.508H75.7355L104.848 106.419H81.4414L114.173 101.092H2.66162L35.3931 106.419H11.9861L41.099 112.508H21.1192L47.6593 119.031C47.6593 119.031 30.5278 119.031 31.1535 119.031C31.1535 119.031 57.1892 128.029 85.6811 119.031Z" fill="url(#paint2_linear_204_2021)"/>
<g id="Group_4">
<path id="Vector_11" opacity="0.31" d="M60 104.612C60 104.612 70.1883 104.122 82.5198 104.612C82.5198 104.612 67.8864 105.588 60 104.612Z" fill="#FFF18A"/>
<path id="Vector_12" opacity="0.31" d="M31.5503 103.179C31.5503 103.179 43.7044 102.777 58.4172 103.179C58.4172 103.179 40.9542 103.977 31.5503 103.179Z" fill="#FFF18A"/>
<path id="Vector_13" opacity="0.31" d="M43.2656 120.553C43.2656 120.553 55.4197 120.152 70.1325 120.553C70.1325 120.553 52.6695 121.352 43.2656 120.553Z" fill="#FFF18A"/>
<path id="Vector_14" opacity="0.31" d="M35.7944 108.861C35.7944 108.861 52.8419 108.371 73.4847 108.861C73.4847 108.861 48.9898 109.837 35.7944 108.861Z" fill="#FFF18A"/>
<path id="Vector_15" opacity="0.31" d="M61.6392 114.544C61.6392 114.544 69.1987 114.217 78.3458 114.544C78.3458 114.544 67.4897 115.193 61.6392 114.544Z" fill="#FFF18A"/>
<path id="Vector_16" opacity="0.31" d="M36.4717 114.763C36.4717 114.763 45.3573 114.437 56.1106 114.763C56.1106 114.763 43.3495 115.412 36.4717 114.763Z" fill="#FFF18A"/>
</g>
</g>
<g id="Group_5">
<g id="Group_6">
<path id="Vector_17" d="M0 98.2527C0 98.2527 17.9767 85.1787 40.6226 83.778C63.2685 82.3772 89.6498 98.2527 89.6498 98.2527H0Z" fill="#1B113A"/>
<path id="Vector_18" d="M54.8638 98.2527C54.8638 98.2527 78.2101 86.5796 89.6498 86.5796C101.089 86.5796 120 98.2527 120 98.2527H54.8638Z" fill="#1B113A"/>
</g>
<g id="Group_7">
<g id="Group_8">
<path id="Vector_19" d="M73.8442 22.8396C73.8442 22.8396 74.68 16.1392 80.1477 12.7587C85.6154 9.38281 91.9096 10.6575 95.4816 12.1097L91.5361 13.9867C91.5361 13.9867 89.4396 13.2536 88.1789 13.1929C88.1789 13.1929 89.9859 13.884 90.3874 14.5797C90.3874 14.5797 88.9119 15.4155 87.7633 15.6303C87.7633 15.6303 86.7267 14.4536 85.1905 14.505C85.1905 14.505 86.7874 15.6116 86.9882 16.2233L84.859 17.5493C84.859 17.5493 83.5003 16.6715 81.3618 16.6575C81.3618 16.6575 83.561 17.9229 83.617 18.3244C83.617 18.3244 82.8746 18.712 81.8894 19.4451C81.8894 19.4451 80.7501 18.147 78.4808 18.8894C78.4808 18.8894 80.2738 19.5291 80.638 20.1268C80.638 20.1268 76.2022 21.14 73.8489 22.8303L73.8442 22.8396Z" fill="#1B113A"/>
<path id="Vector_20" d="M73.7371 22.7975C73.7371 22.7975 77.8227 17.4185 76.2725 11.185C74.7223 4.95158 69.3293 1.45898 65.7573 0.00683594L67.2655 4.11112C67.2655 4.11112 69.2733 5.04964 70.2211 5.8901C70.2211 5.8901 68.4468 5.11968 67.6764 5.33913C67.6764 5.33913 68.148 6.9687 68.8204 7.9259C68.8204 7.9259 70.3846 7.8045 71.4445 8.92045C71.4445 8.92045 69.5301 8.59361 68.9558 8.89244L69.5534 11.3298C69.5534 11.3298 71.141 11.652 72.6818 13.1368C72.6818 13.1368 70.2211 12.5064 69.9036 12.7539C69.9036 12.7539 70.1651 13.5524 70.3519 14.7617C70.3519 14.7617 72.0702 14.631 73.1768 16.7461C73.1768 16.7461 71.4492 15.9477 70.7674 16.1251C70.7674 16.1251 73.2328 19.9492 73.7371 22.8068V22.7975Z" fill="#1B113A"/>
<path id="Vector_21" d="M73.793 22.9469C73.793 22.9469 80.3626 21.3734 85.4474 25.3002C90.5323 29.2271 91.5548 35.5726 91.4474 39.4248L88.3004 36.3897C88.3004 36.3897 88.249 34.1718 87.8615 32.9672C87.8615 32.9672 87.8521 34.9049 87.3432 35.5213C87.3432 35.5213 86.0404 34.4333 85.4381 33.4341C85.4381 33.4341 86.1758 32.052 85.5829 30.6325C85.5829 30.6325 85.1113 32.5143 84.607 32.9205L82.6179 31.3936C82.6179 31.3936 82.9634 29.8107 82.2257 27.803C82.2257 27.803 81.8148 30.3057 81.4552 30.5018C81.4552 30.5018 80.8342 29.9415 79.7976 29.2831C79.7976 29.2831 80.6101 27.7609 79.1206 25.8979C79.1206 25.8979 79.1533 27.803 78.719 28.3493C78.719 28.3493 76.2117 24.5532 73.7976 22.9423L73.793 22.9469Z" fill="#1B113A"/>
<path id="Vector_22" d="M74.2039 23.4091C74.2039 23.4091 68.6241 19.6036 62.4747 21.4666C56.3253 23.3297 53.1175 28.8954 51.8428 32.5375L55.863 30.8238C55.863 30.8238 56.6988 28.7694 57.4879 27.7842C57.4879 27.7842 56.8109 29.5958 57.0677 30.3569C57.0677 30.3569 58.6739 29.8013 59.5937 29.0822C59.5937 29.0822 59.393 27.5273 60.4529 26.4114C60.4529 26.4114 60.2241 28.3398 60.5509 28.8954L62.9556 28.1764C62.9556 28.1764 63.1937 26.5748 64.5992 24.9639C64.5992 24.9639 64.0949 27.4526 64.3564 27.7561C64.3564 27.7561 65.1362 27.4526 66.3408 27.2052C66.3408 27.2052 66.1214 25.4962 68.1805 24.2822C68.1805 24.2822 67.4708 26.0519 67.6856 26.7196C67.6856 26.7196 71.379 24.0628 74.2039 23.4184V23.4091Z" fill="#1B113A"/>
<path id="Vector_23" d="M73.8398 22.8347C73.8398 22.8347 78.4531 19.4775 81.7682 18.9406L82.5387 19.8698L82.8422 18.581C82.8422 18.581 84.8266 17.8853 86.5776 17.9087C86.7877 17.9087 87.0258 18.9032 87.1146 19.5336C87.1146 19.5336 87.5535 18.4643 87.5208 17.8013C87.5208 17.8013 93.941 18.2775 100.917 24.0814C100.917 24.0814 95.169 25.1694 92.19 25.0806C92.19 25.0806 92.5076 24.1234 92.4328 23.4511C92.4328 23.4511 91.8072 24.525 91.1021 24.9219C91.1021 24.9219 87.7916 24.5203 87.4601 24.6044C87.4601 24.6044 87.2453 23.5912 87.1146 22.9515C87.1146 22.9515 86.769 24.4176 86.5542 24.7398L84.5932 24.7024C84.5932 24.7024 84.229 23.8666 83.9114 23.4184L83.79 24.9359C83.79 24.9359 81.6982 25.1367 80.6149 25.0806L80.2694 23.5491L79.7418 25.2394C79.7418 25.2394 74.4282 22.8161 73.8445 22.8301L73.8398 22.8347Z" fill="#1B113A"/>
<path id="Vector_24" d="M74.6053 23.5865C74.6053 23.5865 72.9804 18.1141 70.6738 15.6768L69.4971 15.9476L70.0388 14.7429C70.0388 14.7429 68.8855 12.9873 67.48 11.9414C67.3119 11.8153 66.5182 12.4596 66.0699 12.9079C66.0699 12.9079 66.3734 11.7919 66.7983 11.283C66.7983 11.283 61.41 7.75769 52.3423 8.13123C52.3423 8.13123 56.2458 12.4877 58.6645 14.2293C58.6645 14.2293 58.9913 13.2768 59.4629 12.7865C59.4629 12.7865 59.3088 14.0192 59.6263 14.7616C59.6263 14.7616 62.5026 16.4519 62.7127 16.7227C62.7127 16.7227 63.4972 16.0503 63.9921 15.6207C63.9921 15.6207 63.3757 16.9935 63.3477 17.381L64.9259 18.5437C64.9259 18.5437 65.7244 18.1048 66.2473 17.9367L65.4209 19.2161C65.4209 19.2161 66.9571 20.6495 67.8536 21.2612L69.0582 20.2526L68.4512 21.9149C68.4512 21.9149 74.1477 23.2176 74.6007 23.5865H74.6053Z" fill="#1B113A"/>
<path id="Vector_25" d="M74.4889 23.0777C74.4889 23.0777 69.0025 24.6512 66.5418 26.9345L66.8033 28.1158L65.6033 27.5602C65.6033 27.5602 63.8336 28.6995 62.7784 30.0956C62.6523 30.2637 63.2873 31.0621 63.7309 31.515C63.7309 31.515 62.6196 31.2022 62.1154 30.7679C62.1154 30.7679 58.5387 36.1236 58.8282 45.1913C58.8282 45.1913 63.222 41.3298 64.9869 38.9251C64.9869 38.9251 64.0391 38.589 63.5535 38.1127C63.5535 38.1127 64.7815 38.2761 65.5286 37.9679C65.5286 37.9679 67.2469 35.1103 67.5224 34.9002C67.5224 34.9002 66.8593 34.1065 66.4344 33.6115C66.4344 33.6115 67.8025 34.2419 68.1901 34.2699L69.3667 32.701C69.3667 32.701 68.9325 31.8979 68.7737 31.3703L70.0438 32.2061C70.0438 32.2061 71.4912 30.6839 72.1122 29.7921L71.113 28.5781L72.7659 29.2037C72.7659 29.2037 74.1247 23.5212 74.4936 23.073L74.4889 23.0777Z" fill="#1B113A"/>
<path id="Vector_26" d="M74.2319 22.6575C74.2319 22.6575 78.3035 26.659 79.3774 29.8388L78.5836 30.754L79.905 30.8427C79.905 30.8427 80.9136 32.687 81.1798 34.4193C81.2124 34.6295 80.2692 35.0263 79.6622 35.2131C79.6622 35.2131 80.7875 35.4699 81.4366 35.3298C81.4366 35.3298 82.0249 41.7407 77.4397 49.5758C77.4397 49.5758 75.4226 44.0847 75.021 41.1337C75.021 41.1337 76.0155 41.2925 76.6692 41.1057C76.6692 41.1057 75.5113 40.6621 75.0023 40.0365C75.0023 40.0365 74.8576 36.7026 74.7175 36.3898C74.7175 36.3898 75.6794 36.0116 76.291 35.7734C76.291 35.7734 74.7875 35.6754 74.4327 35.5166L74.1478 33.5789C74.1478 33.5789 74.9136 33.0793 75.3012 32.6964L73.7836 32.8271C73.7836 32.8271 73.242 30.796 73.1159 29.7174L74.5728 29.1244L72.8218 28.8816C72.8218 28.8816 74.3393 23.2411 74.2319 22.6668V22.6575Z" fill="#1B113A"/>
</g>
<path id="Vector_27" d="M73.2932 23.0776C73.2932 23.0776 71.659 33.3687 66.2286 43.3469C62.1243 50.8831 54.8777 69.4667 55.6107 87.0745H60.4527C60.4527 87.0745 60.4527 67.1181 65.617 53.4699C69.3384 43.6364 74.073 33.266 74.6753 23.4138L73.2932 23.0776Z" fill="#1B113A"/>
<g id="Group_9">
<path id="Vector_28" d="M37.3634 42.3571C37.3634 42.3571 36.2008 37.6458 32.0171 35.6941C27.8334 33.7423 23.449 35.1805 21.021 36.5205L23.9953 37.5291C23.9953 37.5291 25.4288 36.8287 26.3253 36.6793C26.3253 36.6793 25.0926 37.3237 24.8685 37.8513C24.8685 37.8513 25.9938 38.3229 26.8296 38.3789C26.8296 38.3789 27.4692 37.4497 28.5712 37.361C28.5712 37.361 27.5253 38.2809 27.4319 38.7384L29.0615 39.5042C29.0615 39.5042 29.958 38.7618 31.4848 38.575C31.4848 38.575 30.0233 39.663 30.014 39.9571C30.014 39.9571 30.579 40.1719 31.3401 40.6108C31.3401 40.6108 32.0451 39.5882 33.7261 39.9291C33.7261 39.9291 32.498 40.5361 32.2926 40.9937C32.2926 40.9937 35.5424 41.3439 37.3681 42.3524L37.3634 42.3571Z" fill="#1B113A"/>
<path id="Vector_29" d="M37.4383 42.3197C37.4383 42.3197 34.0717 38.8224 34.6554 34.2465C35.239 29.666 38.7923 26.7244 41.2204 25.3843L40.4873 28.438C40.4873 28.438 39.1332 29.2784 38.5262 29.9555C38.5262 29.9555 39.7309 29.2598 40.2959 29.3485C40.2959 29.3485 40.0951 30.5531 39.6982 31.2909C39.6982 31.2909 38.5729 31.3376 37.9099 32.2201C37.9099 32.2201 39.2453 31.8279 39.6842 31.9913L39.4647 33.7796C39.4647 33.7796 38.3581 34.1438 37.3869 35.3298C37.3869 35.3298 39.0865 34.6714 39.3387 34.8255C39.3387 34.8255 39.2172 35.4138 39.1846 36.2963C39.1846 36.2963 37.9472 36.3477 37.3355 37.9493C37.3355 37.9493 38.5029 37.2349 39.0025 37.3049C39.0025 37.3049 37.5643 40.2419 37.4476 42.3197H37.4383Z" fill="#1B113A"/>
<path id="Vector_30" d="M37.4102 42.4319C37.4102 42.4319 32.5915 41.8622 29.2904 45.0887C25.9939 48.3198 25.7931 52.9284 26.1946 55.6739L28.1884 53.2459C28.1884 53.2459 28.039 51.6583 28.2164 50.7665C28.2164 50.7665 28.3892 52.1486 28.8001 52.5455C28.8001 52.5455 29.6406 51.6583 29.9861 50.8972C29.9861 50.8972 29.3417 49.9727 29.6452 48.9081C29.6452 48.9081 30.1402 50.2108 30.5324 50.4583L31.8258 49.2023C31.8258 49.2023 31.4476 48.105 31.8071 46.6062C31.8071 46.6062 32.3114 48.3572 32.5822 48.4645C32.5822 48.4645 32.9791 48.0116 33.6608 47.456C33.6608 47.456 32.9511 46.4381 33.8616 44.9813C33.8616 44.9813 33.997 46.3447 34.3518 46.6996C34.3518 46.6996 35.8227 43.7813 37.4102 42.4272V42.4319Z" fill="#1B113A"/>
<path id="Vector_31" d="M37.1577 42.7959C37.1577 42.7959 40.8184 39.6115 45.3663 40.4239C49.9095 41.2364 52.669 44.9391 53.883 47.4325L50.8713 46.5453C50.8713 46.5453 50.1009 45.1492 49.4565 44.5095C49.4565 44.5095 50.0916 45.7469 49.9748 46.3072C49.9748 46.3072 48.7842 46.0457 48.0651 45.6115C48.0651 45.6115 48.0791 44.4862 47.2293 43.7765C47.2293 43.7765 47.5515 45.1305 47.3694 45.5601L45.5951 45.2473C45.5951 45.2473 45.2916 44.1267 44.1523 43.0901C44.1523 43.0901 44.7219 44.8224 44.5585 45.0652C44.5585 45.0652 43.9748 44.9158 43.097 44.8364C43.097 44.8364 43.111 43.599 41.5375 42.9033C41.5375 42.9033 42.1912 44.1033 42.0978 44.5983C42.0978 44.5983 39.2402 43.0107 37.1671 42.7866L37.1577 42.7959Z" fill="#1B113A"/>
<path id="Vector_32" d="M37.368 42.3523C37.368 42.3523 33.7914 40.3445 31.382 40.2371L30.9104 40.9655L30.5883 40.0737C30.5883 40.0737 29.1128 39.7468 27.8661 39.9103C27.7167 39.9289 27.628 40.6573 27.6233 41.1149C27.6233 41.1149 27.2217 40.3865 27.189 39.9103C27.189 39.9103 22.6459 40.7881 18.1587 45.518C18.1587 45.518 22.3517 45.8122 24.4715 45.4994C24.4715 45.4994 24.1634 44.8457 24.1634 44.3554C24.1634 44.3554 24.7003 45.0698 25.2373 45.2939C25.2373 45.2939 27.5673 44.7289 27.8101 44.7616C27.8101 44.7616 27.8801 44.0239 27.9174 43.5523C27.9174 43.5523 28.2863 44.5702 28.4684 44.785L29.8645 44.5935C29.8645 44.5935 30.056 43.9678 30.2427 43.6177L30.4575 44.6916C30.4575 44.6916 31.9657 44.6589 32.7361 44.5282L32.8529 43.4029L33.3711 44.5655C33.3711 44.5655 36.9618 42.3896 37.3774 42.3523H37.368Z" fill="#1B113A"/>
<path id="Vector_33" d="M36.8826 42.9546C36.8826 42.9546 37.583 38.9111 39.0211 36.978L39.8849 37.0714L39.3947 36.2542C39.3947 36.2542 40.0717 34.9048 40.9869 34.041C41.0989 33.9383 41.7153 34.3305 42.0748 34.6107C42.0748 34.6107 41.7666 33.8402 41.4164 33.5134C41.4164 33.5134 44.9651 30.5437 51.4647 30.0535C51.4647 30.0535 49.046 33.49 47.4631 34.9375C47.4631 34.9375 47.1503 34.2838 46.7721 33.9756C46.7721 33.9756 46.9869 34.8441 46.8235 35.3998C46.8235 35.3998 44.9137 36.8472 44.7877 37.062C44.7877 37.062 44.1713 36.6511 43.7838 36.385C43.7838 36.385 44.3394 37.3142 44.3908 37.5897L43.3589 38.5515C43.3589 38.5515 42.7519 38.3041 42.3643 38.2293L43.06 39.0745C43.06 39.0745 42.0842 40.2231 41.4958 40.7367L40.5526 40.1157L41.127 41.2504C41.127 41.2504 37.1721 42.6605 36.8779 42.9593L36.8826 42.9546Z" fill="#1B113A"/>
<path id="Vector_34" d="M36.9243 42.5811C36.9243 42.5811 40.9726 43.2442 42.9196 44.6636L42.8356 45.5274L43.6481 45.0325C43.6481 45.0325 45.0068 45.6955 45.88 46.6014C45.9874 46.7134 45.5998 47.3344 45.3196 47.694C45.3196 47.694 46.0854 47.3764 46.4123 47.0263C46.4123 47.0263 49.4146 50.5469 49.9702 57.0418C49.9702 57.0418 46.5103 54.6558 45.0488 53.087C45.0488 53.087 45.6979 52.7648 46.006 52.3866C46.006 52.3866 45.1422 52.606 44.5819 52.4519C44.5819 52.4519 43.1158 50.5562 42.901 50.4301C42.901 50.4301 43.3072 49.8091 43.5687 49.4169C43.5687 49.4169 42.6442 49.9819 42.3687 50.0333L41.3975 49.0107C41.3975 49.0107 41.6403 48.399 41.7103 48.0115L40.8745 48.7165C40.8745 48.7165 39.7165 47.75 39.1982 47.1663L39.8099 46.2185L38.68 46.8021C38.68 46.8021 37.2325 42.8613 36.9337 42.5718L36.9243 42.5811Z" fill="#1B113A"/>
<path id="Vector_35" d="M37.0741 42.259C37.0741 42.259 34.506 45.4575 34.0064 47.8155L34.6461 48.3991L33.7122 48.5719C33.7122 48.5719 33.1472 49.9727 33.1006 51.2287C33.0959 51.3828 33.8009 51.5835 34.2492 51.6676C34.2492 51.6676 33.4648 51.9431 32.9932 51.9011C32.9932 51.9011 33.1146 56.5236 37.0414 61.7298C37.0414 61.7298 38.022 57.6442 38.0593 55.5011C38.0593 55.5011 37.3636 55.6972 36.8827 55.6178C36.8827 55.6178 37.6718 55.2069 37.9846 54.7166C37.9846 54.7166 37.8118 52.326 37.8819 52.0925C37.8819 52.0925 37.1628 51.9011 36.7099 51.7843C36.7099 51.7843 37.7745 51.5882 38.0126 51.4435L38.0546 50.0334C38.0546 50.0334 37.4663 49.7439 37.1581 49.5011L38.2507 49.4637C38.2507 49.4637 38.4655 47.9695 38.4655 47.1898L37.3776 46.8909L38.6056 46.5734C38.6056 46.5734 37.0461 42.6746 37.0788 42.259H37.0741Z" fill="#1B113A"/>
</g>
<path id="Vector_36" d="M37.779 42.4785C37.779 42.4785 39.8054 49.6832 44.5214 56.3462C48.084 61.3797 54.8124 74.0334 55.7696 86.6591L52.3144 87.0653C52.3144 87.0653 50.6381 72.8241 45.8101 63.5182C42.3315 56.8132 38.0825 49.814 36.8218 42.8287L37.779 42.4739V42.4785Z" fill="#1B113A"/>
<path id="Vector_37" d="M49.9612 91.6644C49.9612 91.6644 46.7347 89.8761 43.7744 89.3298C43.7744 89.3298 47.2764 88.4753 50.3908 89.9508C50.3908 89.9508 48.6631 86.136 46.2958 85.1274C46.2958 85.1274 49.7511 85.9819 51.474 88.8629C51.474 88.8629 50.9371 85.0481 49.0694 82.48C49.0694 82.48 51.8709 83.7267 53.4258 86.3695H58.4826C58.4826 86.3695 60.0374 83.4138 63.3853 82.48C63.3853 82.48 61.4382 83.4932 61.1301 87.0699C61.1301 87.0699 63.5441 85.1228 65.7993 86.136C65.7993 86.136 62.9184 87.3033 62.0639 88.7835C62.0639 88.7835 66.3456 86.9952 68.4468 88.7041C68.4468 88.7041 63.8569 89.3251 62.1433 91.6597H49.9612V91.6644Z" fill="#1B113A"/>
</g>
</g>
</g>
<defs>
<linearGradient id="paint0_linear_204_2021" x1="108.322" y1="92.7103" x2="98.8342" y2="98.8691" gradientUnits="userSpaceOnUse">
<stop stop-color="#FDA823"/>
<stop offset="0.51" stop-color="#E2593E"/>
<stop offset="0.99" stop-color="#FD2957"/>
</linearGradient>
<linearGradient id="paint1_linear_204_2021" x1="101.818" y1="33.7563" x2="13.0411" y2="91.3937" gradientUnits="userSpaceOnUse">
<stop stop-color="#FDA823"/>
<stop offset="0.51" stop-color="#E2593E"/>
<stop offset="0.99" stop-color="#FD2957"/>
</linearGradient>
<linearGradient id="paint2_linear_204_2021" x1="58.4313" y1="101.605" x2="59.0896" y2="124.055" gradientUnits="userSpaceOnUse">
<stop stop-color="#FDA823"/>
<stop offset="0.54" stop-color="#E2593E"/>
<stop offset="0.99" stop-color="#FD2957"/>
</linearGradient>
<clipPath id="clip0_204_2021">
<rect width="120" height="123.026" fill="white" transform="translate(0 0.00219727)"/>
</clipPath>
</defs>
</svg>
