<svg width="120" height="100" viewBox="0 0 120 100" fill="none" xmlns="http://www.w3.org/2000/svg">
<g id="Ativo 6 1" clip-path="url(#clip0_204_2117)">
<g id="Camada 1">
<g id="Group">
<g id="Group_2">
<path id="Vector" d="M78.3606 5.28252C70.9908 -0.350119 68.5881 -1.55711 62.1583 3.31223C60.1993 4.79371 58.9171 4.83883 56.9054 3.28215C50.5283 -1.65864 48.1105 -0.477963 40.6806 5.07196C32.5813 11.122 23.8014 24.0229 19.748 24.9554C20.8911 25.903 21.9853 26.6851 23.0908 27.2604C32.5738 40.0522 43.6134 47.4672 59.1427 47.5537C74.9539 47.6439 85.9786 40.4847 95.7022 27.6664C96.8152 27.1062 97.9169 26.3354 99.0713 25.4029C95.0329 24.4252 86.396 11.4265 78.3644 5.28628M37.774 24.3049C43.6435 21.2555 50.8366 18.1308 59.451 18.0857C68.0654 18.2286 75.2209 21.4322 81.0566 24.5493C65.0611 27.516 50.7201 26.9746 37.7702 24.3087" fill="#FC2B59"/>
<path id="Vector_2" d="M37.7705 24.3011C50.7203 26.9708 65.0576 27.5085 81.0569 24.5418C75.2212 21.4284 68.0619 18.221 59.4513 18.0781C50.8369 18.1232 43.6438 21.2479 37.7743 24.2973" fill="#010101"/>
<path id="Vector_3" d="M43.8504 21.4397C47.5654 22.9023 53.1567 23.8499 59.4135 23.8837C65.6741 23.9176 71.2729 23.0339 75.0029 21.6126C70.457 19.6837 65.2868 18.1759 59.4436 18.0781C53.6004 18.1082 48.4115 19.5596 43.8467 21.4397" fill="white"/>
</g>
<path id="Vector_4" d="M57.4582 18.0706C59.1578 18.5519 63.2751 17.9991 65.1175 25.7224C66.96 33.4456 64.6926 61.9322 64.6926 63.9852C64.6926 66.0383 64.8957 67.2678 64.8957 67.2678H52.1489L56.473 28.9824L57.4582 18.0706Z" fill="white"/>
<path id="Vector_5" d="M64.8958 67.2679H64.1927C64.1401 66.9219 64.392 48.3658 65.0049 44.0906C67.1895 28.8132 62.8541 18.9655 59.1579 18.5519C57.8757 18.409 57.62 18.7662 57.6802 20.5297C57.714 21.5262 57.5373 27.5273 57.4095 29.5239C57.323 30.8625 56.6086 31.3325 56.6086 31.3325C56.6086 31.3325 53.2019 62.2105 52.9462 67.2679H52.1528C52.1528 67.2679 53.1718 57.0441 53.3824 54.7392C53.7208 48.8584 55.5633 36.7132 56.0784 31.2987C55.8265 31.3062 55.5181 20.1312 55.7701 20.1236C56.5522 16.3297 58.9173 17.1381 60.4251 18.0105C70.0021 24.1658 65.6892 42.1278 65.7983 46.5046C65.9073 50.8813 64.9034 67.2679 64.9034 67.2679" fill="#010101"/>
<path id="Vector_6" d="M57.8716 30.7007C57.6949 32.0506 56.063 31.8701 56.0179 31.8551C56.0179 31.8551 55.5441 20.4432 55.7321 17.4463C55.9502 13.9494 55.687 14.1638 57.9656 14.1751C59.6877 14.1863 59.15 16.871 59.135 17.2771C58.9696 21.6765 58.3529 27.0647 57.8716 30.697" fill="#010101"/>
<path id="Vector_7" d="M47.9976 30.6858H44.2601C43.102 39.1761 40.5225 48.1365 37.522 55.3747C34.6304 48.708 29.9416 31.9868 29.9416 31.9868H21.831C21.831 31.9868 17.0068 48.708 14.0288 55.3747C10.9418 48.1365 8.28337 39.1761 7.09142 30.6858H3.24483C1.51142 30.6858 -0.00390625 31.8853 -0.00390625 34.021C-0.00390625 35.9499 7.89232 59.4243 11.9984 66.3166C12.0585 66.4219 12.1224 66.5234 12.1864 66.6287C14.6342 67.9071 17.74 66.6287 17.74 66.6287L24.9745 44.5982L25.9484 41.0073L26.8921 44.5982L33.916 66.6287C33.916 66.6287 36.9354 67.9071 39.3118 66.6287C39.3719 66.5234 39.4321 66.4219 39.4923 66.3166C43.4817 59.4243 51.1523 35.9499 51.1523 34.021C51.1523 31.8853 49.6784 30.6858 47.9976 30.6858Z" fill="#740054"/>
<path id="Vector_8" d="M79.2026 67.1925C74.2092 67.1925 70.4792 64.6732 70.4792 61.9547V58.939H70.7311C72.1938 60.2739 75.6719 61.4583 78.8981 61.4583C82.1242 61.4583 83.8388 60.5183 83.8388 58.5405C83.8388 57.0101 82.88 56.2656 78.1912 55.6226C72.442 54.8292 69.667 52.607 69.667 48.5536C69.667 43.5602 74.2543 39.3113 81.2143 39.3113C87.3658 39.3113 89.8889 42.4246 89.8889 44.9966V47.5196H89.6369C88.2269 46.1359 85.0985 45.0492 81.8723 45.0492C77.7362 45.0492 76.4239 46.2863 76.4239 48.0159C76.4239 49.3508 77.2323 49.896 81.8723 50.6367C87.52 51.5241 90.5469 53.9494 90.5469 58.1983C90.5469 63.8347 86.5123 67.1962 79.2026 67.1962" fill="#740054"/>
<path id="Vector_9" d="M117.782 67.1926C114.958 67.1926 113.194 65.5795 113.194 62.6542V51.5618C113.194 47.1249 110.773 45.3577 107.799 45.3577C105.682 45.3577 102.907 46.9708 102.907 51.7611V67.1926H100.688C97.511 67.1926 96.0483 65.4254 96.0483 62.6542V30.885H98.1653C101.391 30.885 102.956 32.7011 102.956 35.2204V42.985C103.963 41.372 106.283 39.3565 108.855 39.3565C115.864 39.3565 120 43.5415 120 51.2573V67.1926H117.782Z" fill="#740054"/>
<path id="Vector_10" d="M65.3017 99.8907C62.226 99.8907 61.1355 98.8604 61.1355 95.9501V84.2486C61.1355 76.3825 56.1421 75.5327 53.9951 75.5327C50.7614 75.5327 47.3059 77.6008 47.3059 83.4064V99.8944H46.8509C45.0536 99.8944 42.9103 99.2101 42.9103 95.9538V84.2524C42.9103 78.7965 40.2181 75.5365 35.7135 75.5365C32.382 75.5365 29.0242 78.0219 29.0242 83.5793V99.8982H28.5692C26.1741 99.8982 24.6851 98.3866 24.6851 95.9576V84.1997C24.6851 78.6273 26.7531 71.9869 36.6159 71.9869C39.8646 71.9869 42.5456 73.3631 44.5873 76.0817L45.9673 77.9204L47.178 75.9651C48.6783 73.5474 51.5773 71.9832 54.5629 71.9832C61.4702 71.9832 65.595 76.1907 65.595 83.2372V99.8944H65.3093L65.3017 99.8907Z" fill="#FC2B59"/>
<path id="Vector_11" d="M83.8992 99.8905C77.4995 99.8905 70.8779 94.8971 70.8779 86.5384C70.8779 77.6946 75.9691 71.9792 83.8465 71.9792C88.855 71.9792 94.1793 75.4649 94.1793 81.9247C94.1793 85.5119 92.1564 87.5875 81.8161 87.5875H75.2058L75.4653 89.3434C76.1158 93.7728 80.0601 96.7508 85.2754 96.7508C87.5653 96.7508 90.5283 96.435 93.0738 95.1378C93.0099 96.7584 92.288 99.8905 83.9029 99.8905M83.1885 75.0625C78.9922 75.0625 75.6645 78.4053 75.4502 82.8384L75.3073 85.4367H80.2256C85.9484 85.4367 90.329 85.1133 90.329 81.0449C90.329 77.3524 87.5954 75.0625 83.1923 75.0625" fill="#FC2B59"/>
</g>
</g>
</g>
<defs>
<clipPath id="clip0_204_2117">
<rect width="120" height="99.7256" fill="white" transform="translate(0 0.165039)"/>
</clipPath>
</defs>
</svg>
